<svg width="80" height="80" viewBox="0 0 80 80" fill="none" xmlns="http://www.w3.org/2000/svg">
<circle cx="40" cy="40" r="40" fill="white"/>
<rect opacity="0.2" x="31" y="28" width="19" height="16" fill="#6750FF"/>
<path fill-rule="evenodd" clip-rule="evenodd" d="M47.4073 20H26.9599C25.9102 20.0012 24.9038 20.4187 24.1615 21.1608C23.4192 21.903 23.0015 22.9093 23 23.9589V59.0767C23 59.3216 23.0973 59.5564 23.2704 59.7296C23.4436 59.9027 23.6784 60 23.9233 60H50.443C50.6878 60 50.9227 59.9027 51.0958 59.7296C51.269 59.5564 51.3662 59.3216 51.3662 59.0767V38.7717H54.34C54.8697 38.7724 55.3775 38.9832 55.752 39.3577C56.1265 39.7322 56.3372 40.24 56.338 40.7696V43.5394C56.338 44.6881 56.7943 45.7897 57.6065 46.6019C58.4187 47.4141 59.5203 47.8704 60.669 47.8704C61.8176 47.8704 62.9193 47.4141 63.7315 46.6019C64.5437 45.7897 65 44.6881 65 43.5394V30.7957C64.9965 29.4696 64.4976 28.1926 63.6013 27.2153L59.4097 22.1983C59.3319 22.1052 59.2365 22.0284 59.1291 21.9722C59.0216 21.916 58.9041 21.8815 58.7833 21.8707C58.6625 21.8599 58.5408 21.873 58.425 21.9092C58.3093 21.9455 58.2018 22.0042 58.1088 22.0819C58.0157 22.1597 57.9389 22.2551 57.8827 22.3625C57.8265 22.47 57.792 22.5875 57.7812 22.7083C57.7704 22.8291 57.7835 22.9508 57.8197 23.0666C57.856 23.1823 57.9147 23.2898 57.9925 23.3828L60.9229 26.8912C60.6846 26.8512 60.4434 26.8308 60.2018 26.8303C59.4954 26.8296 58.7995 27.0016 58.1748 27.3315C57.5501 27.6613 57.0155 28.1389 56.6177 28.7227C56.2199 29.3065 55.9708 29.9787 55.8923 30.6807C55.8138 31.3828 55.9082 32.0934 56.1672 32.7507C56.4263 33.4079 56.8421 33.9918 57.3785 34.4515C57.9149 34.9112 58.5556 35.2327 59.2448 35.3881C59.9339 35.5434 60.6506 35.5279 61.3324 35.3428C62.0141 35.1577 62.6403 34.8087 63.1562 34.3262V43.5431C63.1626 43.8735 63.1031 44.2018 62.981 44.5089C62.859 44.8159 62.677 45.0956 62.4456 45.3315C62.2142 45.5673 61.9381 45.7547 61.6335 45.8826C61.3288 46.0105 61.0017 46.0764 60.6713 46.0764C60.3409 46.0764 60.0138 46.0105 59.7091 45.8826C59.4045 45.7547 59.1284 45.5673 58.897 45.3315C58.6656 45.0956 58.4836 44.8159 58.3616 44.5089C58.2395 44.2018 58.18 43.8735 58.1863 43.5431V40.7733C58.1861 39.7531 57.7808 38.7748 57.0596 38.0532C56.3384 37.3316 55.3602 36.9259 54.34 36.9252H51.3662V23.9589C51.365 22.9093 50.9475 21.9031 50.2053 21.1609C49.4632 20.4187 48.4569 20.0012 47.4073 20ZM60.2 33.6449C59.7084 33.645 59.2277 33.4994 58.8189 33.2264C58.4101 32.9534 58.0914 32.5653 57.9031 32.1112C57.7148 31.6571 57.6655 31.1573 57.7613 30.6751C57.8571 30.1929 58.0937 29.75 58.4413 29.4023C58.7888 29.0546 59.2317 28.8178 59.7138 28.7218C60.196 28.6259 60.6958 28.675 61.15 28.8631C61.6042 29.0512 61.9924 29.3698 62.2655 29.7785C62.5387 30.1873 62.6845 30.6678 62.6845 31.1594C62.6825 31.8179 62.4202 32.4488 61.9547 32.9144C61.4892 33.3801 60.8584 33.6427 60.2 33.6449ZM49.5197 58.1535H24.8474V23.9589C24.8482 23.3989 25.071 22.862 25.467 22.466C25.863 22.07 26.3998 21.8473 26.9599 21.8465H47.4073C47.9673 21.8473 48.5042 22.07 48.9002 22.466C49.2962 22.862 49.519 23.3989 49.5197 23.9589V58.1535ZM46.401 24.7539H27.9662C27.7214 24.7539 27.4865 24.8512 27.3134 25.0243C27.1402 25.1975 27.043 25.4323 27.043 25.6772V39.8954C27.043 40.1402 27.1402 40.3751 27.3134 40.5482C27.4865 40.7214 27.7214 40.8186 27.9662 40.8186H46.401C46.6458 40.8186 46.8807 40.7214 47.0538 40.5482C47.2269 40.3751 47.3242 40.1402 47.3242 39.8954V25.6772C47.3242 25.4323 47.2269 25.1975 47.0538 25.0243C46.8807 24.8512 46.6458 24.7539 46.401 24.7539ZM45.4777 38.9721H28.8895V26.6004H45.4777V38.9721ZM37.0955 36.5558H37.0659C36.6229 36.5575 36.1839 36.4714 35.7743 36.3023C35.3648 36.1332 34.9929 35.8845 34.6802 35.5706C34.047 34.9361 33.6914 34.0763 33.6914 33.1799C33.6914 32.2834 34.047 31.4236 34.6802 30.7891L36.403 29.0672C36.5762 28.8941 36.8109 28.7969 37.0558 28.7969C37.3006 28.7969 37.5354 28.8941 37.7085 29.0672L39.4313 30.7891C40.0634 31.4228 40.4188 32.2811 40.4197 33.1761C40.4205 34.0712 40.0668 34.9302 39.4359 35.5651C39.1315 35.8779 38.7677 36.1267 38.3657 36.2968C37.9638 36.4669 37.5319 36.555 37.0955 36.5558ZM37.0558 31.0254L35.9857 32.0955C35.7032 32.3858 35.5451 32.7748 35.5451 33.1799C35.5451 33.5849 35.7032 33.974 35.9857 34.2642C36.1275 34.4062 36.2961 34.5187 36.4817 34.5951C36.6673 34.6715 36.8662 34.7103 37.0668 34.7092H37.0798C37.2726 34.71 37.4635 34.6719 37.6413 34.5974C37.8191 34.5228 37.9801 34.4133 38.1147 34.2753C38.1186 34.2724 38.122 34.269 38.1249 34.2651C38.4077 33.9748 38.5659 33.5856 38.5659 33.1803C38.5659 32.775 38.4077 32.3858 38.1249 32.0955L37.0558 31.0254Z" fill="#212170"/>
</svg>
