<svg width="80" height="80" viewBox="0 0 80 80" fill="none" xmlns="http://www.w3.org/2000/svg">
<circle cx="40" cy="40" r="40" fill="white"/>
<circle cx="40" cy="43" r="10" fill="#D9D3FF"/>
<path d="M38.4085 44.9679L36.1583 42.6603C35.7246 42.2155 35.0609 42.2155 34.6271 42.6603C34.1968 43.1016 34.1968 43.7713 34.6271 44.2126L37.6429 47.3054C37.7412 47.4062 37.8499 47.4921 37.9803 47.5515C38.112 47.6113 38.253 47.6382 38.4085 47.6382C38.6398 47.6382 38.956 47.5276 39.1736 47.3059L39.1741 47.3054L46.5461 39.745C46.9765 39.3037 46.9765 38.6341 46.5461 38.1928C46.1124 37.7479 45.4487 37.7479 45.0149 38.1928L38.4085 44.9679ZM40.0939 14.7502L40.0939 14.75H40.0837C37.8607 14.75 35.8051 16.1161 34.97 18.187H34.7224C33.3284 18.187 32.127 19.3295 32.127 20.8423V21.3655H28.6909C25.9495 21.3655 23.75 23.6315 23.75 26.4263V60.1893C23.75 62.9841 25.9505 65.25 28.6909 65.25H51.3091C54.0495 65.25 56.25 62.9841 56.25 60.1893V26.4263V26.4252C56.25 23.6275 54.0477 21.3645 51.2254 21.3645H47.7894V20.8413C47.7894 19.4272 46.6842 18.1859 45.1939 18.1859H44.9465C44.121 16.1238 42.2316 14.8378 40.0939 14.7502ZM42.463 18.1859H37.5429C38.168 17.3919 39.0599 16.9705 40.0745 16.968C41.0195 17.0394 41.8943 17.466 42.463 18.1859ZM34.7224 24.4583C34.5109 24.4583 34.3022 24.2983 34.3022 24.0209V20.8423C34.3022 20.6099 34.467 20.405 34.7224 20.405H45.2776C45.4891 20.405 45.6978 20.5649 45.6978 20.8423V24.0209C45.6978 24.2534 45.533 24.4583 45.2776 24.4583H34.7224ZM51.3091 23.5835C52.8403 23.5835 54.0748 24.8404 54.0748 26.4263V60.1893C54.0748 61.7751 52.8403 63.032 51.3091 63.032H28.6909C27.1597 63.032 25.9252 61.7751 25.9252 60.1893V26.4252C25.9252 24.8393 27.1597 23.5825 28.6909 23.5825H32.127V24.1057C32.127 25.5207 33.2321 26.7621 34.7224 26.7621H45.2776C46.6716 26.7621 47.873 25.6195 47.873 24.1067V23.5835H51.3091Z" fill="#212170" stroke="#212170" stroke-width="0.5"/>
</svg>
