<svg width="80" height="80" viewBox="0 0 80 80" fill="none" xmlns="http://www.w3.org/2000/svg">
<circle cx="40" cy="40" r="40" fill="white"/>
<circle opacity="0.25" cx="54.5" cy="31.5" r="5.5" fill="#09DA90"/>
<path d="M29.3806 53.989H50.258C51.3651 53.9874 52.4269 53.5476 53.2095 52.7649C53.9921 51.9823 54.4327 50.9206 54.4335 49.8135V38.6788C54.4335 38.1817 54.1679 37.722 53.7376 37.4731C53.3073 37.2242 52.7761 37.225 52.3458 37.4731C51.9155 37.7212 51.6499 38.1809 51.6499 38.6788V49.8135C51.6499 50.1825 51.5027 50.5364 51.2419 50.7973C50.981 51.0582 50.6271 51.2045 50.258 51.2053H29.3806C29.0115 51.2053 28.6576 51.0582 28.3967 50.7973C28.1359 50.5364 27.9895 50.1825 27.9887 49.8135V30.3278C27.9887 29.9588 28.1359 29.6049 28.3967 29.344C28.6576 29.0831 29.0115 28.9368 29.3806 28.936H41.907C42.4041 28.936 42.8638 28.6704 43.1128 28.2401C43.3617 27.8098 43.3609 27.2785 43.1128 26.8483C42.8646 26.418 42.4049 26.1523 41.907 26.1523H29.3806C28.2735 26.1539 27.2117 26.5938 26.4299 27.3772C25.6465 28.159 25.2067 29.2207 25.2051 30.3278V49.8135C25.2067 50.9206 25.6465 51.9823 26.4299 52.7649C27.2125 53.5476 28.2743 53.9882 29.3806 53.989Z" fill="#212170"/>
<path d="M23.6755 59.694H44.553C45.6601 59.6924 46.7218 59.2526 47.5044 58.47C48.287 57.6874 48.7277 56.6257 48.7284 55.5185V53.5107C48.7284 53.0136 48.4628 52.5539 48.0325 52.3049C47.6023 52.056 47.071 52.0568 46.6407 52.3049C46.2104 52.5531 45.9448 53.0128 45.9448 53.5107V55.5185C45.9448 55.8876 45.7977 56.2415 45.5368 56.5024C45.2759 56.7632 44.922 56.9096 44.553 56.9104H23.6755C23.3065 56.9104 22.9525 56.7632 22.6917 56.5024C22.4308 56.2415 22.2845 55.8876 22.2837 55.5185V36.0329C22.2837 35.6639 22.4308 35.31 22.6917 35.0491C22.9525 34.7882 23.3065 34.6419 23.6755 34.6411H25.9344C26.4314 34.6411 26.8912 34.3754 27.1401 33.9452C27.389 33.5149 27.3882 32.9836 27.1401 32.5533C26.8919 32.1231 26.4322 31.8574 25.9344 31.8574H23.6755C22.5684 31.859 21.5066 32.2988 20.7248 33.0822C19.9414 33.864 19.5016 34.9258 19.5 36.0329V55.5185C19.5016 56.6257 19.9414 57.6874 20.7248 58.47C21.5074 59.2526 22.5692 59.6932 23.6755 59.694Z" fill="#212170"/>
<path d="M53.0412 20.5859C51.1952 20.5859 49.4256 21.3192 48.1205 22.6244C46.8153 23.9295 46.082 25.6991 46.082 27.5451C46.082 29.3911 46.8153 31.1607 48.1205 32.4658C49.4256 33.771 51.1952 34.5042 53.0412 34.5042C54.8872 34.5042 56.6568 33.771 57.9619 32.4658C59.267 31.1607 60.0003 29.3911 60.0003 27.5451C59.998 25.6999 59.2647 23.9311 57.9595 22.6268C56.6552 21.3216 54.8864 20.5883 53.0412 20.5859ZM53.0412 31.7206C51.9333 31.7206 50.8715 31.2808 50.0889 30.4974C49.3063 29.714 48.8657 28.6522 48.8657 27.5451C48.8657 26.438 49.3055 25.3754 50.0889 24.5928C50.8723 23.8102 51.9341 23.3696 53.0412 23.3696C54.1483 23.3696 55.2109 23.8094 55.9935 24.5928C56.7761 25.3762 57.2167 26.438 57.2167 27.5451C57.2151 28.6522 56.7753 29.714 55.9919 30.4958C55.2093 31.2784 54.1475 31.719 53.0404 31.7206H53.0412Z" fill="#212170"/>
<path d="M32.1636 34.5044H39.1228C39.6199 34.5044 40.0796 34.2387 40.3285 33.8084C40.5774 33.3782 40.5766 32.8469 40.3285 32.4166C40.0803 31.9863 39.6206 31.7207 39.1228 31.7207H32.1636C31.6665 31.7207 31.2068 31.9863 30.9579 32.4166C30.709 32.8469 30.7097 33.3782 30.9579 33.8084C31.206 34.2387 31.6657 34.5044 32.1636 34.5044Z" fill="#212170"/>
<path d="M30.7715 38.6789C30.7715 39.048 30.9178 39.4019 31.1787 39.6636C31.4396 39.9252 31.7935 40.0708 32.1633 40.0708H44.6898C45.1869 40.0708 45.6466 39.8051 45.8955 39.3749C46.1445 38.9446 46.1437 38.4133 45.8955 37.983C45.6474 37.5528 45.1877 37.2871 44.6898 37.2871H32.1633C31.7943 37.2871 31.4404 37.4335 31.1787 37.6943C30.917 37.9552 30.7715 38.3091 30.7715 38.6789Z" fill="#212170"/>
</svg>
