<svg width="80" height="80" viewBox="0 0 80 80" fill="none" xmlns="http://www.w3.org/2000/svg">
<circle cx="40" cy="40" r="40" fill="white"/>
<path d="M53 45L40 58V63H45L58 50L53 45Z" fill="#D9D3FF"/>
<path d="M23.5 23C23.1023 23 22.7209 23.1577 22.4389 23.4397C22.1569 23.7217 22 24.1023 22 24.5V57.5C22 57.8977 22.1577 58.2791 22.4389 58.5611C22.72 58.8423 23.1014 59 23.5 59H33.3469C33.748 59.006 34.1354 58.85 34.4217 58.568C34.708 58.286 34.8683 57.9011 34.8683 57.5C34.8683 57.0989 34.7071 56.714 34.4217 56.432C34.1363 56.15 33.7489 55.994 33.3469 56H25V26H55V35.228C54.994 35.63 55.15 36.0166 55.432 36.3029C55.714 36.5891 56.0989 36.7494 56.5 36.7494C56.9011 36.7494 57.286 36.5883 57.568 36.3029C57.85 36.0174 58.006 35.63 58 35.228V24.5C58 24.1023 57.8423 23.7209 57.5611 23.4389C57.28 23.1569 56.8986 23 56.5 23H23.5V23Z" fill="#212170"/>
<path d="M53.1123 38.8479C52.7231 38.8539 52.3511 39.0116 52.0751 39.2867L38.2854 53.0764C38.0043 53.3584 37.8466 53.739 37.8457 54.1376V60.501C37.8457 60.8987 38.0043 61.2802 38.2854 61.5622C38.5666 61.8442 38.948 62.001 39.3457 62.001H45.7117C46.1094 62.001 46.4908 61.8433 46.772 61.5613L60.5591 47.7742C60.8411 47.493 60.9997 47.1107 60.9997 46.7122C60.9997 46.3136 60.8411 45.9313 60.5591 45.6502L54.1957 39.2867C53.9086 38.9996 53.5177 38.841 53.1114 38.8479H53.1123ZM53.1363 42.4693L57.3783 46.7113L45.0886 59.001H40.8466V54.759L53.1363 42.4693Z" fill="#212170"/>
<path d="M34 34C34 34.5306 33.7891 35.0385 33.4142 35.4142C33.0393 35.7891 32.5306 36 32 36C31.4694 36 30.9615 35.7891 30.5858 35.4142C30.2109 35.0393 30 34.5306 30 34C30 33.4694 30.2109 32.9615 30.5858 32.5858C30.9607 32.2109 31.4694 32 32 32C32.5306 32 33.0385 32.2109 33.4142 32.5858C33.7891 32.9607 34 33.4694 34 34Z" fill="#212170"/>
<path d="M37.5207 35.5002H49.4787C51.5067 35.5293 51.5067 32.4711 49.4787 32.5002H37.5207C36.6756 32.4882 35.9873 33.1782 36.0002 34.0148C36.0156 34.8513 36.6936 35.5113 37.5207 35.5002Z" fill="#212170"/>
<path d="M37.5207 41.5002H42.7287C44.7567 41.5293 44.7567 38.4711 42.7287 38.5002H37.5207C36.6756 38.4882 35.9873 39.1782 36.0002 40.0148C36.0156 40.8513 36.6936 41.5113 37.5207 41.5002Z" fill="#212170"/>
<path d="M34 40C34 40.5306 33.7893 41.0387 33.4144 41.4144C33.0395 41.7893 32.5306 42 32 42C31.4694 42 30.9613 41.7893 30.5856 41.4144C30.2107 41.0395 30 40.5306 30 40C30 39.4694 30.2107 38.9613 30.5856 38.5856C30.9605 38.2107 31.4694 38 32 38C32.5306 38 33.0387 38.2107 33.4144 38.5856C33.7893 38.9605 34 39.4694 34 40Z" fill="#212170"/>
</svg>
