<svg width="80" height="80" viewBox="0 0 80 80" fill="none" xmlns="http://www.w3.org/2000/svg">
<circle cx="40" cy="40" r="40" fill="white"/>
<path d="M56 54.7273L36 40V64.5455L42.875 57.7955L47.875 67L52.25 64.5455L47.875 55.9545L56 54.7273Z" fill="#D9D3FF"/>
<path d="M48.7866 63.5376C48.5622 63.5376 48.3427 63.4757 48.1514 63.358C47.9608 63.2403 47.8067 63.0718 47.7062 62.8708L45.2296 57.9376L40.0109 63.1839C39.7865 63.4172 39.4776 63.55 39.1534 63.5528C38.8293 63.5555 38.5183 63.4275 38.2898 63.1984C38.0614 62.9685 37.9348 62.6568 37.9396 62.3334V35.0374C37.9396 34.736 38.0524 34.4449 38.2554 34.2226C38.4591 34.0003 38.7392 33.8627 39.0392 33.8366C39.3399 33.8104 39.6393 33.8978 39.878 34.0822L60.7511 50.1384C60.9967 50.3276 61.1605 50.6042 61.2073 50.9104C61.2541 51.2167 61.1812 51.5298 61.0036 51.7837C60.8261 52.0376 60.557 52.2138 60.2529 52.2743L53.7783 53.5632L56.2872 58.581C56.4269 58.8652 56.4489 59.1935 56.3484 59.4942C56.248 59.7949 56.0326 60.0433 55.7498 60.1864L49.3274 63.3979C49.1602 63.4874 48.9751 63.5356 48.7852 63.5383L48.7866 63.5376ZM45.5751 54.7069C45.6391 54.7007 45.7038 54.7007 45.7677 54.7069C46.151 54.7681 46.4813 55.0103 46.6547 55.3571L49.324 60.728L53.5987 58.5886L50.9212 53.2294C50.7477 52.8923 50.7429 52.4925 50.9088 52.1518C51.0746 51.8105 51.3918 51.5676 51.7641 51.4954L57.199 50.4074L40.3494 37.4465V59.4274L44.7204 55.0564C44.9468 54.8321 45.2523 54.7062 45.5716 54.7075H45.5758L45.5751 54.7069Z" fill="#212170" stroke="#212170" stroke-width="0.5"/>
<path d="M30.046 43.7821C29.684 43.7834 29.3413 43.6231 29.1108 43.3437C28.881 43.065 28.7888 42.6969 28.8589 42.3425C28.9298 41.9881 29.1562 41.6839 29.4755 41.514L32.2211 40.0407C32.5996 39.8453 33.0538 39.8638 33.4144 40.0902C33.7756 40.3166 33.9896 40.7178 33.9779 41.1438C33.9662 41.5697 33.7295 41.9578 33.3572 42.1643L30.6116 43.6375C30.4375 43.7318 30.2435 43.7814 30.046 43.7821Z" fill="#212170"/>
<path d="M47.4425 34.4543C47.0812 34.4556 46.7378 34.2946 46.5073 34.0159C46.2775 33.7372 46.1852 33.3691 46.2554 33.0147C46.3256 32.6603 46.5527 32.3562 46.872 32.1869L49.6176 30.7136C49.9968 30.5099 50.4558 30.5244 50.8219 30.7508C51.1879 30.9771 51.4054 31.3825 51.3916 31.8125C51.3786 32.2426 51.1363 32.6335 50.7572 32.8372L48.0074 34.3104C47.8333 34.404 47.6393 34.4536 47.4418 34.455L47.4425 34.4543Z" fill="#212170"/>
<path d="M36.1902 31.0538C35.972 31.0538 35.7573 30.996 35.5709 30.8838C35.3837 30.7723 35.2296 30.612 35.1263 30.4193L33.653 27.6737C33.4494 27.2938 33.4638 26.8349 33.6902 26.4695C33.9173 26.1034 34.3219 25.8859 34.752 25.899C35.1821 25.9128 35.5729 26.1543 35.7766 26.5335L37.2499 29.2832C37.4488 29.6562 37.4371 30.1055 37.2203 30.4682C37.0036 30.8308 36.6127 31.0524 36.1902 31.0538Z" fill="#212170"/>
<path d="M32.1606 35.9786C32.0423 35.9786 31.9246 35.9614 31.8111 35.9263L28.8246 35.0352C28.4234 34.9024 28.1213 34.5679 28.0291 34.1557C27.9369 33.7429 28.067 33.3128 28.3732 33.0203C28.6794 32.7286 29.1157 32.6185 29.523 32.7306L32.5054 33.63C32.8804 33.7394 33.1791 34.0236 33.3071 34.3931C33.4344 34.7627 33.3745 35.1707 33.1467 35.488C32.919 35.8052 32.5508 35.9924 32.1606 35.9896V35.9779V35.9786Z" fill="#212170"/>
<path d="M42.5726 30.3965C42.4542 30.3944 42.3366 30.3772 42.2237 30.3442C41.9182 30.2513 41.6622 30.0414 41.5115 29.76C41.3608 29.4785 41.3284 29.1489 41.4207 28.8434L42.32 25.8569C42.4446 25.4447 42.7797 25.1302 43.1995 25.0318C43.6185 24.9334 44.0589 25.0669 44.3535 25.3807C44.648 25.6952 44.7526 26.1425 44.628 26.5547L43.7252 29.537C43.6509 29.7847 43.4988 30.0022 43.2917 30.157C43.0846 30.3118 42.832 30.3951 42.5733 30.3958L42.5726 30.3965Z" fill="#212170"/>
<path d="M22.5 18C22.1023 18 21.7209 18.1577 21.4389 18.4397C21.1569 18.7217 21 19.1023 21 19.5V52.5C21 52.8977 21.1577 53.2791 21.4389 53.5611C21.72 53.8423 22.1014 54 22.5 54H32.3469C32.748 54.006 33.1354 53.85 33.4217 53.568C33.708 53.286 33.8683 52.9011 33.8683 52.5C33.8683 52.0989 33.7071 51.714 33.4217 51.432C33.1363 51.15 32.7489 50.994 32.3469 51H24V21H54V38.228C53.994 38.63 54.15 39.0166 54.432 39.3029C54.714 39.5891 55.0989 39.7494 55.5 39.7494C55.9011 39.7494 56.286 39.5883 56.568 39.3029C56.85 39.0174 57.006 38.63 57 38.228V19.5C57 19.1023 56.8423 18.7209 56.5611 18.4389C56.28 18.1569 55.8986 18 55.5 18H22.5Z" fill="#212170"/>
</svg>
