<svg width="80" height="80" viewBox="0 0 80 80" fill="none" xmlns="http://www.w3.org/2000/svg">
<circle cx="40" cy="40" r="40" fill="white"/>
<rect opacity="0.2" x="33" y="38" width="9" height="9" rx="2" fill="#6750FF"/>
<path fill-rule="evenodd" clip-rule="evenodd" d="M59.7419 40.6377C59.5757 40.8092 59.3493 40.9093 59.1107 40.9169H53.521V45.3075H59.1107C59.3493 45.3151 59.5757 45.4152 59.7419 45.5868C59.908 45.7583 60.0009 45.9877 60.0009 46.2265C60.0009 46.4653 59.908 46.6947 59.7419 46.8662C59.5757 47.0377 59.3493 47.1379 59.1107 47.1454H53.521V48.6815C53.5193 49.9561 53.0123 51.1779 52.1111 52.0792C51.21 52.9805 49.9882 53.4878 48.7137 53.4897H47.1776V59.0794C47.17 59.3181 47.0699 59.5445 46.8984 59.7106C46.7269 59.8768 46.4975 59.9697 46.2587 59.9697C46.0199 59.9697 45.7904 59.8768 45.6189 59.7106C45.4474 59.5445 45.3473 59.3181 45.3397 59.0794V53.4897H40.9481V59.0794C40.9406 59.3181 40.8404 59.5445 40.6689 59.7106C40.4974 59.8768 40.268 59.9697 40.0292 59.9697C39.7904 59.9697 39.5609 59.8768 39.3894 59.7106C39.2179 59.5445 39.1178 59.3181 39.1102 59.0794V53.4897H34.7196V59.0785C34.712 59.3172 34.6118 59.5435 34.4403 59.7097C34.2688 59.8758 34.0394 59.9688 33.8006 59.9688C33.5618 59.9688 33.3324 59.8758 33.1609 59.7097C32.9894 59.5435 32.8892 59.3172 32.8816 59.0785V53.4888H31.3456C30.0711 53.4869 28.8493 52.9796 27.9481 52.0783C27.047 51.177 26.54 49.9551 26.5383 48.6806V47.1445H20.9486C20.8255 47.1484 20.7028 47.1276 20.5879 47.0831C20.473 47.0387 20.3682 46.9716 20.2797 46.8859C20.1912 46.8002 20.1209 46.6976 20.0728 46.5841C20.0248 46.4707 20 46.3488 20 46.2256C20 46.1024 20.0248 45.9804 20.0728 45.867C20.1209 45.7535 20.1912 45.6509 20.2797 45.5652C20.3682 45.4795 20.473 45.4124 20.5879 45.368C20.7028 45.3236 20.8255 45.3027 20.9486 45.3066H26.5383V40.9215H20.9486C20.8255 40.9254 20.7028 40.9045 20.5879 40.8601C20.473 40.8157 20.3682 40.7486 20.2797 40.6629C20.1912 40.5772 20.1209 40.4746 20.0728 40.3611C20.0248 40.2477 20 40.1257 20 40.0026C20 39.8794 20.0248 39.7574 20.0728 39.644C20.1209 39.5305 20.1912 39.4279 20.2797 39.3422C20.3682 39.2565 20.473 39.1894 20.5879 39.145C20.7028 39.1006 20.8255 39.0797 20.9486 39.0836H26.5383V34.693H20.9486C20.8255 34.6969 20.7028 34.676 20.5879 34.6316C20.473 34.5871 20.3682 34.5201 20.2797 34.4344C20.1912 34.3486 20.1209 34.246 20.0728 34.1326C20.0248 34.0191 20 33.8972 20 33.774C20 33.6508 20.0248 33.5289 20.0728 33.4154C20.1209 33.302 20.1912 33.1993 20.2797 33.1136C20.3682 33.0279 20.473 32.9608 20.5879 32.9164C20.7028 32.872 20.8255 32.8511 20.9486 32.855H26.5383V31.319C26.54 30.0444 27.047 28.8226 27.9481 27.9213C28.8493 27.0199 30.0711 26.5127 31.3456 26.5107H32.8816V20.9173C32.8777 20.7942 32.8986 20.6715 32.943 20.5566C32.9875 20.4417 33.0545 20.3369 33.1402 20.2484C33.226 20.16 33.3286 20.0896 33.442 20.0416C33.5555 19.9935 33.6774 19.9688 33.8006 19.9688C33.9238 19.9688 34.0458 19.9935 34.1592 20.0416C34.2726 20.0896 34.3753 20.16 34.461 20.2484C34.5467 20.3369 34.6138 20.4417 34.6582 20.5566C34.7026 20.6715 34.7235 20.7942 34.7196 20.9173V26.5107H39.1102V20.9173C39.1063 20.7942 39.1272 20.6715 39.1716 20.5566C39.216 20.4417 39.2831 20.3369 39.3688 20.2484C39.4545 20.16 39.5571 20.0896 39.6706 20.0416C39.784 19.9935 39.906 19.9688 40.0292 19.9688C40.1524 19.9688 40.2743 19.9935 40.3878 20.0416C40.5012 20.0896 40.6038 20.16 40.6895 20.2484C40.7753 20.3369 40.8423 20.4417 40.8867 20.5566C40.9312 20.6715 40.952 20.7942 40.9481 20.9173V26.5107H45.3397V20.9173C45.3358 20.7942 45.3567 20.6715 45.4011 20.5566C45.4455 20.4417 45.5126 20.3369 45.5983 20.2484C45.684 20.16 45.7866 20.0896 45.9001 20.0416C46.0135 19.9935 46.1355 19.9688 46.2587 19.9688C46.3819 19.9688 46.5038 19.9935 46.6172 20.0416C46.7307 20.0896 46.8333 20.16 46.919 20.2484C47.0047 20.3369 47.0718 20.4417 47.1162 20.5566C47.1607 20.6715 47.1815 20.7942 47.1776 20.9173V26.5107H48.7137C49.9874 26.5127 51.2085 27.0193 52.1095 27.9196C53.0105 28.8199 53.5181 30.0406 53.521 31.3143V32.8504H59.1107C59.3493 32.858 59.5757 32.9581 59.7419 33.1296C59.908 33.3011 60.0009 33.5306 60.0009 33.7694C60.0009 34.0082 59.908 34.2376 59.7419 34.4091C59.5757 34.5806 59.3493 34.6807 59.1107 34.6883H53.521V39.079H59.1107C59.3493 39.0865 59.5757 39.1867 59.7419 39.3582C59.908 39.5297 60.0009 39.7591 60.0009 39.9979C60.0009 40.2367 59.908 40.4661 59.7419 40.6377ZM51.4573 49.8181C51.6065 49.4578 51.6832 49.0715 51.6831 48.6815V31.3143C51.6832 30.9243 51.6065 30.5381 51.4573 30.1777C51.3081 29.8173 51.0894 29.4899 50.8137 29.2141C50.5379 28.9382 50.2105 28.7194 49.8502 28.5701C49.4899 28.4209 49.1037 28.344 48.7137 28.344H31.3456C30.9556 28.344 30.5693 28.4209 30.209 28.5701C29.8487 28.7194 29.5213 28.9382 29.2456 29.2141C28.9698 29.4899 28.7511 29.8173 28.602 30.1777C28.4528 30.5381 28.3761 30.9243 28.3762 31.3143V48.6815C28.3761 49.0715 28.4528 49.4578 28.602 49.8181C28.7511 50.1785 28.9698 50.506 29.2456 50.7818C29.5213 51.0576 29.8487 51.2764 30.209 51.4257C30.5693 51.575 30.9556 51.6518 31.3456 51.6518H48.7137C49.1037 51.6518 49.4899 51.575 49.8502 51.4257C50.2105 51.2764 50.5379 51.0576 50.8137 50.7818C51.0894 50.506 51.3081 50.1785 51.4573 49.8181ZM37.2738 34.4648H42.7848C43.5214 34.4663 44.2273 34.7597 44.748 35.2807C45.2686 35.8017 45.5615 36.5078 45.5625 37.2444V42.7545C45.561 43.4907 45.2679 44.1964 44.7473 44.717C44.2267 45.2376 43.521 45.5307 42.7848 45.5322H37.2738C36.5376 45.5307 35.8319 45.2376 35.3113 44.717C34.7907 44.1964 34.4976 43.4907 34.4961 42.7545V37.2426C34.4976 36.5063 34.7907 35.8006 35.3113 35.28C35.8319 34.7594 36.5376 34.4663 37.2738 34.4648ZM43.4513 43.4228C43.6281 43.246 43.7274 43.0063 43.7274 42.7563V37.2444C43.7274 37.1207 43.703 36.9981 43.6556 36.8838C43.6082 36.7695 43.5388 36.6657 43.4512 36.5782C43.3637 36.4908 43.2598 36.4214 43.1454 36.3742C43.0311 36.3269 42.9085 36.3026 42.7848 36.3028H37.2738C37.1501 36.3026 37.0275 36.3269 36.9132 36.3742C36.7988 36.4214 36.6949 36.4908 36.6074 36.5782C36.5198 36.6657 36.4504 36.7695 36.403 36.8838C36.3556 36.9981 36.3312 37.1207 36.3312 37.2444V42.7563C36.3312 43.0063 36.4306 43.246 36.6073 43.4228C36.7841 43.5996 37.0238 43.6989 37.2738 43.6989H42.7848C43.0348 43.6989 43.2745 43.5996 43.4513 43.4228Z" fill="#212170"/>
</svg>
