<svg width="80" height="80" viewBox="0 0 80 80" fill="none" xmlns="http://www.w3.org/2000/svg">
<circle cx="40" cy="40" r="40" fill="white"/>
<g clip-path="url(#clip0_859_18301)">
<path d="M60.5 58.02H22V20.5C22 20.1022 21.842 19.7206 21.5607 19.4393C21.2794 19.158 20.8978 19 20.5 19C20.1022 19 19.7206 19.158 19.4393 19.4393C19.158 19.7206 19 20.1022 19 20.5V59.5C19 59.8978 19.158 60.2794 19.4393 60.5607C19.7206 60.842 20.1022 61 20.5 61H60.5C60.8978 61 61.2794 60.842 61.5607 60.5607C61.842 60.2794 62 59.8978 62 59.5C62 59.1022 61.842 58.7206 61.5607 58.4393C61.2794 58.158 60.8978 58 60.5 58V58.02Z" fill="#212170"/>
<path d="M28.4574 57.7096C28.6956 57.8954 28.9893 57.9975 29.2924 58C29.492 58.0014 29.6893 57.9578 29.8694 57.8724C30.0495 57.787 30.2076 57.6622 30.3316 57.5073L36.7449 44.1256L43.629 48.982L44.0198 49.1668C44.1823 49.2169 44.3534 49.2342 44.5227 49.2176C44.6921 49.2009 44.8564 49.1508 45.0058 49.07C45.2148 48.9322 45.3981 48.7595 45.5476 48.5597L54.7767 32.7762L55.3807 35.0109C55.4556 35.2921 55.6228 35.5407 55.856 35.7175C56.0892 35.8943 56.3751 35.9893 56.6687 35.9874C56.7828 35.9896 56.8966 35.9748 57.0063 35.9435C57.3477 35.8546 57.6396 35.6351 57.8178 35.3332C57.996 35.0313 58.046 34.6718 57.9567 34.3334L56.5088 28.9843C56.4191 28.6461 56.1975 28.357 55.8927 28.1805C55.5879 28.0039 55.2249 27.9545 54.8833 28.0429L49.5537 29.4506C49.2121 29.5416 48.921 29.7632 48.7444 30.0668C48.5679 30.3704 48.5203 30.731 48.6121 31.0694C48.704 31.4077 48.9278 31.6961 49.2344 31.8709C49.5409 32.0458 49.905 32.093 50.2466 32.002L52.4761 31.4125L43.9754 45.9819L37.1713 41.187L36.9492 41.0815C36.88 41.0393 36.8053 41.0067 36.7272 40.9847C36.6355 40.9786 36.5435 40.9786 36.4518 40.9847H36.212L35.9455 41.0639C35.8733 41.0829 35.8045 41.1126 35.7412 41.1519C35.6595 41.1968 35.5847 41.2531 35.5191 41.319C35.4619 41.3582 35.411 41.4056 35.3681 41.4598L28.262 55.9236C28.0699 56.1756 27.9782 56.4888 28.0044 56.8034C28.0156 56.9767 28.0614 57.146 28.1391 57.3015C28.2169 57.4571 28.3251 57.5958 28.4574 57.7096Z" fill="#D9D3FF"/>
<path d="M24.5618 55.6711C24.8299 55.8822 25.1606 55.9983 25.5018 56.0011C25.7266 56.0027 25.9487 55.9531 26.1514 55.8561C26.3542 55.7591 26.5321 55.6171 26.6718 55.4411L33.8918 40.2311L41.6418 45.7511L42.0818 45.9611C42.2648 46.0181 42.4573 46.0377 42.648 46.0188C42.8387 45.9999 43.0236 45.9429 43.1918 45.8511C43.4271 45.6944 43.6335 45.4982 43.8018 45.2711L54.1918 27.3311L54.8718 29.8711C54.9561 30.1907 55.1443 30.4733 55.4069 30.6742C55.6694 30.8752 55.9912 30.9831 56.3218 30.9811C56.4503 30.9836 56.5784 30.9667 56.7018 30.9311C57.0862 30.8301 57.4148 30.5806 57.6155 30.2375C57.8161 29.8944 57.8723 29.4856 57.7718 29.1011L56.1418 23.0211C56.0408 22.6367 55.7913 22.3081 55.4482 22.1075C55.1051 21.9068 54.6964 21.8506 54.3118 21.9511L48.3118 23.5511C47.9273 23.6545 47.5995 23.9065 47.4007 24.2516C47.202 24.5966 47.1484 25.0065 47.2518 25.3911C47.3553 25.7757 47.6072 26.1034 47.9523 26.3022C48.2974 26.501 48.7073 26.5545 49.0918 26.4511L51.6018 25.7811L42.0318 42.3411L34.3718 36.8911L34.1218 36.7711C34.0439 36.7232 33.9598 36.6861 33.8718 36.6611C33.7686 36.6542 33.665 36.6542 33.5618 36.6611H33.2918L32.9918 36.7511C32.9106 36.7727 32.8331 36.8064 32.7618 36.8511C32.6698 36.9021 32.5856 36.9661 32.5118 37.0411C32.4475 37.0856 32.3901 37.1395 32.3418 37.2011L24.3418 53.6411C24.1255 53.9275 24.0223 54.2834 24.0518 54.6411C24.0644 54.838 24.116 55.0304 24.2035 55.2072C24.2911 55.3841 24.4129 55.5417 24.5618 55.6711Z" fill="#212170"/>
</g>
<defs>
<clipPath id="clip0_859_18301">
<rect width="43" height="42.02" fill="white" transform="translate(19 19)"/>
</clipPath>
</defs>
</svg>
