<svg width="24" height="24" viewBox="0 0 24 24" fill="none" xmlns="http://www.w3.org/2000/svg">
<path d="M14.2851 20.9589C16.3457 20.7323 17.9532 18.999 18.6548 17.0392C19.2806 17.029 19.8774 16.7685 20.3162 16.3139C20.755 15.8594 21.0006 15.2472 21 14.6098V12.16C20.9966 11.587 20.7931 11.0341 20.4258 10.6001C20.0585 10.1662 19.5514 9.87962 18.9955 9.79182C18.9095 7.96119 18.1349 6.23455 16.8324 4.96999C15.5299 3.70543 13.7995 3 12 3C10.2005 3 8.47012 3.70543 7.16763 4.96999C5.86515 6.23455 5.09053 7.96119 5.00445 9.79182C4.44568 9.88135 3.93668 10.1712 3.56917 10.6091C3.20167 11.0471 2.99982 11.6043 3 12.1804V14.6302C3 15.2745 3.25131 15.8924 3.69864 16.348C4.14597 16.8036 4.75268 17.0596 5.3853 17.0596H5.90646C6.53908 17.0596 7.14579 16.8036 7.59312 16.348C8.04045 15.8924 8.29176 15.2745 8.29176 14.6302V12.1804C8.28996 11.6112 8.0925 11.0607 7.73366 10.6243C7.37481 10.188 6.87726 9.89344 6.32739 9.79182C6.4134 8.31891 7.0485 6.93507 8.10287 5.92317C9.15725 4.91127 10.5513 4.34772 12 4.34772C13.4487 4.34772 14.8428 4.91127 15.8971 5.92317C16.9515 6.93507 17.5866 8.31891 17.6726 9.79182C17.1224 9.89269 16.6244 10.187 16.2654 10.6235C15.9064 11.06 15.7093 11.611 15.7082 12.1804V14.6302C15.7062 15.1316 15.8576 15.6213 16.1414 16.0311C16.4252 16.4408 16.8273 16.7504 17.2918 16.9167C16.7305 18.2233 15.6481 19.3951 14.245 19.5911C13.5272 19.6428 12.807 19.6509 12.0882 19.6156C11.9986 19.6128 11.9094 19.6285 11.8258 19.6615C11.7423 19.6945 11.6661 19.7443 11.6018 19.8079C11.5375 19.8715 11.4864 19.9476 11.4515 20.0317C11.4166 20.1158 11.3986 20.2061 11.3987 20.2974C11.3986 20.4749 11.4667 20.6454 11.5885 20.7725C11.7102 20.8995 11.8759 20.973 12.0501 20.9773C12.7497 20.9956 13.822 21.0099 14.2851 20.9589ZM6.96882 12.1804V14.6302C6.96672 14.9165 6.85412 15.1905 6.65534 15.3929C6.45656 15.5954 6.18757 15.7101 5.90646 15.7122H5.3853C5.10419 15.7101 4.8352 15.5954 4.63642 15.3929C4.43764 15.1905 4.32504 14.9165 4.32294 14.6302V12.1804C4.32504 11.8941 4.43764 11.6201 4.63642 11.4177C4.8352 11.2152 5.10419 11.1005 5.3853 11.0984H5.90646C6.18757 11.1005 6.45656 11.2152 6.65534 11.4177C6.85412 11.6201 6.96672 11.8941 6.96882 12.1804ZM19.6771 14.6302C19.675 14.9165 19.5624 15.1905 19.3636 15.3929C19.1648 15.5954 18.8958 15.7101 18.6147 15.7122H18.0935C17.8124 15.7101 17.5434 15.5954 17.3447 15.3929C17.1459 15.1905 17.0333 14.9165 17.0312 14.6302V12.1804C17.0333 11.8941 17.1459 11.6201 17.3447 11.4177C17.5434 11.2152 17.8124 11.1005 18.0935 11.0984H18.6147C18.8958 11.1005 19.1648 11.2152 19.3636 11.4177C19.5624 11.6201 19.675 11.8941 19.6771 12.1804V14.6302Z" fill="#212170" stroke="#212170" stroke-width="0.4"/>
</svg>
