<svg width="80" height="80" viewBox="0 0 80 80" fill="none" xmlns="http://www.w3.org/2000/svg">
<circle cx="40" cy="40" r="40" fill="white"/>
<circle opacity="0.2" cx="36" cy="44" r="12" fill="#6750FF"/>
<path fill-rule="evenodd" clip-rule="evenodd" d="M56.6788 35.5098L59.3787 36.4098C59.5607 36.4693 59.7192 36.5848 59.8316 36.7398C59.944 36.8948 60.0046 37.0813 60.0046 37.2727V42.7273C60.0056 42.9186 59.946 43.1054 59.8345 43.2609C59.7229 43.4164 59.565 43.5326 59.3833 43.593L56.6834 44.493C56.2958 45.9371 55.7212 47.3244 54.9742 48.6197L56.2455 51.1641C56.331 51.3348 56.3606 51.5281 56.3301 51.7166C56.2995 51.9051 56.2103 52.0792 56.0751 52.2141L52.2178 56.0705C52.083 56.2059 51.909 56.2953 51.7204 56.3258C51.5318 56.3564 51.3384 56.3267 51.1678 56.2408L48.6225 54.9686C47.3256 55.7159 45.9367 56.2908 44.4911 56.6788L43.5921 59.3778C43.5319 59.5591 43.4161 59.7168 43.2612 59.8285C43.1063 59.9402 42.9201 60.0002 42.7291 60H37.2709C37.08 60.0001 36.894 59.9401 36.7392 59.8284C36.5845 59.7166 36.4689 59.559 36.4089 59.3778L35.5089 56.6788C34.0649 56.2912 32.6778 55.7163 31.3831 54.9686L28.8387 56.2408C28.6679 56.3266 28.4743 56.3563 28.2857 56.3257C28.097 56.2952 27.9227 56.2058 27.7878 56.0705L23.9323 52.2141C23.797 52.0793 23.7076 51.9053 23.6769 51.7168C23.6461 51.5283 23.6756 51.3349 23.761 51.1641L25.0314 48.6169C24.284 47.3218 23.7094 45.9344 23.3221 44.4902L20.6222 43.5902C20.4409 43.53 20.2833 43.4143 20.1716 43.2593C20.0598 43.1044 19.9998 42.9182 20 42.7273V37.2727C20 37.0818 20.06 36.8957 20.1717 36.7408C20.2834 36.5859 20.441 36.4701 20.6222 36.4098L23.3221 35.507C23.7094 34.0628 24.284 32.6754 25.0314 31.3803L23.7592 28.8359C23.6737 28.6651 23.6443 28.4717 23.675 28.2832C23.7058 28.0947 23.7951 27.9207 23.9305 27.7859L27.7859 23.9295C27.921 23.7944 28.0953 23.7053 28.2839 23.6747C28.4725 23.6441 28.6659 23.6737 28.8368 23.7592L31.3831 25.0314C32.6782 24.284 34.0656 23.7094 35.5098 23.3221L36.4098 20.6222C36.4701 20.441 36.5859 20.2834 36.7408 20.1717C36.8957 20.06 37.0818 20 37.2728 20H42.7272C42.9182 19.9998 43.1044 20.0598 43.2593 20.1715C43.4143 20.2832 43.53 20.4409 43.5902 20.6222L44.4892 23.3212C45.9349 23.7092 47.3237 24.2841 48.6206 25.0314L51.1678 23.7592C51.3381 23.6743 51.5308 23.6452 51.7186 23.6759C51.9064 23.7066 52.0797 23.7957 52.2141 23.9305L56.0705 27.7887C56.2056 27.9238 56.2947 28.098 56.3253 28.2867C56.3559 28.4753 56.3263 28.6687 56.2408 28.8396L54.9696 31.3831C55.7165 32.6784 56.2911 34.0657 56.6788 35.5098ZM53.1594 48.1021C54.0233 46.703 54.6564 45.1739 55.0344 43.5735C55.0685 43.4227 55.1407 43.2832 55.2441 43.1682C55.3475 43.0533 55.4787 42.9668 55.6251 42.9171L58.176 42.068V37.932L55.6232 37.082C55.4763 37.0334 55.3442 36.9478 55.2398 36.8335C55.1354 36.7192 55.0621 36.58 55.027 36.4293C54.6486 34.8287 54.0156 33.2994 53.152 31.8997C53.0701 31.7683 53.0234 31.618 53.0164 31.4633C53.0094 31.3086 53.0424 31.1547 53.1122 31.0164L54.3159 28.6091L51.3891 25.6767L48.9817 26.8804C48.8433 26.95 48.6894 26.983 48.5346 26.9762C48.3798 26.9694 48.2293 26.923 48.0975 26.8415C46.6983 25.977 45.1688 25.3439 43.568 24.9666C43.4181 24.9303 43.2799 24.8564 43.1665 24.7519C43.0531 24.6474 42.9682 24.5158 42.9198 24.3693L42.0708 21.8185H37.9274L37.0774 24.3712C37.0295 24.5178 36.9447 24.6496 36.8312 24.754C36.7177 24.8584 36.5793 24.9319 36.4292 24.9675C34.8287 25.3459 33.2996 25.9796 31.9007 26.8443C31.769 26.9262 31.6185 26.9729 31.4636 26.9797C31.3087 26.9865 31.1547 26.9532 31.0164 26.8832L28.6091 25.6795L25.6739 28.6063L26.8776 31.0136C26.9475 31.152 26.9807 31.306 26.9738 31.4608C26.967 31.6157 26.9205 31.7662 26.8387 31.8979C25.9744 33.2968 25.3413 34.826 24.9638 36.4265C24.9286 36.5774 24.8552 36.7167 24.7506 36.831C24.646 36.9454 24.5138 37.0308 24.3666 37.0792L21.8166 37.9283V42.068L24.3675 42.9263C24.514 42.9745 24.6458 43.0593 24.7504 43.1727C24.8549 43.2862 24.9287 43.4245 24.9647 43.5745C25.3437 45.1751 25.9781 46.7042 26.8434 48.1031C26.9253 48.2346 26.972 48.3851 26.9789 48.54C26.9859 48.6948 26.9529 48.8489 26.8832 48.9873L25.6795 51.39L28.61 54.3205L31.0127 53.1168C31.1511 53.0471 31.3052 53.0141 31.46 53.0211C31.6149 53.028 31.7653 53.0747 31.8969 53.1566C33.2963 54.0202 34.8253 54.6532 36.4255 55.0316C36.5765 55.0667 36.7158 55.1399 36.8303 55.2444C36.9447 55.3488 37.0305 55.4808 37.0792 55.6279L37.9274 58.1787H42.0717L42.9272 55.6279C42.9753 55.4813 43.0601 55.3494 43.1736 55.2449C43.287 55.1404 43.4254 55.0666 43.5754 55.0307C45.175 54.6535 46.7034 54.0213 48.1021 53.1585C48.2338 53.0767 48.3843 53.0302 48.5392 53.0234C48.694 53.0166 48.848 53.0497 48.9864 53.1196L51.3937 54.3233L54.3233 51.3937L53.1196 48.9864C53.0501 48.8479 53.0173 48.6939 53.0242 48.5391C53.0312 48.3843 53.0778 48.2338 53.1594 48.1021ZM26.8203 40.0024C26.8203 32.7331 32.7341 26.8203 40.0024 26.8203C47.2624 26.8277 53.1845 32.7294 53.1845 39.9987C53.1845 47.268 47.2708 53.1808 40.0024 53.1808C32.7341 53.1808 26.8203 47.2717 26.8203 40.0024ZM35.7214 41.8391C36.2323 42.24 36.8283 42.5185 37.4636 42.6533L37.4664 42.6505C37.6696 42.6949 37.8516 42.8074 37.9821 42.9694C38.1127 43.1314 38.1839 43.3332 38.1839 43.5412V51.2142C39.3871 51.4207 40.6167 51.4207 41.82 51.2142V43.5431C41.8208 43.3348 41.8927 43.133 42.0239 42.9712C42.1551 42.8093 42.3376 42.6972 42.5412 42.6533C43.1766 42.5189 43.7726 42.2406 44.2837 41.84C44.7947 41.4393 45.2072 40.9269 45.4893 40.342C45.7715 39.7571 45.9159 39.1154 45.9114 38.466C45.9069 37.8166 45.7536 37.1769 45.4634 36.596L43.6542 32.985C43.6495 32.9748 43.6442 32.9649 43.6384 32.9554V37.2756C43.638 37.8782 43.3984 38.4559 42.9725 38.8821C42.5465 39.3082 41.9688 39.548 41.3663 39.5487H38.6386C38.0358 39.5482 37.458 39.3086 37.0318 38.8824C36.6056 38.4562 36.3659 37.8783 36.3655 37.2756V32.9554C36.3639 32.958 36.362 32.9607 36.3601 32.9633C36.3554 32.9699 36.3506 32.9765 36.3506 32.9831L34.5424 36.5942C34.2522 37.1751 34.0989 37.8149 34.0943 38.4643C34.0898 39.1137 34.2341 39.7556 34.5161 40.3406C34.7982 40.9256 35.2105 41.4382 35.7214 41.8391ZM43.6384 44.2329V50.7651C46.1909 49.9029 48.3539 48.1618 49.7416 45.8525C51.1292 43.5432 51.6511 40.8159 51.2142 38.1574C50.7773 35.4989 49.41 33.0822 47.3563 31.3384C45.3026 29.5946 42.6961 28.6374 40.0019 28.6374C37.3078 28.6374 34.7013 29.5946 32.6476 31.3384C30.5939 33.0822 29.2266 35.4989 28.7897 38.1574C28.3528 40.8159 28.8747 43.5432 30.2623 45.8525C31.65 48.1618 33.813 49.9029 36.3655 50.7651V44.2282C35.548 43.9466 34.8003 43.4935 34.1722 42.8993C33.5442 42.3052 33.0504 41.5836 32.7239 40.7831C32.3974 39.9825 32.2457 39.1215 32.2791 38.2575C32.3125 37.3936 32.5301 36.5468 32.9174 35.7738L34.7275 32.1702C34.913 31.791 35.2017 31.4717 35.5603 31.249C35.9189 31.0262 36.3331 30.9091 36.7553 30.911H37.2784C37.5195 30.9112 37.7506 31.0071 37.9211 31.1775C38.0915 31.348 38.1874 31.5791 38.1876 31.8202V37.2719C38.1876 37.3925 38.2355 37.5081 38.3208 37.5934C38.4061 37.6786 38.5217 37.7265 38.6423 37.7265H41.37C41.4904 37.7263 41.6058 37.6783 41.6908 37.5931C41.7759 37.5078 41.8237 37.3923 41.8237 37.2719V31.8174C41.8242 31.5764 41.9201 31.3454 42.0905 31.175C42.2609 31.0046 42.4919 30.9087 42.7329 30.9082H43.2607C43.6823 30.91 44.0951 31.0289 44.4531 31.2516C44.8112 31.4742 45.1003 31.7919 45.2884 32.1693L47.0958 35.7738C47.4827 36.5477 47.6999 37.3954 47.7326 38.2601C47.7653 39.1248 47.6129 39.9865 47.2855 40.7874C46.9582 41.5884 46.4634 42.3102 45.8344 42.9044C45.2054 43.4986 44.4567 43.9515 43.6384 44.2329Z" fill="#212170"/>
</svg>
