<svg width="80" height="80" viewBox="0 0 80 80" fill="none" xmlns="http://www.w3.org/2000/svg">
<circle cx="40" cy="40" r="40" fill="white"/>
<circle cx="42.5" cy="24.5" r="3.5" fill="#D9D3FF"/>
<circle cx="58.5" cy="45.5" r="3.5" fill="#D9D3FF"/>
<circle cx="27.5" cy="45.5" r="3.5" fill="#D9D3FF"/>
<path d="M34.0384 34.6132H45.4039C45.6191 34.6132 45.826 34.5279 45.9782 34.3757C46.1303 34.2235 46.2157 34.0166 46.2157 33.8014V32.9896C46.2147 31.7417 45.8538 30.5216 45.1775 29.4732C44.5011 28.4248 43.5371 27.5945 42.4006 27.0795C43.2774 26.3206 43.7811 25.2184 43.7811 24.0596C43.7811 22.6094 43.0074 21.2697 41.7511 20.5442C40.4949 19.8186 38.9483 19.8186 37.692 20.5442C36.4358 21.2688 35.662 22.6094 35.662 24.0596C35.662 25.2193 36.1658 26.3206 37.0426 27.0795C35.906 27.5945 34.9421 28.4248 34.2657 29.4732C33.5884 30.5216 33.2275 31.7426 33.2266 32.9896V33.8014C33.2266 34.0166 33.3119 34.2235 33.4641 34.3757C33.6162 34.5279 33.8231 34.6132 34.0384 34.6132ZM37.2857 24.0596C37.2857 23.4138 37.5427 22.7941 37.9991 22.3376C38.4556 21.8811 39.0754 21.6241 39.7211 21.6241C40.3669 21.6241 40.9866 21.8811 41.4431 22.3376C41.8996 22.7941 42.1566 23.4138 42.1566 24.0596C42.1566 24.7053 41.8996 25.3251 41.4431 25.7815C40.9866 26.238 40.3669 26.495 39.7211 26.495C39.0754 26.495 38.4556 26.238 37.9991 25.7815C37.5427 25.3251 37.2857 24.7053 37.2857 24.0596ZM39.7211 28.1187C41.0135 28.1187 42.2521 28.6317 43.1651 29.5456C44.078 30.4595 44.592 31.6981 44.592 32.9896H34.8502C34.8502 31.6972 35.3633 30.4586 36.2771 29.5456C37.191 28.6327 38.4296 28.1187 39.7211 28.1187Z" fill="#212170" stroke="#212170"/>
<path d="M19.4632 57.0351H30.8287C31.044 57.0351 31.2509 56.9497 31.403 56.7976C31.5552 56.6454 31.6405 56.4385 31.6405 56.2233V55.4115C31.6396 54.1636 31.2787 52.9435 30.6023 51.8951C29.926 50.8467 28.962 50.0163 27.8254 49.5014C28.7022 48.7425 29.206 47.6403 29.206 46.4814C29.206 45.0313 28.4322 43.6916 27.176 42.966C25.9198 42.2405 24.3731 42.2405 23.1169 42.966C21.8607 43.6906 21.0869 45.0313 21.0869 46.4814C21.0869 47.6412 21.5907 48.7425 22.4674 49.5014C21.3309 50.0163 20.3669 50.8467 19.6905 51.8951C19.0142 52.9426 18.6533 54.1636 18.6523 55.4115V56.2233C18.6523 56.4385 18.7377 56.6454 18.8899 56.7976C19.042 56.9497 19.2489 57.0351 19.4642 57.0351H19.4632ZM22.7105 46.4814C22.7105 45.8357 22.9675 45.2159 23.424 44.7595C23.8805 44.303 24.5002 44.046 25.146 44.046C25.7917 44.046 26.4115 44.303 26.868 44.7595C27.3244 45.2159 27.5814 45.8357 27.5814 46.4814C27.5814 47.1272 27.3244 47.7469 26.868 48.2034C26.4115 48.6599 25.7917 48.9169 25.146 48.9169C24.5002 48.9169 23.8805 48.6599 23.424 48.2034C22.9675 47.7469 22.7105 47.1272 22.7105 46.4814ZM25.146 50.5405C26.4384 50.5405 27.677 51.0536 28.5899 51.9675C29.5029 52.8814 30.0169 54.12 30.0169 55.4115H20.2751C20.2751 54.119 20.7881 52.8804 21.702 51.9675C22.6159 51.0545 23.8545 50.5405 25.146 50.5405Z" fill="#212170" stroke="#212170"/>
<path d="M58.3254 49.5014C59.2022 48.7425 59.706 47.6403 59.706 46.4814C59.706 45.0313 58.9322 43.6916 57.676 42.966C56.4207 42.2405 54.8722 42.2405 53.6169 42.966C52.3607 43.6906 51.5869 45.0313 51.5869 46.4814C51.5869 47.6412 52.0907 48.7425 52.9674 49.5014C51.8309 50.0163 50.8669 50.8467 50.1905 51.8951C49.5142 52.9426 49.1533 54.1636 49.1523 55.4115V56.2233C49.1523 56.4385 49.2377 56.6454 49.3899 56.7976C49.542 56.9497 49.7489 57.0351 49.9642 57.0351H61.3296C61.5449 57.0351 61.7518 56.9497 61.9039 56.7976C62.0561 56.6454 62.1415 56.4385 62.1415 56.2233V55.4115C62.1405 54.1636 61.7796 52.9435 61.1033 51.8951C60.4269 50.8467 59.4629 50.0163 58.3264 49.5014H58.3254ZM53.2114 46.4814C53.2114 45.8357 53.4684 45.2159 53.9249 44.7595C54.3814 44.303 55.0012 44.046 55.6469 44.046C56.2926 44.046 56.9124 44.303 57.3689 44.7595C57.8254 45.2159 58.0824 45.8357 58.0824 46.4814C58.0824 47.1272 57.8254 47.7469 57.3689 48.2034C56.9124 48.6599 56.2926 48.9169 55.6469 48.9169C55.0012 48.9169 54.3814 48.6599 53.9249 48.2034C53.4684 47.7469 53.2114 47.1272 53.2114 46.4814ZM50.776 55.4115C50.776 53.6709 51.7047 52.063 53.2114 51.1937C54.7182 50.3234 56.5756 50.3234 58.0824 51.1937C59.5891 52.064 60.5178 53.6718 60.5178 55.4115H50.776Z" fill="#212170" stroke="#212170"/>
<path d="M40.5136 39.498V45.664L34.9082 49.5878" stroke="#212170" stroke-width="2.5" stroke-linecap="round"/>
<path d="M40.5137 45.6641L46.1191 49.5879" stroke="#212170" stroke-width="2.5" stroke-linecap="round"/>
</svg>
