<svg width="80" height="80" viewBox="0 0 80 80" fill="none" xmlns="http://www.w3.org/2000/svg">
<circle cx="40" cy="40" r="40" fill="white"/>
<path opacity="0.2" d="M64.5 33.5H29L31.5 42.5L52 48.5L64.5 33.5Z" fill="#6750FF"/>
<path d="M58.5858 47.2505C57.1629 47.2521 55.7702 47.6571 54.5722 48.4174C53.3742 49.1778 52.4209 50.2618 51.8249 51.5415L48.7267 50.5826L63.6147 32.1365C63.7565 31.9642 63.8458 31.7553 63.8719 31.5345C63.8979 31.3136 63.8598 31.09 63.7618 30.8899C63.6665 30.6886 63.5151 30.5184 63.3254 30.3994C63.1357 30.2805 62.9155 30.2178 62.691 30.2187H56.1654C55.7006 28.7353 54.1467 27.3996 51.6729 26.3889C49.0511 25.3188 45.6062 24.7032 42.2243 24.7032C38.8424 24.7032 35.6406 25.3082 33.2201 26.4062C31.0213 27.4034 29.6378 28.7343 29.2282 30.2216H25.0127L23.6495 25.4271C23.3694 24.4519 22.7775 23.5929 21.9626 22.9791C21.1477 22.3653 20.1537 22.0298 19.1299 22.0231L13.9917 22.0039C13.7377 22.0039 13.494 22.1036 13.314 22.2812C13.1339 22.4587 13.0323 22.6997 13.0313 22.9513C13.0304 23.0765 13.0544 23.2006 13.102 23.3166C13.1497 23.4326 13.2199 23.5382 13.3088 23.6272C13.3976 23.7163 13.5033 23.7871 13.6198 23.8357C13.7364 23.8842 13.8614 23.9095 13.9879 23.9102L19.127 23.9294C19.733 23.9333 20.3213 24.1316 20.8038 24.4947C21.2862 24.8578 21.6369 25.3659 21.8031 25.943L27.3015 45.3125L23.8325 60.6835C23.7853 60.896 23.8091 61.118 23.9003 61.316C23.9914 61.514 24.145 61.6773 24.3379 61.7814C24.485 61.8595 24.6493 61.9003 24.8162 61.9003C24.9512 61.9006 25.0849 61.8741 25.2095 61.8224C25.334 61.7707 25.4469 61.6948 25.5413 61.5993L37.7299 49.1855L51.2527 53.3586C51.1785 53.7765 51.1409 54.2 51.1404 54.6243C51.143 56.5792 51.9282 58.4533 53.324 59.8356C54.7197 61.2179 56.612 61.9956 58.5858 61.9982C60.5604 61.9966 62.4537 61.2194 63.8502 59.837C65.2468 58.4545 66.0326 56.5799 66.0351 54.6243C66.0326 52.6688 65.2468 50.7941 63.8502 49.4117C62.4537 48.0292 60.5604 47.252 58.5858 47.2505ZM42.2233 26.6066C47.9522 26.6066 52.7321 28.4102 54.0353 30.2216H31.3079C32.4068 28.3632 36.5846 26.6066 42.2243 26.6066H42.2233ZM25.5559 32.125H61.1632L46.7564 49.9775L29.0752 44.5215L25.5559 32.125ZM26.4108 57.9747L29.0017 46.492L35.6716 48.5507L26.4108 57.9747ZM58.5849 60.0957C57.1203 60.0939 55.7163 59.5169 54.6808 58.4912C53.6453 57.4654 53.0629 56.0748 53.0613 54.6243C53.0618 54.3925 53.077 54.1609 53.1068 53.931L58.3002 55.5333C58.3927 55.5621 58.489 55.5766 58.5858 55.5765C58.7911 55.5762 58.9909 55.5109 59.156 55.3901C59.3212 55.2693 59.443 55.0995 59.5037 54.9053C59.5788 54.6644 59.5542 54.4039 59.4355 54.181C59.3168 53.9581 59.1136 53.7909 58.8705 53.7162L53.68 52.1139C54.1452 51.2228 54.8487 50.4754 55.7137 49.9534C56.5787 49.4314 57.5719 49.1548 58.5849 49.1539C60.0484 49.1556 61.4516 49.7319 62.4869 50.7564C63.5223 51.7809 64.1054 53.17 64.1084 54.6195C64.1082 56.0707 63.5265 57.4624 62.491 58.4891C61.4556 59.5159 60.0511 60.0937 58.5858 60.0957H58.5849Z" fill="#212170"/>
</svg>
