<svg width="80" height="80" viewBox="0 0 80 80" fill="none" xmlns="http://www.w3.org/2000/svg">
<circle cx="40" cy="40" r="40" fill="white"/>
<path opacity="0.2" fill-rule="evenodd" clip-rule="evenodd" d="M26.5 25V57H59L26.5 25ZM32 37V51H46L32 37Z" fill="#6750FF"/>
<path fill-rule="evenodd" clip-rule="evenodd" d="M35.1239 16.723C35.3436 16.7225 35.5612 16.7653 35.7644 16.8489C35.9682 16.9327 36.1535 17.056 36.3096 17.2117L59.8134 40.754L61.0011 44.3227L57.4381 43.1332L33.938 19.5826C33.7035 19.3481 33.5439 19.0491 33.4794 18.7236C33.4148 18.3982 33.4483 18.0608 33.5756 17.7544C33.7029 17.448 33.9181 17.1864 34.1941 17.0028C34.4696 16.8194 34.7932 16.7221 35.1239 16.723ZM35.1256 15C34.6805 14.9988 34.2395 15.0856 33.8279 15.2555C33.4164 15.4254 33.0424 15.675 32.7275 15.9901C32.0962 16.629 31.7422 17.4915 31.7422 18.3903C31.7422 19.2891 32.0962 20.1516 32.7275 20.7904L56.2267 44.3429L56.5126 44.6302L56.8963 44.7583L60.4593 45.9524L63.7336 47.0505L62.6373 43.7719L61.4496 40.2032L61.3208 39.8189L61.0349 39.5315L37.5219 15.9938C37.2072 15.6789 36.8335 15.4294 36.4223 15.2595C36.0111 15.0896 35.5704 15.0027 35.1256 15.0037V15ZM32.0562 37.9254L39.7495 45.632H32.0562V37.9273V37.9254ZM30.3359 33.7675V47.3532H43.9017L40.9655 44.4122L33.2749 36.7066L30.3387 33.7656L30.3359 33.7675ZM23.8701 18.6194C23.8638 18.6131 23.8553 18.6095 23.8463 18.6093C23.8375 18.6096 23.8292 18.6133 23.823 18.6196C23.8169 18.6259 23.8135 18.6344 23.8135 18.6432V51.6508C23.8135 52.0573 23.9747 52.4472 24.2617 52.7346C24.5486 53.022 24.9379 53.1835 25.3437 53.1835H58.314C58.3207 53.1837 58.3273 53.1819 58.3329 53.1783C58.3385 53.1747 58.3428 53.1695 58.3454 53.1633C58.348 53.1572 58.3486 53.1504 58.3473 53.1439C58.3459 53.1374 58.3426 53.1314 58.3378 53.1268L23.8701 18.6194ZM22.5413 17.3358C22.8874 16.9889 23.3567 16.7937 23.8463 16.793C24.0889 16.7923 24.3292 16.8398 24.5533 16.9328C24.7774 17.0258 24.9808 17.1624 25.1519 17.3347L59.6196 51.8421C59.8776 52.1008 60.0533 52.4304 60.1245 52.7891C60.1957 53.1478 60.1591 53.5196 60.0194 53.8575C59.8797 54.1954 59.6431 54.4843 59.3396 54.6876C59.0361 54.891 58.6792 54.9996 58.314 54.9999H25.3437C24.4572 54.9989 23.6073 54.6458 22.9804 54.0179C22.3536 53.39 22.001 52.5388 22 51.6508V18.6432C22.0005 18.1528 22.1951 17.6826 22.5413 17.3358Z" fill="#212170"/>
</svg>
