<svg width="24" height="24" viewBox="0 0 24 24" fill="none" xmlns="http://www.w3.org/2000/svg">
<path d="M20.6095 9.42857C20.4777 8.98536 20.3063 8.55503 20.0972 8.14286C19.4368 6.77477 18.4467 5.59379 17.2167 4.70697C15.9868 3.82014 14.5558 3.25552 13.0535 3.06429L12.7333 3H11.3245L10.9403 3.06429C9.43009 3.23041 7.98814 3.78519 6.75413 4.67492C5.52011 5.56465 4.53583 6.75919 3.89658 8.14286C3.68752 8.55503 3.51606 8.98536 3.3843 9.42857C2.8719 11.1043 2.8719 12.8957 3.3843 14.5714C3.51606 15.0146 3.68752 15.445 3.89658 15.8571C4.55699 17.2252 5.54706 18.4062 6.77705 19.293C8.00704 20.1799 9.43804 20.7445 10.9403 20.9357L11.3245 21H12.7333L13.1175 20.9357C14.6198 20.7445 16.0508 20.1799 17.2808 19.293C18.5108 18.4062 19.5008 17.2252 20.1613 15.8571C20.3703 15.445 20.5418 15.0146 20.6735 14.5714C21.1334 12.8851 21.1112 11.1029 20.6095 9.42857ZM18.6885 8.14286H15.3587C15.0355 6.84992 14.5172 5.61421 13.8219 4.47857C14.8368 4.72952 15.7908 5.18337 16.627 5.81297C17.4632 6.44257 18.1643 7.23499 18.6885 8.14286ZM14.5903 12C14.6003 12.864 14.5144 13.7265 14.3341 14.5714H9.65965C9.33947 12.8722 9.33947 11.1278 9.65965 9.42857H14.3341C14.5144 10.2735 14.6003 11.136 14.5903 12ZM14.078 15.8571C13.7002 17.2586 13.047 18.57 12.157 19.7143H11.9649C11.0748 18.57 10.4217 17.2586 10.0439 15.8571H14.078ZM9.97982 8.14286C10.3577 6.74144 11.0108 5.43002 11.9008 4.28571H12.0929C12.983 5.43002 13.6361 6.74144 14.014 8.14286H9.97982ZM10.236 4.47857C9.54063 5.61421 9.02237 6.84992 8.69914 8.14286H5.36936C5.8935 7.23499 6.59463 6.44257 7.43081 5.81297C8.26699 5.18337 9.22106 4.72952 10.236 4.47857ZM4.34482 12C4.33216 11.1222 4.48422 10.2499 4.79305 9.42857H8.443C8.12282 11.1278 8.12282 12.8722 8.443 14.5714H4.79305C4.48422 13.7501 4.33216 12.8778 4.34482 12ZM5.36936 15.8571H8.69914C9.02237 17.1501 9.54063 18.3858 10.236 19.5214C9.22106 19.2705 8.26699 18.8166 7.43081 18.187C6.59463 17.5574 5.8935 16.765 5.36936 15.8571ZM13.8219 19.5214C14.5172 18.3858 15.0355 17.1501 15.3587 15.8571H18.6885C18.1643 16.765 17.4632 17.5574 16.627 18.187C15.7908 18.8166 14.8368 19.2705 13.8219 19.5214ZM15.6789 14.5714C15.8065 13.7203 15.8707 12.8607 15.871 12C15.8707 11.1393 15.8065 10.2797 15.6789 9.42857H19.2648C19.841 11.094 19.841 12.906 19.2648 14.5714H15.6789Z" fill="#212170" stroke="#212170" stroke-width="0.3"/>
</svg>
