<svg width="24" height="24" viewBox="0 0 24 24" fill="none" xmlns="http://www.w3.org/2000/svg">
<g clip-path="url(#clip0_861_7641)">
<path d="M12 12C11.4067 12 10.8266 11.8241 10.3333 11.4944C9.83994 11.1648 9.45542 10.6962 9.22836 10.1481C9.0013 9.59987 8.94189 8.99667 9.05764 8.41473C9.1734 7.83279 9.45912 7.29824 9.87868 6.87868C10.2982 6.45912 10.8328 6.1734 11.4147 6.05764C11.9967 5.94189 12.5999 6.0013 13.1481 6.22836C13.6962 6.45542 14.1648 6.83994 14.4944 7.33329C14.8241 7.82664 15 8.40666 15 9C15 9.79565 14.6839 10.5587 14.1213 11.1213C13.5587 11.6839 12.7956 12 12 12ZM12 8C11.8022 8 11.6089 8.05865 11.4444 8.16853C11.28 8.27841 11.1518 8.43459 11.0761 8.61732C11.0004 8.80004 10.9806 9.00111 11.0192 9.19509C11.0578 9.38907 11.153 9.56725 11.2929 9.70711C11.4327 9.84696 11.6109 9.9422 11.8049 9.98079C11.9989 10.0194 12.2 9.99957 12.3827 9.92388C12.5654 9.84819 12.7216 9.72002 12.8315 9.55557C12.9414 9.39112 13 9.19778 13 9C13 8.73478 12.8946 8.48043 12.7071 8.29289C12.5196 8.10536 12.2652 8 12 8ZM12 24C11.8684 24.0008 11.7379 23.9755 11.6161 23.9258C11.4943 23.876 11.3834 23.8027 11.29 23.71C11 23.37 3 15.34 3 9C3 6.61305 3.94821 4.32387 5.63604 2.63604C7.32387 0.948212 9.61305 0 12 0C14.3869 0 16.6761 0.948212 18.364 2.63604C20.0518 4.32387 21 6.61305 21 9C21 15.34 13 23.37 12.71 23.71C12.6166 23.8027 12.5057 23.876 12.3839 23.9258C12.2621 23.9755 12.1316 24.0008 12 24ZM12 2C10.1435 2 8.36301 2.7375 7.05025 4.05025C5.7375 5.36301 5 7.14348 5 9C5 13.51 10.09 19.47 12 21.55C13.91 19.48 19 13.55 19 9C19 7.14348 18.2625 5.36301 16.9497 4.05025C15.637 2.7375 13.8565 2 12 2Z" fill="url(#paint0_linear_861_7641)"/>
</g>
<defs>
<linearGradient id="paint0_linear_861_7641" x1="15.5133" y1="1.76674e-05" x2="3.93195" y2="0.331265" gradientUnits="userSpaceOnUse">
<stop offset="0.0744166" stop-color="#6750FF"/>
<stop offset="1" stop-color="#B4F3C4"/>
</linearGradient>
<clipPath id="clip0_861_7641">
<rect width="24" height="24" fill="white"/>
</clipPath>
</defs>
</svg>
