<svg width="24" height="24" viewBox="0 0 24 24" fill="none" xmlns="http://www.w3.org/2000/svg">
<path fill-rule="evenodd" clip-rule="evenodd" d="M16.0812 5.02255C16.5725 5.76691 16.8317 6.6404 16.826 7.53227C16.8241 8.12173 16.7061 8.70505 16.4787 9.24891C16.2514 9.79277 15.9192 10.2865 15.501 10.702C15.0828 11.1175 14.5869 11.4465 14.0416 11.6703C13.4963 11.8941 12.9122 12.0083 12.3228 12.0064C11.4309 12.0064 10.5591 11.7415 9.81791 11.2454C9.07675 10.7493 8.49959 10.0443 8.15963 9.21974C7.81966 8.39519 7.73219 7.48826 7.90832 6.61394C8.08444 5.73962 8.51623 4.93729 9.14892 4.30867C9.78162 3.68006 10.5867 3.25348 11.4622 3.08302C12.3376 2.91255 13.244 3.00589 14.0663 3.35118C14.8886 3.69648 15.5899 4.27819 16.0812 5.02255ZM9.53056 5.66821C9.16696 6.22145 8.97591 6.87025 8.98167 7.53227C8.99457 8.41167 9.35163 9.251 9.97624 9.87018C10.6009 10.4894 11.4433 10.8391 12.3228 10.8443C12.9848 10.8443 13.6319 10.6476 14.182 10.2791C14.732 9.91072 15.1602 9.38719 15.4122 8.77499C15.6642 8.16279 15.7287 7.48953 15.5974 6.84064C15.4661 6.19175 15.145 5.59649 14.6748 5.13041C14.2046 4.66433 13.6066 4.34843 12.9566 4.22282C12.3066 4.0972 11.6339 4.16752 11.0239 4.42486C10.4139 4.6822 9.89417 5.11496 9.53056 5.66821ZM5.00963 19.3358C4.97787 19.0167 5.02496 18.6947 5.14676 18.3981C6.48319 15.1441 9.27228 12.9361 12.4391 12.9361C15.6058 12.9361 18.3659 15.1441 19.7313 18.3981C19.8531 18.6947 19.9002 19.0167 19.8685 19.3358C19.8367 19.6549 19.7271 19.9613 19.5492 20.2281C19.3714 20.4949 19.1307 20.7139 18.8484 20.8659C18.5661 21.018 18.2507 21.0983 17.9301 21.1H6.94804C6.62739 21.0983 6.31205 21.018 6.02973 20.8659C5.74741 20.7139 5.50674 20.4949 5.32887 20.2281C5.15101 19.9613 5.04138 19.6549 5.00963 19.3358ZM18.6564 18.8629C17.4362 15.9286 15.0538 14.0982 12.4391 14.0982C9.82429 14.0982 7.44194 15.9286 6.22172 18.8629C6.16964 18.9815 6.14846 19.1114 6.16013 19.2404C6.17181 19.3694 6.21596 19.4933 6.28848 19.6007C6.361 19.708 6.45952 19.7952 6.57485 19.8542C6.69019 19.9131 6.81857 19.9419 6.94804 19.9379H17.9301C18.062 19.9422 18.1929 19.9124 18.31 19.8513C18.427 19.7902 18.5263 19.7 18.5983 19.5892C18.6658 19.4818 18.7063 19.3597 18.7164 19.2332C18.7265 19.1067 18.7059 18.9797 18.6564 18.8629Z" fill="#212170"/>
<path d="M16.826 7.53227L16.576 7.53065L16.576 7.53146L16.826 7.53227ZM16.0812 5.02255L15.8726 5.16027L16.0812 5.02255ZM12.3228 12.0064L12.3236 11.7564H12.3228L12.3228 12.0064ZM9.81791 11.2454L9.95698 11.0377L9.81791 11.2454ZM8.15963 9.21974L8.39075 9.12444L8.15963 9.21974ZM7.90832 6.61394L8.15339 6.66331L7.90832 6.61394ZM9.14892 4.30867L8.97272 4.13133V4.13133L9.14892 4.30867ZM11.4622 3.08302L11.51 3.32841L11.4622 3.08302ZM14.0663 3.35118L14.1631 3.12068V3.12068L14.0663 3.35118ZM8.98167 7.53227L8.73167 7.53444L8.73169 7.53593L8.98167 7.53227ZM9.53056 5.66821L9.32164 5.5309L9.53056 5.66821ZM9.97624 9.87018L9.80024 10.0477L9.97624 9.87018ZM12.3228 10.8443L12.3213 11.0943H12.3228L12.3228 10.8443ZM14.182 10.2791L14.0428 10.0714H14.0428L14.182 10.2791ZM15.4122 8.77499L15.181 8.67983L15.4122 8.77499ZM15.5974 6.84064L15.8424 6.79106V6.79106L15.5974 6.84064ZM14.6748 5.13041L14.4988 5.30796L14.6748 5.13041ZM12.9566 4.22282L12.9091 4.46827L12.9566 4.22282ZM11.0239 4.42486L11.1211 4.6552L11.0239 4.42486ZM5.14676 18.3981L4.9155 18.3031L4.91549 18.3031L5.14676 18.3981ZM5.00963 19.3358L4.76085 19.3605L5.00963 19.3358ZM19.7313 18.3981L19.9626 18.3031L19.9619 18.3013L19.7313 18.3981ZM18.8484 20.8659L18.7298 20.6458V20.6458L18.8484 20.8659ZM17.9301 21.1V21.35L17.9314 21.35L17.9301 21.1ZM6.94804 21.1L6.94675 21.35H6.94804V21.1ZM18.6564 18.8629L18.4255 18.9589L18.4262 18.9606L18.6564 18.8629ZM6.22172 18.8629L6.45067 18.9634L6.45255 18.9589L6.22172 18.8629ZM6.16013 19.2404L5.91115 19.2629H5.91115L6.16013 19.2404ZM6.28848 19.6007L6.08133 19.7406L6.08134 19.7406L6.28848 19.6007ZM6.57485 19.8542L6.46105 20.0768H6.46105L6.57485 19.8542ZM6.94804 19.9379V19.6878L6.94021 19.688L6.94804 19.9379ZM17.9301 19.9379L17.9383 19.6879H17.9301V19.9379ZM18.5983 19.5892L18.8079 19.7255L18.81 19.7222L18.5983 19.5892ZM18.7164 19.2332L18.4672 19.2133V19.2133L18.7164 19.2332ZM17.076 7.53388C17.082 6.5925 16.8084 5.67052 16.2899 4.88483L15.8726 5.16027C16.3366 5.8633 16.5814 6.6883 16.576 7.53065L17.076 7.53388ZM16.7094 9.34533C16.9494 8.77117 17.074 8.15537 17.076 7.53307L16.576 7.53146C16.5742 8.08809 16.4628 8.63892 16.2481 9.15249L16.7094 9.34533ZM15.6772 10.8793C16.1187 10.4407 16.4694 9.91948 16.7094 9.34533L16.2481 9.15249C16.0334 9.66607 15.7197 10.1323 15.3248 10.5246L15.6772 10.8793ZM14.1365 11.9016C14.7122 11.6653 15.2357 11.3179 15.6772 10.8793L15.3248 10.5246C14.9299 10.917 14.4616 11.2277 13.9467 11.439L14.1365 11.9016ZM12.3219 12.2564C12.9442 12.2584 13.5608 12.1379 14.1365 11.9016L13.9467 11.439C13.4317 11.6504 12.8802 11.7582 12.3236 11.7564L12.3219 12.2564ZM9.67885 11.4532C10.4612 11.9768 11.3814 12.2564 12.3228 12.2564L12.3228 11.7564C11.4804 11.7564 10.657 11.5063 9.95698 11.0377L9.67885 11.4532ZM7.9285 9.31503C8.28734 10.1854 8.89654 10.9295 9.67885 11.4532L9.95698 11.0377C9.25696 10.5691 8.71184 9.90322 8.39075 9.12444L7.9285 9.31503ZM7.66324 6.56457C7.47734 7.48743 7.56966 8.44471 7.9285 9.31503L8.39075 9.12444C8.06966 8.34567 7.98705 7.48909 8.15339 6.66331L7.66324 6.56457ZM8.97272 4.13133C8.3049 4.79484 7.84914 5.64171 7.66324 6.56457L8.15339 6.66331C8.31974 5.83753 8.72756 5.07974 9.32513 4.48602L8.97272 4.13133ZM11.4144 2.83763C10.4903 3.01755 9.64054 3.46781 8.97272 4.13133L9.32513 4.48602C9.9227 3.89231 10.6831 3.48941 11.51 3.32841L11.4144 2.83763ZM14.1631 3.12068C13.2951 2.75621 12.3384 2.6577 11.4144 2.83763L11.51 3.32841C12.3368 3.16741 13.1928 3.25556 13.9695 3.58169L14.1631 3.12068ZM16.2899 4.88483C15.7713 4.09915 15.0311 3.48515 14.1631 3.12068L13.9695 3.58169C14.7462 3.90782 15.4085 4.45723 15.8726 5.16027L16.2899 4.88483ZM9.23166 7.53009C9.22633 6.91761 9.40308 6.31736 9.73948 5.80551L9.32164 5.5309C8.93083 6.12555 8.72549 6.82289 8.73168 7.53444L9.23166 7.53009ZM10.1522 9.69263C9.57409 9.1195 9.24359 8.3426 9.23164 7.5286L8.73169 7.53593C8.74556 8.48075 9.12917 9.3825 9.80024 10.0477L10.1522 9.69263ZM12.3242 10.5943C11.5102 10.5895 10.7304 10.2658 10.1522 9.69263L9.80024 10.0477C10.4713 10.713 11.3764 11.0887 12.3213 11.0943L12.3242 10.5943ZM14.0428 10.0714C13.5339 10.4123 12.9352 10.5943 12.3227 10.5943L12.3228 11.0943C13.0343 11.0943 13.7299 10.8829 14.3211 10.4869L14.0428 10.0714ZM15.181 8.67983C14.9479 9.24622 14.5517 9.73058 14.0428 10.0714L14.3211 10.4869C14.9123 10.0909 15.3725 9.52816 15.6434 8.87015L15.181 8.67983ZM15.3523 6.89022C15.4738 7.49055 15.4142 8.11344 15.181 8.67983L15.6434 8.87015C15.9142 8.21215 15.9835 7.4885 15.8424 6.79106L15.3523 6.89022ZM14.4988 5.30796C14.9338 5.73916 15.2309 6.28988 15.3523 6.89022L15.8424 6.79106C15.7013 6.09362 15.3562 5.45382 14.8508 4.95286L14.4988 5.30796ZM12.9091 4.46827C13.5105 4.58449 14.0638 4.87675 14.4988 5.30796L14.8508 4.95286C14.3455 4.45191 13.7027 4.11237 13.004 3.97736L12.9091 4.46827ZM11.1211 4.6552C11.6854 4.41712 12.3078 4.35206 12.9091 4.46827L13.004 3.97736C12.3054 3.84234 11.5824 3.91793 10.9267 4.19452L11.1211 4.6552ZM9.73948 5.80551C10.0759 5.29366 10.5568 4.89329 11.1211 4.6552L10.9267 4.19452C10.2711 4.47112 9.71246 4.93625 9.32164 5.5309L9.73948 5.80551ZM4.91549 18.3031C4.77815 18.6376 4.72505 19.0007 4.76085 19.3605L5.2584 19.311C5.2307 19.0327 5.27177 18.7518 5.37802 18.493L4.91549 18.3031ZM12.4391 12.6861C9.14797 12.6861 6.28093 14.9786 4.9155 18.3031L5.37801 18.4931C6.68545 15.3097 9.3966 13.1861 12.4391 13.1861V12.6861ZM19.9619 18.3013C18.568 14.9797 15.7313 12.6861 12.4391 12.6861V13.1861C15.4804 13.1861 18.1637 15.3086 19.5008 18.4948L19.9619 18.3013ZM20.1173 19.3605C20.1531 19.0007 20.1 18.6376 19.9626 18.3031L19.5001 18.493C19.6063 18.7518 19.6474 19.0327 19.6197 19.311L20.1173 19.3605ZM19.7572 20.3667C19.9578 20.0659 20.0814 19.7203 20.1173 19.3605L19.6197 19.311C19.592 19.5894 19.4964 19.8566 19.3412 20.0894L19.7572 20.3667ZM18.9669 21.086C19.2853 20.9146 19.5567 20.6676 19.7572 20.3667L19.3412 20.0894C19.1861 20.3221 18.9761 20.5132 18.7298 20.6458L18.9669 21.086ZM17.9314 21.35C18.2929 21.3481 18.6485 21.2575 18.9669 21.086L18.7298 20.6458C18.4836 20.7784 18.2085 20.8486 17.9288 20.85L17.9314 21.35ZM6.94804 21.35H17.9301V20.85H6.94804V21.35ZM5.9112 21.086C6.22956 21.2575 6.58516 21.3481 6.94675 21.35L6.94933 20.85C6.66962 20.8486 6.39454 20.7784 6.14826 20.6458L5.9112 21.086ZM5.12086 20.3667C5.32144 20.6676 5.59283 20.9146 5.9112 21.086L6.14826 20.6458C5.90199 20.5132 5.69205 20.3221 5.53689 20.0894L5.12086 20.3667ZM4.76085 19.3605C4.79666 19.7203 4.92029 20.0659 5.12086 20.3667L5.53689 20.0894C5.38173 19.8566 5.2861 19.5894 5.2584 19.311L4.76085 19.3605ZM12.4391 14.3482C14.9278 14.3482 17.2335 16.0923 18.4256 18.9589L18.8872 18.7669C17.6389 15.7649 15.1799 13.8482 12.4391 13.8482V14.3482ZM6.45255 18.9589C7.64463 16.0923 9.95035 14.3482 12.4391 14.3482V13.8482C9.69822 13.8482 7.23925 15.7649 5.99088 18.7669L6.45255 18.9589ZM6.40912 19.2179C6.40125 19.1309 6.41553 19.0434 6.45063 18.9634L5.99281 18.7624C5.92376 18.9197 5.89567 19.0919 5.91115 19.2629L6.40912 19.2179ZM6.49563 19.4607C6.44675 19.3884 6.41698 19.3048 6.40912 19.2179L5.91115 19.2629C5.92663 19.434 5.98518 19.5983 6.08133 19.7406L6.49563 19.4607ZM6.68866 19.6316C6.61092 19.5918 6.54451 19.533 6.49563 19.4607L6.08134 19.7406C6.17749 19.8829 6.30812 19.9986 6.46105 20.0768L6.68866 19.6316ZM6.94021 19.688C6.85294 19.6907 6.7664 19.6713 6.68866 19.6316L6.46105 20.0768C6.61397 20.155 6.78421 20.1931 6.95588 20.1878L6.94021 19.688ZM17.9301 19.6879H6.94804V20.1879H17.9301V19.6879ZM18.1943 19.6297C18.1154 19.6708 18.0272 19.6909 17.9382 19.688L17.9219 20.1877C18.0969 20.1935 18.2704 20.1539 18.4256 20.073L18.1943 19.6297ZM18.3887 19.453C18.3402 19.5276 18.2732 19.5885 18.1943 19.6297L18.4256 20.073C18.5808 19.992 18.7125 19.8723 18.8079 19.7255L18.3887 19.453ZM18.4672 19.2133C18.4603 19.2996 18.4326 19.3829 18.3866 19.4563L18.81 19.7222C18.8989 19.5807 18.9523 19.4198 18.9656 19.2531L18.4672 19.2133ZM18.4262 18.9606C18.4601 19.0403 18.4741 19.127 18.4672 19.2133L18.9656 19.2531C18.9789 19.0865 18.9518 18.9192 18.8865 18.7653L18.4262 18.9606Z" fill="#212170"/>
</svg>
