<svg width="80" height="80" viewBox="0 0 80 80" fill="none" xmlns="http://www.w3.org/2000/svg">
<circle cx="40" cy="40" r="40" fill="white"/>
<circle cx="44" cy="42" r="8" fill="#D9D3FF"/>
<path d="M40 50C45.5228 50 50 45.5228 50 40C50 34.4772 45.5228 30 40 30C34.4772 30 30 34.4772 30 40C30 45.5228 34.4772 50 40 50Z" stroke="#212170" stroke-width="3" stroke-miterlimit="10"/>
<path d="M59.511 36.4656L56.5356 35.473C56.1576 34.0876 55.605 32.7554 54.8932 31.508L56.2956 28.7022C56.4327 28.4271 56.3788 28.0949 56.1617 27.8777L52.1218 23.8376C51.9047 23.6197 51.5724 23.5658 51.2973 23.7037L48.4917 25.1062C47.2443 24.3936 45.9121 23.8409 44.5268 23.4637L43.5342 20.4882C43.4371 20.1967 43.1644 20 42.8575 20H37.1433C36.8356 20 36.5629 20.1967 36.4658 20.4882L35.474 23.4646C34.0887 23.8433 32.7565 24.3952 31.5092 25.107L28.7035 23.7037C28.4284 23.5666 28.097 23.6205 27.879 23.8376L23.8383 27.8777C23.6212 28.0949 23.5673 28.4271 23.7044 28.7022L25.1068 31.508C24.3942 32.7554 23.8432 34.0876 23.4644 35.473L20.4882 36.4656C20.1967 36.5628 20 36.8354 20 37.1424V42.8568C20 43.1646 20.1967 43.4372 20.4882 43.5344L23.4644 44.527C23.8424 45.9124 24.3942 47.2446 25.1068 48.492L23.7044 51.2978C23.5673 51.5729 23.6212 51.9051 23.8383 52.1223L27.879 56.1624C28.0962 56.3803 28.4284 56.4342 28.7035 56.2962L31.5092 54.8938C32.7565 55.6064 34.0887 56.1583 35.474 56.5363L36.4658 59.5118C36.5629 59.8033 36.8364 60 37.1433 60H42.8575C43.1652 60 43.4379 59.8033 43.535 59.5118L44.5277 56.5363C45.9129 56.1583 47.2452 55.6064 48.4925 54.8938L51.2981 56.2962C51.5732 56.4334 51.9055 56.3795 52.1226 56.1624L56.1625 52.1223C56.3797 51.9051 56.4335 51.5729 56.2964 51.2978L54.894 48.492C55.6066 47.2446 56.1584 45.9132 56.5364 44.527L59.5118 43.5344C59.8033 43.4372 60 43.1646 60 42.8576V37.1432C60 36.8354 59.8033 36.5628 59.5118 36.4656H59.511ZM58.5706 42.3425L55.7152 43.2944C55.4834 43.3711 55.307 43.5621 55.2483 43.7989C54.8736 45.3124 54.2736 46.7597 53.4687 48.0953C53.3422 48.3051 53.3316 48.5647 53.4409 48.7834L54.7862 51.4749L51.4745 54.7868L48.7831 53.4415C48.5643 53.3321 48.3047 53.3427 48.0949 53.4693C46.7595 54.2734 45.3113 54.8734 43.7979 55.2489C43.5603 55.3077 43.3701 55.484 43.2934 55.7158L42.3416 58.5714H37.6568L36.705 55.7158C36.6274 55.484 36.4364 55.3077 36.1997 55.2489C34.6862 54.8734 33.2381 54.2734 31.9026 53.4693C31.6928 53.3427 31.4332 53.3321 31.2145 53.4415L28.5231 54.7868L25.2113 51.4749L26.5574 48.7834C26.6668 48.5647 26.6562 48.3051 26.5297 48.0953C25.7256 46.7597 25.1256 45.3115 24.7501 43.798C24.6913 43.5605 24.515 43.3703 24.2832 43.2935L21.4277 42.3417V37.6567L24.2832 36.7048C24.515 36.6281 24.6913 36.4371 24.7501 36.2003C25.1256 34.6868 25.7256 33.2386 26.5297 31.9031C26.6562 31.6933 26.666 31.4337 26.5574 31.2149L25.2113 28.5234L28.5231 25.2115L31.2145 26.5569C31.4332 26.6663 31.6928 26.6556 31.9026 26.5291C33.2373 25.725 34.6862 25.125 36.1997 24.7495C36.4372 24.6899 36.6274 24.5136 36.705 24.2825L37.656 21.427H42.3408L43.2926 24.2825C43.3693 24.5144 43.5603 24.6907 43.7971 24.7495C45.3105 25.125 46.7586 25.7242 48.0941 26.5291C48.3039 26.6556 48.5635 26.6663 48.7823 26.5569L51.4736 25.2115L54.7854 28.5234L53.4401 31.2149C53.3307 31.4337 53.3414 31.6933 53.4679 31.9031C54.2719 33.2378 54.8719 34.6868 55.2474 36.2003C55.3062 36.4379 55.4825 36.6281 55.7144 36.7048L58.5698 37.6567V42.3417L58.5706 42.3425Z" fill="#212170" stroke="#212170" stroke-width="1.6"/>
<path d="M38.6192 45.1968L38.6197 45.1962L45.9918 37.6359C46.4221 37.1946 46.4221 36.5249 45.9918 36.0836C45.558 35.6388 44.8943 35.6388 44.4606 36.0836L37.8541 42.8588L35.604 40.5512C35.1702 40.1063 34.5065 40.1063 34.0727 40.5512C33.6424 40.9925 33.6424 41.6621 34.0727 42.1035L37.0885 45.1962C37.1868 45.2971 37.2955 45.383 37.426 45.4423C37.5577 45.5022 37.6987 45.5291 37.8541 45.5291C38.0854 45.5291 38.4017 45.4185 38.6192 45.1968Z" fill="#212170" stroke="#212170" stroke-width="0.5"/>
</svg>
