<svg width="80" height="80" viewBox="0 0 80 80" fill="none" xmlns="http://www.w3.org/2000/svg">
<circle cx="40" cy="40" r="40" fill="white"/>
<rect x="36" y="34" width="16" height="17" fill="#D9D3FF"/>
<path d="M33.1342 30.8474L31.7183 36.1535V36.2143C31.7163 36.2417 31.7163 36.2692 31.7183 36.2966V50.0152C31.7183 50.1602 31.7761 50.3003 31.879 50.4032C31.9819 50.5061 32.122 50.5639 32.267 50.5639H48.7293C48.8744 50.5639 49.0145 50.5061 49.1174 50.4032C49.2203 50.3003 49.2781 50.1612 49.2781 50.0152V36.2966C49.28 36.2692 49.28 36.2417 49.2781 36.2143V36.1535L47.8788 30.8474C47.8151 30.5985 47.5868 30.428 47.33 30.4358H33.6614C33.4125 30.4378 33.1969 30.6063 33.1342 30.8474ZM46.9077 31.5333L48.0052 35.7478H41.4629L41.2708 31.5333H46.9077ZM40.9416 40.0006C41.0876 40.0006 41.2267 39.9428 41.3296 39.8399C41.4325 39.737 41.4903 39.5969 41.4903 39.4519V36.8453H48.1806V49.4664H32.8167V36.8453H39.5119V39.4519C39.5119 39.5969 39.5697 39.737 39.6726 39.8399C39.7755 39.9428 39.9156 40.0006 40.0607 40.0006H40.9416ZM39.7255 31.5333L39.5335 35.7478H32.9804L34.0779 31.5333H39.7255Z" fill="#212170" stroke="#212170"/>
<path d="M40.4985 27.3296C40.6436 27.3296 40.7837 27.2718 40.8866 27.1689C40.9895 27.066 41.0473 26.9259 41.0473 26.7809V19.8726L42.4681 21.2934L42.8522 21.6834C42.9551 21.7873 43.0953 21.8461 43.2422 21.8461C43.3892 21.8461 43.5294 21.7873 43.6322 21.6834C43.7361 21.5806 43.7949 21.4404 43.7949 21.2934C43.7949 21.1465 43.7361 21.0063 43.6322 20.9034L40.8885 18.1597C40.8356 18.1117 40.7739 18.0725 40.7072 18.0441C40.574 17.9853 40.4231 17.9853 40.2898 18.0441C40.2232 18.0725 40.1624 18.1107 40.1085 18.1597L37.3648 20.9034C37.1492 21.119 37.1492 21.4679 37.3648 21.6825C37.5804 21.898 37.9292 21.898 38.1438 21.6825L38.528 21.2925L39.9488 19.8716V26.7809C39.9488 26.9259 40.0066 27.066 40.1095 27.1689C40.2124 27.2718 40.3525 27.3296 40.4975 27.3296H40.4985Z" fill="#212170" stroke="#212170"/>
<path d="M40.1085 62.8388C40.1614 62.8869 40.2232 62.9261 40.2898 62.9545C40.4231 63.0133 40.574 63.0133 40.7072 62.9545C40.7739 62.9261 40.8346 62.8878 40.8885 62.8388L43.6322 60.0951C43.8478 59.8795 43.8478 59.5307 43.6322 59.3161C43.4167 59.1005 43.0678 59.1005 42.8532 59.3161L42.4691 59.7061L41.0482 61.127V54.2187C41.0482 53.9159 40.8023 53.6699 40.4995 53.6699C40.1967 53.6699 39.9508 53.9159 39.9508 54.2187V61.127L38.5299 59.7061L38.1458 59.3161C37.9302 59.1005 37.5814 59.1005 37.3668 59.3161C37.1512 59.5317 37.1512 59.8805 37.3668 60.0951L40.1105 62.8388H40.1085Z" fill="#212170" stroke="#212170"/>
<path d="M62.8388 40.8905C62.8869 40.8376 62.9261 40.7758 62.9545 40.7092C63.0133 40.5759 63.0133 40.425 62.9545 40.2918C62.9261 40.2251 62.8878 40.1644 62.8388 40.1105L60.0951 37.3668C59.8795 37.1512 59.5307 37.1512 59.3161 37.3668C59.1015 37.5823 59.1005 37.9312 59.3161 38.1458L59.7061 38.5299L61.127 39.9508H54.2187C53.9159 39.9508 53.6699 40.1967 53.6699 40.4995C53.6699 40.8023 53.9159 41.0482 54.2187 41.0482H61.127L59.7061 42.4691L59.3161 42.8532C59.2122 42.9561 59.1534 43.0962 59.1534 43.2422C59.1534 43.3882 59.2122 43.5294 59.3161 43.6322C59.419 43.7361 59.5591 43.7949 59.7061 43.7949C59.8531 43.7949 59.9932 43.7361 60.0961 43.6322L62.8398 40.8885L62.8388 40.8905Z" fill="#212170" stroke="#212170"/>
<path d="M18.1587 40.8895L20.9025 43.6332C21.0054 43.7371 21.1455 43.7959 21.2925 43.7959C21.4394 43.7959 21.5796 43.7371 21.6825 43.6332C21.7863 43.5303 21.8451 43.3902 21.8451 43.2432C21.8451 43.0962 21.7863 42.9561 21.6825 42.8532L21.2925 42.4691L19.8716 41.0482H26.7799C27.0827 41.0482 27.3286 40.8023 27.3286 40.4995C27.3286 40.1967 27.0827 39.9508 26.7799 39.9508H19.8716L21.2925 38.5299L21.6825 38.1458C21.898 37.9312 21.898 37.5823 21.6825 37.3668C21.4669 37.1512 21.118 37.1512 20.9034 37.3668L18.1597 40.1105C18.1117 40.1634 18.0725 40.2251 18.0441 40.2918C18.0157 40.3584 18.001 40.4289 18 40.5005C18.001 40.572 18.0157 40.6426 18.0441 40.7092C18.0725 40.7758 18.1107 40.8366 18.1597 40.8905L18.1587 40.8895Z" fill="#212170" stroke="#212170"/>
<path d="M53.6683 27.4996C53.8829 27.7122 54.2278 27.7122 54.4424 27.4996L59.3262 22.6157V25.1733C59.3262 25.4761 59.5722 25.722 59.8749 25.722C60.1777 25.722 60.4237 25.4761 60.4237 25.1733V21.2939C60.4237 21.2223 60.4119 21.1518 60.3855 21.0851C60.3571 21.0175 60.3169 20.9558 60.265 20.9039C60.213 20.8568 60.1532 20.8176 60.0895 20.7882C60.02 20.7588 59.9455 20.7441 59.8701 20.7441H55.9906C55.6878 20.7441 55.4419 20.9901 55.4419 21.2929C55.4419 21.5957 55.6878 21.8416 55.9906 21.8416H58.5482L57.5438 22.846L53.6692 26.7254C53.4566 26.9391 53.4566 27.285 53.6692 27.4986L53.6683 27.4996Z" fill="#212170" stroke="#212170"/>
<path d="M27.3279 53.6692C27.1133 53.4566 26.7683 53.4566 26.5537 53.6692L22.6743 57.5487L21.6758 58.5472V55.9906C21.6758 55.6878 21.4298 55.4419 21.1271 55.4419C20.8243 55.4419 20.5783 55.6878 20.5783 55.9906V59.8701C20.5763 59.9435 20.5901 60.0161 20.6165 60.0837C20.6753 60.216 20.7811 60.3208 20.9125 60.3796C20.981 60.4041 21.0536 60.4168 21.1261 60.4178H25.0055C25.3083 60.4178 25.5542 60.1719 25.5542 59.8691C25.5542 59.5663 25.3083 59.3203 25.0055 59.3203H22.4489L23.4533 58.3159L27.3279 54.4365C27.5366 54.2229 27.5366 53.8819 27.3279 53.6683V53.6692Z" fill="#212170" stroke="#212170"/>
<path d="M56.5394 59.3213H55.9906C55.6878 59.3213 55.4419 59.5672 55.4419 59.87C55.4419 60.1728 55.6878 60.4188 55.9906 60.4188H59.87C59.9435 60.4178 60.0151 60.405 60.0837 60.3805C60.2159 60.3217 60.3208 60.2159 60.3796 60.0846C60.407 60.016 60.4198 59.9435 60.4178 59.871V55.9916C60.4178 55.6888 60.1719 55.4428 59.8691 55.4428C59.5663 55.4428 59.3203 55.6888 59.3203 55.9916V58.5491L58.3159 57.5447L54.4365 53.6702C54.3414 53.5428 54.1954 53.4634 54.0367 53.4527C53.878 53.4409 53.7222 53.4997 53.6095 53.6114C53.4968 53.7241 53.439 53.8799 53.4507 54.0386C53.4615 54.1974 53.5418 54.3434 53.6683 54.4384L58.5521 59.3223H56.5384L56.5394 59.3213Z" fill="#212170" stroke="#212170"/>
<path d="M27.3287 26.7254L23.4493 22.846L22.4508 21.8416H25.0073C25.3101 21.8416 25.5561 21.5957 25.5561 21.2929C25.5561 20.9901 25.3101 20.7441 25.0073 20.7441H21.1279C21.0544 20.7441 20.9819 20.7598 20.9143 20.7882C20.8496 20.8176 20.7908 20.8568 20.7389 20.9039C20.6869 20.9558 20.6458 21.0175 20.6183 21.0851C20.5919 21.1518 20.5792 21.2223 20.5801 21.2939V25.1733C20.5801 25.4761 20.8261 25.722 21.1289 25.722C21.4317 25.722 21.6776 25.4761 21.6776 25.1733V22.6157L26.5614 27.4996C26.7751 27.7122 27.121 27.7122 27.3346 27.4996C27.5462 27.284 27.5433 26.9381 27.3297 26.7264L27.3287 26.7254Z" fill="#212170" stroke="#212170"/>
</svg>
