<svg width="80" height="80" viewBox="0 0 80 80" fill="none" xmlns="http://www.w3.org/2000/svg">
<circle cx="40" cy="40" r="40" fill="white"/>
<path d="M56.5 30.5L45 36.5V49.5L56.5 55.5L68 49.5V36.5L56.5 30.5Z" fill="#D9D3FF"/>
<path d="M29.106 16C27.7518 16 26.4531 16.528 25.4955 17.4678C24.538 18.4076 24 19.6823 24 21.0114V59.9886C24 61.3177 24.538 62.5924 25.4955 63.5322C26.4531 64.472 27.7518 65 29.106 65H49.4224C50.7766 65 52.0753 64.472 53.0329 63.5322C53.9905 62.5924 54.5284 61.3177 54.5284 59.9886V57.2045C54.5329 56.9092 54.4177 56.6242 54.2081 56.4122C53.9985 56.2002 53.7117 56.0786 53.4108 56.0742C53.1098 56.0698 52.8194 56.1829 52.6035 56.3886C52.3875 56.5943 52.2636 56.8758 52.2591 57.1711V59.9552C52.2644 60.3223 52.1947 60.6867 52.054 61.0268C51.9134 61.367 51.7046 61.676 51.4402 61.9356C51.1757 62.1952 50.8608 62.4 50.5142 62.5381C50.1677 62.6761 49.7964 62.7446 49.4224 62.7393H29.106C28.732 62.7446 28.3608 62.6761 28.0142 62.5381C27.6676 62.4 27.3528 62.1952 27.0883 61.9356C26.8238 61.676 26.615 61.367 26.4744 61.0268C26.3337 60.6867 26.264 60.3223 26.2694 59.9552V21.0114C26.264 20.6443 26.3337 20.2799 26.4744 19.9398C26.615 19.5996 26.8238 19.2906 27.0883 19.031C27.3528 18.7714 27.6676 18.5666 28.0142 18.4285C28.3608 18.2904 28.732 18.222 29.106 18.2273H49.4224C49.7964 18.222 50.1677 18.2904 50.5142 18.4285C50.8608 18.5666 51.1757 18.7714 51.4402 19.031C51.7046 19.2906 51.9134 19.5996 52.054 19.9398C52.1947 20.2799 52.2644 20.6443 52.2591 21.0114V24.2131C52.2568 24.3593 52.284 24.5046 52.3389 24.6405C52.3939 24.7765 52.4756 24.9005 52.5794 25.0054C52.789 25.2174 53.0758 25.339 53.3767 25.3434C53.6777 25.3478 53.9681 25.2348 54.1841 25.029C54.4 24.8233 54.5239 24.5418 54.5284 24.2465V21.0114C54.5284 19.6823 53.9905 18.4076 53.0329 17.4678C52.0753 16.528 50.7766 16 49.4224 16H29.106ZM53.4335 26.9081H53.3257C53.1504 26.9194 52.9799 26.9689 52.8264 27.0528L41.3946 33.473C41.2214 33.5711 41.0777 33.7124 40.9781 33.8825C40.8785 34.0526 40.8264 34.2456 40.8272 34.4418V47.2486C40.8284 47.443 40.8814 47.6336 40.981 47.8017C41.0805 47.9697 41.2231 48.1092 41.3946 48.2064L52.8264 54.6488C52.9989 54.7465 53.1946 54.7979 53.3938 54.7979C53.5929 54.7979 53.7886 54.7465 53.9611 54.6488L65.4156 48.2286C65.5871 48.1315 65.7297 47.9919 65.8293 47.8239C65.9288 47.6559 65.9818 47.4653 65.983 47.2709V34.4641C65.9838 34.2679 65.9317 34.0749 65.8321 33.9048C65.7325 33.7346 65.5888 33.5933 65.4156 33.4952L53.9781 27.0695C53.8142 26.9696 53.6263 26.9139 53.4335 26.9081ZM53.3938 29.3135L63.7136 35.0877V46.625L53.3938 52.4048L43.0966 46.625V36.3573L52.2591 41.4744V49.0416C52.2546 49.3369 52.3698 49.622 52.5794 49.8339C52.789 50.0459 53.0758 50.1675 53.3767 50.1719C53.6777 50.1764 53.9681 50.0633 54.1841 49.8576C54.4 49.6519 54.5239 49.3704 54.5284 49.075V41.5078L61.3365 37.6992C61.5975 37.5515 61.7881 37.3081 61.8663 37.0225C61.9445 36.7369 61.9039 36.4325 61.7535 36.1763C61.603 35.9201 61.355 35.733 61.064 35.6563C60.773 35.5795 60.4629 35.6194 60.2018 35.767L53.4108 39.559L44.2653 34.4251L53.3938 29.3135ZM35.5623 59.0142C35.4133 59.0208 35.2671 59.0561 35.132 59.1182C34.9969 59.1802 34.8756 59.2678 34.775 59.3758C34.6743 59.4839 34.5964 59.6103 34.5456 59.748C34.4947 59.8856 34.472 60.0317 34.4787 60.178C34.4854 60.3242 34.5214 60.4677 34.5846 60.6003C34.6479 60.7329 34.7371 60.852 34.8472 60.9507C34.9573 61.0495 35.0861 61.126 35.2264 61.1759C35.3666 61.2258 35.5155 61.2481 35.6645 61.2415H42.847C43.1479 61.2459 43.4383 61.1328 43.6543 60.9271C43.8703 60.7214 43.9941 60.4399 43.9986 60.1445C44.0032 59.8492 43.8879 59.5642 43.6783 59.3522C43.4687 59.1402 43.1819 59.0186 42.881 59.0142H35.5623Z" fill="#212170" stroke="#212170" stroke-width="0.6"/>
</svg>
