<svg width="80" height="80" viewBox="0 0 80 80" fill="none" xmlns="http://www.w3.org/2000/svg">
<circle cx="40" cy="40" r="40" fill="white"/>
<circle cx="43.5" cy="49.5" r="5.5" fill="#D9D3FF"/>
<path d="M56.7857 33.7138V34.2138H57.2857H60.4286C61.0208 34.2138 61.5 34.693 61.5 35.2852V60.4281C61.5 61.0203 61.0208 61.4995 60.4286 61.4995H19.5714C18.9792 61.4995 18.5 61.0203 18.5 60.4281V35.2852C18.5 34.9475 18.6731 34.6478 18.9582 34.4408L19.0004 34.4102L19.0353 34.3716C19.0464 34.3593 19.0567 34.3468 19.0661 34.3343L42.5483 18.6795L42.5485 18.6794C42.8755 18.4612 43.3004 18.4403 43.6477 18.6262L43.6484 18.6266C43.9969 18.8124 44.2143 19.1751 44.2143 19.5709V24.3481V25.0651L44.8871 24.8173L49.0575 23.2811C49.0576 23.281 49.0577 23.281 49.0578 23.281C49.3866 23.1604 49.7541 23.2075 50.042 23.4074C50.3292 23.609 50.5 23.936 50.5 24.2861V28.2488V28.8464L51.0882 28.741L55.5251 27.9454L55.5257 27.9452C55.8372 27.8889 56.1578 27.9734 56.4007 28.1779L56.403 28.1798C56.6452 28.3812 56.7857 28.6817 56.7857 28.9995V33.7138ZM59.3571 36.8566V36.3566H58.8571H52.5714H52.0714V36.8566C52.0714 40.5999 55.1149 43.6424 58.8571 43.6424H59.3571V43.1424V36.8566ZM54.6429 30.878V30.2805L54.0547 30.3859L38.2308 33.2216L38.319 34.2138H54.1429H54.6429V33.7138V30.878ZM48.3571 26.54V25.8229L47.6843 26.0708L35.6777 30.4942L35.9387 31.4555L47.9453 29.304L48.3571 29.2302V28.8118V26.54ZM42.0714 22.5073V21.573L41.2941 22.0912L31.2414 28.7936L31.6916 29.6788L41.7443 25.9747L42.0714 25.8542V25.5055V22.5073ZM21.1429 36.3566H20.6429V36.8566V43.1424V43.6424H21.1429C24.8851 43.6424 27.9286 40.5989 27.9286 36.8566V36.3566H27.4286H21.1429ZM20.6429 58.8566V59.3566H21.1429H27.4286H27.9286V58.8566C27.9286 55.1134 24.8851 52.0709 21.1429 52.0709H20.6429V52.5709V58.8566ZM30.0714 58.8566V59.3566H30.5714H49.4286H49.9286V58.8566C49.9286 53.9336 53.9341 49.9281 58.8571 49.9281H59.3571V49.4281V46.2852V45.7852H58.8571C53.9341 45.7852 49.9286 41.7797 49.9286 36.8566V36.3566H49.4286H30.5714H30.0714V36.8566C30.0714 41.7797 26.0659 45.7852 21.1429 45.7852H20.6429V46.2852V49.4281V49.9281H21.1429C26.0659 49.9281 30.0714 53.9336 30.0714 58.8566ZM58.8571 59.3566H59.3571V58.8566V52.5709V52.0709H58.8571C55.1149 52.0709 52.0714 55.1134 52.0714 58.8566V59.3566H52.5714H58.8571Z" fill="#212170" stroke="#212170"/>
<path d="M39.8211 53.8785C43.0446 53.8785 45.6578 51.2654 45.6578 48.0418C45.6578 44.8183 43.0446 42.2051 39.8211 42.2051C36.5976 42.2051 33.9844 44.8183 33.9844 48.0418C33.9844 51.2654 36.5976 53.8785 39.8211 53.8785Z" stroke="#212170" stroke-width="3" stroke-miterlimit="10"/>
</svg>
