<svg width="80" height="80" viewBox="0 0 80 80" fill="none" xmlns="http://www.w3.org/2000/svg">
<circle cx="40" cy="40" r="40" fill="white"/>
<path opacity="0.25" fill-rule="evenodd" clip-rule="evenodd" d="M23.006 43C23.002 43.1662 23 43.3329 23 43.5C23 54.8218 32.1782 64 43.5 64C54.8218 64 64 54.8218 64 43.5C64 43.3329 63.998 43.1662 63.994 43H23.006Z" fill="#09DA90"/>
<path d="M19.7241 32.0349H29.8621C30.0541 32.0349 30.2386 31.9588 30.3743 31.823C30.5101 31.6873 30.5862 31.5028 30.5862 31.3108V30.5866C30.5854 29.4735 30.2634 28.3852 29.6601 27.4501C29.0568 26.5149 28.197 25.7742 27.1832 25.3149C27.9652 24.6379 28.4146 23.6548 28.4146 22.6211C28.4146 21.3276 27.7244 20.1326 26.6039 19.4854C25.4833 18.8382 24.1037 18.8382 22.9832 19.4854C21.8626 20.1317 21.1724 21.3276 21.1724 22.6211C21.1724 23.6556 21.6218 24.6379 22.4039 25.3149C21.3901 25.7742 20.5302 26.5149 19.9269 27.4501C19.3228 28.3852 19.0008 29.4743 19 30.5866V31.3108C19 31.5028 19.0761 31.6873 19.2119 31.823C19.3476 31.9588 19.5321 32.0349 19.7241 32.0349ZM22.6207 22.6211C22.6207 22.0451 22.8499 21.4923 23.2571 21.0851C23.6643 20.6779 24.2171 20.4487 24.7931 20.4487C25.3691 20.4487 25.9219 20.6779 26.3291 21.0851C26.7363 21.4923 26.9655 22.0451 26.9655 22.6211C26.9655 23.1971 26.7363 23.7499 26.3291 24.1571C25.9219 24.5643 25.3691 24.7935 24.7931 24.7935C24.2171 24.7935 23.6643 24.5643 23.2571 24.1571C22.8499 23.7499 22.6207 23.1971 22.6207 22.6211ZM24.7931 26.2418C25.9459 26.2418 27.0508 26.6994 27.8651 27.5146C28.6794 28.3298 29.1379 29.4346 29.1379 30.5866H20.4483C20.4483 29.4338 20.9059 28.329 21.7211 27.5146C22.5363 26.7003 23.6411 26.2418 24.7931 26.2418Z" fill="#212170" stroke="#212170"/>
<path d="M34.9303 32.0349H45.0683C45.2603 32.0349 45.4448 31.9588 45.5805 31.823C45.7163 31.6873 45.7924 31.5028 45.7924 31.3108V30.5866C45.7916 29.4735 45.4697 28.3852 44.8663 27.4501C44.263 26.5149 43.4032 25.7742 42.3894 25.3149C43.1714 24.6379 43.6208 23.6548 43.6208 22.6211C43.6208 21.3276 42.9306 20.1326 41.8101 19.4854C40.6895 18.8382 39.3099 18.8382 38.1894 19.4854C37.0688 20.1317 36.3786 21.3276 36.3786 22.6211C36.3786 23.6556 36.828 24.6379 37.6101 25.3149C36.5963 25.7742 35.7364 26.5149 35.1331 27.4501C34.5298 28.3844 34.2079 29.4735 34.207 30.5866V31.3108C34.207 31.5028 34.2832 31.6873 34.4189 31.823C34.5546 31.9588 34.7392 32.0349 34.9312 32.0349H34.9303ZM37.8269 22.6211C37.8269 22.0451 38.0561 21.4923 38.4633 21.0851C38.8705 20.6779 39.4233 20.4487 39.9993 20.4487C40.5753 20.4487 41.1281 20.6779 41.5353 21.0851C41.9425 21.4923 42.1717 22.0451 42.1717 22.6211C42.1717 23.1971 41.9425 23.7499 41.5353 24.1571C41.1281 24.5643 40.5753 24.7935 39.9993 24.7935C39.4233 24.7935 38.8705 24.5643 38.4633 24.1571C38.0561 23.7499 37.8269 23.1971 37.8269 22.6211ZM39.9993 26.2418C41.1521 26.2418 42.257 26.6994 43.0713 27.5146C43.8857 28.3298 44.3441 29.4346 44.3441 30.5866H35.6545C35.6545 29.4338 36.1121 28.329 36.9273 27.5146C37.7425 26.7003 38.8473 26.2418 39.9993 26.2418Z" fill="#212170" stroke="#212170"/>
<path d="M57.5964 25.3149C58.3785 24.6379 58.8279 23.6548 58.8279 22.6211C58.8279 21.3276 58.1376 20.1326 57.0171 19.4854C55.8974 18.8382 54.5161 18.8382 53.3964 19.4854C52.2759 20.1317 51.5856 21.3276 51.5856 22.6211C51.5856 23.6556 52.035 24.6379 52.8171 25.3149C51.8033 25.7742 50.9434 26.5149 50.3401 27.4501C49.7368 28.3844 49.4149 29.4735 49.4141 30.5866V31.3108C49.4141 31.5028 49.4902 31.6873 49.6259 31.823C49.7616 31.9588 49.9462 32.0349 50.1382 32.0349H60.2761C60.4681 32.0349 60.6527 31.9588 60.7884 31.823C60.9241 31.6873 61.0003 31.5028 61.0003 31.3108V30.5866C60.9994 29.4735 60.6775 28.3852 60.0742 27.4501C59.4709 26.5149 58.611 25.7742 57.5972 25.3149H57.5964ZM53.0348 22.6211C53.0348 22.0451 53.264 21.4923 53.6712 21.0851C54.0783 20.6779 54.6312 20.4487 55.2072 20.4487C55.7832 20.4487 56.336 20.6779 56.7432 21.0851C57.1503 21.4923 57.3796 22.0451 57.3796 22.6211C57.3796 23.1971 57.1503 23.7499 56.7432 24.1571C56.336 24.5643 55.7832 24.7935 55.2072 24.7935C54.6312 24.7935 54.0783 24.5643 53.6712 24.1571C53.264 23.7499 53.0348 23.1971 53.0348 22.6211ZM50.8623 30.5866C50.8623 29.0341 51.6908 27.5999 53.0348 26.8244C54.3788 26.0481 56.0356 26.0481 57.3796 26.8244C58.7236 27.6007 59.552 29.0349 59.552 30.5866H50.8623Z" fill="#212170" stroke="#212170"/>
<path d="M60.2759 39.2754H19.7241C19.3244 39.2754 19 39.5998 19 39.9995C19 45.5692 21.2121 50.9104 25.1506 54.8489C29.0891 58.7874 34.4303 60.9995 40 60.9995C45.5697 60.9995 50.9109 58.7874 54.8494 54.8489C58.7879 50.9104 61 45.5692 61 39.9995C61 39.8075 60.9239 39.623 60.7881 39.4873C60.6524 39.3515 60.4679 39.2754 60.2759 39.2754ZM39.2759 50.8616V59.4718C36.6259 58.9579 34.2723 55.6335 32.824 50.8616H39.2759ZM32.4259 49.4133C31.7266 46.5681 31.3526 43.6533 31.3103 40.7237H39.2759V49.4133H32.4259ZM40.7241 59.4718V50.8616H47.176C45.7277 55.6335 43.3741 58.957 40.7241 59.4718ZM40.7241 49.4133V40.7237H48.6897C48.6499 43.6525 48.2783 46.5681 47.5815 49.4133H40.7241ZM29.8621 40.7237C29.8935 43.6492 30.2403 46.5623 30.8974 49.4133H22.8739C21.3942 46.7477 20.5633 43.7708 20.4483 40.7237H29.8621ZM23.7578 50.8616H31.3103C32.339 54.4823 33.8668 57.3068 35.7131 59.0663C30.8262 57.959 26.5484 55.0235 23.7578 50.8616ZM44.3448 59.0663C46.1622 57.3068 47.6908 54.4823 48.6897 50.8616H56.2422C53.4657 55.0111 49.2102 57.9457 44.3448 59.0663ZM57.1261 49.4133H49.0952C49.7548 46.5623 50.1048 43.6492 50.1379 40.7237H59.5517C59.4367 43.7708 58.6058 46.7477 57.1261 49.4133Z" fill="#212170" stroke="#212170"/>
</svg>
