<svg width="80" height="80" viewBox="0 0 80 80" fill="none" xmlns="http://www.w3.org/2000/svg">
<circle cx="40" cy="40" r="40" fill="white"/>
<path d="M51.3262 23H27.3262V47L51.3262 23Z" fill="#D9D3FF"/>
<path d="M50.2157 17H29.4373C27.2002 17 25.0535 17.8895 23.4709 19.4709C21.8883 21.0523 21 23.2002 21 25.4373V53.5626C21 55.7998 21.8895 57.9465 23.4709 59.5291C25.0523 61.1117 27.199 62 29.4373 62H42.2605C43.7527 62 45.1834 61.407 46.2381 60.3523L57.0054 49.585C58.06 48.5304 58.6531 47.0996 58.6531 45.6074V25.4373C58.6531 23.2002 57.7635 21.0535 56.1821 19.4709C54.5983 17.8895 52.4528 17 50.2157 17ZM44.5904 58.0224V50.7494C44.5904 50.0045 44.8881 49.2885 45.4149 48.7618C45.9416 48.2339 46.6564 47.9373 47.4025 47.9373H54.6755L44.5904 58.0224ZM55.8398 45.1253H47.4025C45.9103 45.1253 44.4795 45.7171 43.4249 46.773C42.3702 47.8277 41.7772 49.2584 41.7772 50.7506V59.188H29.4373C27.9463 59.1867 26.5168 58.5937 25.4622 57.539C24.4075 56.4844 23.8145 55.0549 23.8133 53.5639V25.4373C23.8145 23.9463 24.4075 22.5168 25.4622 21.4622C26.5168 20.4075 27.9463 19.8145 29.4373 19.8133H50.2157C51.7067 19.8145 53.1362 20.4075 54.1909 21.4622C55.2456 22.5168 55.8386 23.9463 55.8398 25.4373V45.1253Z" fill="#212170"/>
<path d="M46.1976 27H33.4537C32.6616 27 32.0195 27.6164 32.0195 28.377C32.0195 29.1375 32.6616 29.7551 33.4537 29.7551H46.1976C46.9897 29.7551 47.6318 29.1387 47.6318 28.377C47.6318 27.6153 46.9897 27 46.1976 27Z" fill="#212170"/>
<path d="M46.1976 32.9805H33.4537C32.6616 32.9805 32.0195 33.5969 32.0195 34.3574C32.0195 35.1179 32.6616 35.7356 33.4537 35.7356H46.1976C46.9897 35.7356 47.6318 35.1191 47.6318 34.3574C47.6318 33.5957 46.9897 32.9805 46.1976 32.9805Z" fill="#212170"/>
<path d="M46.1976 38.9805H33.4537C32.6616 38.9805 32.0195 39.5969 32.0195 40.3574C32.0195 41.1179 32.6616 41.7356 33.4537 41.7356H46.1976C46.9897 41.7356 47.6318 41.1191 47.6318 40.3574C47.6318 39.5957 46.9897 38.9805 46.1976 38.9805Z" fill="#212170"/>
</svg>
