<svg width="80" height="80" viewBox="0 0 80 80" fill="none" xmlns="http://www.w3.org/2000/svg">
<circle cx="40" cy="40" r="40" fill="white"/>
<circle cx="52" cy="33" r="6" fill="#D9D3FF"/>
<path d="M40.5414 51.6797C39.848 51.6797 39.3177 52.2201 39.3177 52.9269C39.3177 54.3404 38.1756 55.5044 36.7888 55.5044C35.4019 55.5044 34.2598 54.3404 34.2598 52.9269C34.2598 52.2201 33.7296 51.6797 33.0362 51.6797C32.3428 51.6797 31.8125 52.2201 31.8125 52.9269C31.8125 55.7123 34.0559 57.9988 36.7888 57.9988C39.5216 57.9988 41.7651 55.7123 41.7651 52.9269C41.7651 52.2201 41.194 51.6797 40.5414 51.6797Z" fill="#212170"/>
<path d="M49.6379 23.4944C46.7418 23.4944 44.2129 24.991 42.7037 27.2775C42.3366 27.0281 41.9287 26.8202 41.5208 26.6124C41.6432 26.4045 41.684 26.1966 41.684 25.9888C41.6847 23.2449 39.4821 21 36.79 21C34.0979 21 31.8953 23.2449 31.8953 25.9888C31.8953 26.1966 31.9361 26.4045 32.0585 26.5708C30.7124 27.236 29.5296 28.1506 28.5098 29.3978C26.7151 31.5596 25.6954 34.3865 25.6954 37.1303V41.5787C25.6954 42.036 25.5322 42.4517 25.2059 42.7427L24.3085 43.5742C23.4928 44.3225 23.0441 45.3618 23.0026 46.4843C22.9618 47.6067 23.4105 48.6461 24.1854 49.436C24.9197 50.1843 25.9394 50.6416 26.9999 50.6416H46.6603C47.7208 50.6416 48.7405 50.2258 49.4747 49.436C50.2497 48.6461 50.6576 47.6067 50.6576 46.4843C50.6168 45.3618 50.1681 44.3225 49.3523 43.5742L48.455 42.7427C48.1287 42.4517 47.9655 42.036 47.9655 41.5787V40.3315C48.5366 40.4562 49.1076 40.4978 49.6787 40.4978C54.2478 40.5393 58.0004 36.7146 58.0004 32.0169C58.0004 27.3191 54.2478 23.4944 49.6386 23.4944H49.6379ZM36.7893 23.4944C38.0945 23.4944 39.1551 24.5337 39.2366 25.8225C38.5432 25.6562 37.809 25.573 37.0748 25.573C36.9932 25.573 36.9117 25.573 36.7893 25.6146C36.7077 25.6146 36.6261 25.573 36.5038 25.573C35.7696 25.573 35.0354 25.6562 34.3419 25.8225C34.4643 24.5337 35.484 23.4944 36.7893 23.4944ZM48.1287 46.5258C48.1287 46.9416 47.9655 47.3573 47.68 47.6899C47.3945 47.9809 46.9866 48.1472 46.5787 48.1472H26.9591C26.5512 48.1472 26.1433 47.9809 25.8578 47.6899C25.5723 47.3989 25.4091 46.9831 25.4091 46.5258C25.4091 46.1101 25.6131 45.6944 25.8986 45.4034L26.796 44.5719C27.6117 43.8236 28.1012 42.7011 28.1012 41.5787V37.1303C28.1012 31.518 32.4656 28.0674 36.5038 28.0674C36.5853 28.0674 36.6669 28.0674 36.7893 28.0258C36.8709 28.0258 36.9524 28.0674 37.0748 28.0674C38.788 28.0674 40.2972 28.5663 41.6432 29.5225C41.3985 30.3124 41.2761 31.1438 41.2761 32.0169C41.2761 35.1764 42.9485 37.9202 45.4774 39.3753V41.7865H30.6716C29.9782 41.7865 29.448 42.327 29.448 43.0337C29.448 43.7404 29.9782 44.2809 30.6716 44.2809H46.1715C46.2531 44.2809 46.3755 44.2809 46.457 44.2393C46.5386 44.364 46.661 44.4888 46.7834 44.5719L47.6807 45.4034C47.9655 45.6944 48.1294 46.1101 48.1294 46.5258H48.1287ZM49.6379 38.0449C46.3747 38.0449 43.7234 35.3427 43.7234 32.0169C43.7234 28.691 46.3747 25.9888 49.6379 25.9888C52.901 25.9888 55.5523 28.691 55.5523 32.0169C55.5523 35.3427 52.901 38.0449 49.6379 38.0449Z" fill="#212170"/>
</svg>
