<svg width="80" height="80" viewBox="0 0 80 80" fill="none" xmlns="http://www.w3.org/2000/svg">
<circle cx="40" cy="40" r="40" fill="white"/>
<rect x="26" y="30" width="21" height="18" fill="#D9D3FF"/>
<path fill-rule="evenodd" clip-rule="evenodd" d="M57.7 18H31.6707C29.8308 18 28.0662 18.7467 26.7652 20.0758C25.4642 21.4049 24.7333 23.2075 24.7333 25.0871V49.5536H20.4333C20.0532 49.5536 19.6886 49.7078 19.4198 49.9825C19.151 50.2571 19 50.6295 19 51.0179V54.9129C18.9993 56.76 19.7046 58.5343 20.9656 59.8581C22.2266 61.1819 23.9436 61.9504 25.751 62H49.3293C51.1692 62 52.9338 61.2533 54.2348 59.9242C55.5358 58.5951 56.2667 56.7925 56.2667 54.9129V30.4464H60.5667C60.9468 30.4464 61.3114 30.2922 61.5802 30.0175C61.849 29.7429 62 29.3705 62 28.9821V22.3929C62 21.2278 61.547 20.1105 60.7406 19.2866C59.9342 18.4628 58.8404 18 57.7 18ZM41.9333 52.4821H21.8667V54.9129C21.8667 56.0158 22.2955 57.0735 23.0589 57.8534C23.8223 58.6333 24.8577 59.0714 25.9373 59.0714H43.252C42.3927 57.8627 41.931 56.4067 41.9333 54.9129V52.4821ZM53.6437 20.9286H31.6707C30.5911 20.9286 29.5557 21.3667 28.7923 22.1466C28.0289 22.9265 27.6 23.9842 27.6 25.0871V49.5536H43.7967C44.0867 49.6468 44.3402 49.8317 44.5206 50.0818C44.7009 50.3319 44.7988 50.634 44.8 50.9446V54.8396C44.7905 55.3919 44.8887 55.9405 45.089 56.4536C45.2893 56.9666 45.5877 57.4337 45.9666 57.8276C46.3456 58.2216 46.7976 58.5345 47.2962 58.748C47.7948 58.9616 48.33 59.0715 48.8707 59.0714H49.3293C50.4089 59.0714 51.4443 58.6333 52.2077 57.8534C52.9711 57.0735 53.4 56.0158 53.4 54.9129V22.3929C53.4017 21.8944 53.484 21.3996 53.6437 20.9286ZM56.2667 27.5179V22.3929C56.2656 22.2001 56.3017 22.0091 56.3731 21.8307C56.4444 21.6523 56.5495 21.49 56.6823 21.3532C56.8163 21.2175 56.9751 21.1101 57.1497 21.0373C57.3244 20.9644 57.5114 20.9275 57.7 20.9286C58.0801 20.9286 58.4447 21.0828 58.7135 21.3575C58.9823 21.6321 59.1333 22.0045 59.1333 22.3929V27.5179H56.2667Z" fill="#212170"/>
<path d="M33 30L48 30" stroke="#212170" stroke-width="3" stroke-linecap="round"/>
<path d="M33 36L48 36" stroke="#212170" stroke-width="3" stroke-linecap="round"/>
<path d="M33 42L48 42" stroke="#212170" stroke-width="3" stroke-linecap="round"/>
</svg>
