<svg width="24" height="24" viewBox="0 0 24 24" fill="none" xmlns="http://www.w3.org/2000/svg">
<path d="M19.5299 13.8284C18.9986 13.2776 18.3559 12.9869 17.6704 12.9869C16.992 12.9869 16.3445 13.2729 15.8014 13.8166L14.4518 15.1616C14.4186 15.1451 14.3854 15.1285 14.3545 15.112L14.2857 15.0789C14.141 15.0056 13.975 14.9229 13.8374 14.8378C12.4523 13.9608 11.1881 12.812 9.96893 11.3228C9.44711 10.668 9.08185 10.1125 8.81382 9.55936C9.153 9.24025 9.46846 8.92113 9.76495 8.61857C9.83136 8.55238 9.89777 8.48383 9.96655 8.41528C10.0353 8.34673 10.1018 8.27818 10.1705 8.20963C10.735 7.64704 11.0339 6.99463 11.0315 6.32331C11.0292 5.65198 10.7327 5.0043 10.1705 4.44644L8.85889 3.13925C8.78299 3.06361 8.70709 2.98797 8.63356 2.91232C8.56003 2.83668 8.48413 2.76104 8.41061 2.68776L8.30624 2.58139C8.04771 2.31901 7.77969 2.04717 7.5093 1.79897C6.98274 1.27657 6.34471 1 5.66872 1C4.99274 1 4.35233 1.27657 3.80443 1.79897C3.80206 1.80133 3.79969 1.80133 3.79969 1.8037L2.15598 3.43945C1.48474 4.10841 1.10287 4.92393 1.01986 5.86236V5.86473C0.932096 6.97572 1.13371 8.14817 1.65552 9.55464C2.44535 11.6821 3.63129 13.6535 5.3841 15.7573C7.52353 18.2984 10.0923 20.3029 13.0168 21.7141H13.0192C14.1458 22.2507 15.659 22.8794 17.3668 22.9905H17.3858C17.483 22.9953 17.585 23 17.6917 23C18.8895 23 19.9 22.5674 20.6922 21.7141L20.704 21.7023C20.7126 21.6942 20.7205 21.6855 20.7277 21.6763C20.9649 21.3926 21.2377 21.1302 21.5437 20.8371C21.7548 20.6362 21.9706 20.4305 22.1793 20.2083C22.7177 19.6481 23.0024 18.9957 23 18.322C22.9976 17.6483 22.7082 17.0006 22.1627 16.457L19.5299 13.8284ZM19.269 20.4164C18.8468 20.8655 18.363 21.0664 17.7036 21.0664C17.6419 21.0664 17.5731 21.0617 17.502 21.0569C16.1358 20.9695 14.8431 20.4305 13.8707 19.9696C11.1857 18.6813 8.8328 16.847 6.87601 14.5163C5.27499 12.5945 4.19579 10.8027 3.48186 8.88331C3.05492 7.74159 2.89363 6.85753 2.96005 6.0231C3.00274 5.53616 3.18537 5.14849 3.53404 4.80574L5.16589 3.17943C5.33666 3.01633 5.51218 2.92887 5.67584 2.92887C5.83001 2.92887 5.99367 3.01397 6.16682 3.1818L6.17393 3.18889C6.45618 3.45364 6.73132 3.73257 7.02306 4.02568L7.03255 4.03513C7.17249 4.17933 7.33378 4.34479 7.49744 4.50317L8.80671 5.80799C9.18858 6.18857 9.18858 6.45568 8.80671 6.83625C8.66914 6.97335 8.5292 7.11282 8.39163 7.25465L8.29438 7.35393C7.92674 7.72505 7.58045 8.07489 7.20332 8.40819C7.19721 8.41309 7.19164 8.41864 7.18672 8.42473L7.163 8.44837C6.76216 8.84786 6.65305 9.32535 6.84043 9.8643C6.84517 9.87848 6.84992 9.8903 6.85466 9.90212C6.85681 9.90961 6.86001 9.91677 6.86415 9.92339C7.21518 10.7673 7.70853 11.5686 8.46753 12.5259C8.46753 12.5283 8.4699 12.5283 8.4699 12.5307C9.81713 14.183 11.2379 15.4736 12.8152 16.4712C13.0157 16.5941 13.2223 16.7069 13.4342 16.8092C13.5813 16.8825 13.7473 16.9676 13.8849 17.0503C13.8938 17.0567 13.9034 17.0622 13.9133 17.0668L13.9205 17.0716C13.9347 17.0787 13.9489 17.0881 13.9655 17.0952C14.1573 17.1953 14.3705 17.248 14.587 17.2488C14.9475 17.2488 15.2795 17.0999 15.5476 16.8186L17.1889 15.1829C17.3075 15.0647 17.4925 14.9229 17.687 14.9229C17.8673 14.9229 18.0428 15.0623 18.1566 15.1805L18.1614 15.1852L20.8107 17.8256C21.0717 18.0856 21.2495 18.3929 20.7894 18.8751L20.787 18.8775C20.6423 19.0335 20.4882 19.1824 20.3245 19.3408C20.2889 19.3739 20.2534 19.4094 20.2178 19.4448C19.8857 19.7545 19.5679 20.0618 19.269 20.4164Z" fill="url(#paint0_linear_861_7646)"/>
<defs>
<linearGradient id="paint0_linear_861_7646" x1="16.294" y1="1.00002" x2="2.14805" y2="1.53948" gradientUnits="userSpaceOnUse">
<stop offset="0.0744166" stop-color="#6750FF"/>
<stop offset="1" stop-color="#B4F3C4"/>
</linearGradient>
</defs>
</svg>
