<svg width="24" height="24" viewBox="0 0 24 24" fill="none" xmlns="http://www.w3.org/2000/svg">
<path d="M20.7861 15.3952C20.2463 17.1811 19.1935 18.7615 17.7635 19.9329C16.3334 21.1044 14.5916 21.8131 12.7623 21.9678C10.933 22.1226 9.10017 21.7163 7.49978 20.8012C5.89938 19.8862 4.60479 18.5043 3.78276 16.8336L3.28952 18.0821C3.22809 18.2405 3.11036 18.3696 2.9597 18.4438C2.80905 18.518 2.63651 18.5317 2.47634 18.4824H2.42302C2.34077 18.4495 2.26575 18.4003 2.20234 18.3377C2.13893 18.275 2.08838 18.2002 2.05365 18.1175C2.01892 18.0348 2.00069 17.9458 2.00002 17.8559C1.99935 17.7659 2.01626 17.6768 2.04976 17.5935L3.17621 14.737C3.24277 14.5708 3.37133 14.4382 3.53373 14.3682C3.69614 14.2983 3.87916 14.2967 4.04271 14.3638H4.10936L6.74218 15.7819C6.89863 15.8665 7.01566 16.0109 7.06754 16.1833C7.11941 16.3557 7.10188 16.542 7.0188 16.7013C6.93571 16.8605 6.79388 16.9797 6.62451 17.0325C6.45513 17.0853 6.27209 17.0674 6.11564 16.9829L5.10917 16.4401C5.84821 17.8224 6.9717 18.9519 8.33876 19.6869C9.70582 20.4219 11.2556 20.7297 12.7938 20.5717C14.3321 20.4137 15.7902 19.797 16.9855 18.7989C18.1809 17.8008 19.0601 16.4657 19.513 14.9609C19.5375 14.8754 19.5784 14.7956 19.6332 14.7261C19.688 14.6566 19.7557 14.5988 19.8324 14.556C19.9092 14.5131 19.9935 14.4861 20.0805 14.4764C20.1675 14.4667 20.2555 14.4746 20.3395 14.4995C20.4236 14.5245 20.502 14.566 20.5702 14.6218C20.6385 14.6776 20.6953 14.7465 20.7373 14.8247C20.7794 14.9028 20.806 14.9886 20.8155 15.0772C20.825 15.1657 20.8173 15.2553 20.7928 15.3409L20.7861 15.3952ZM21.5793 6.45923C21.4158 6.3921 21.2327 6.39368 21.0703 6.46363C20.9079 6.53357 20.7794 6.66618 20.7128 6.83241L20.1996 8.14193C19.3739 6.47611 18.0779 5.09962 16.478 4.18927C14.878 3.27892 13.0472 2.87629 11.2208 3.03311C9.39438 3.18993 7.65572 3.89904 6.22817 5.06933C4.80063 6.23962 3.7494 7.81766 3.20954 9.60072C3.16629 9.767 3.1867 9.94379 3.26663 10.0953C3.34656 10.2469 3.48005 10.3619 3.64009 10.417C3.80014 10.4722 3.97479 10.4634 4.12873 10.3925C4.28267 10.3216 4.40439 10.1938 4.46929 10.035C4.91584 8.53747 5.78443 7.20637 6.96731 6.20677C8.15018 5.20716 9.59531 4.58304 11.1234 4.4118C12.6516 4.24056 14.1955 4.52976 15.5636 5.2435C16.9318 5.95725 18.064 7.06415 18.8198 8.4269L17.8867 7.91802C17.7348 7.85686 17.5661 7.85464 17.4126 7.91177C17.2592 7.9689 17.1317 8.0814 17.0544 8.22792C16.9771 8.37443 16.9553 8.54475 16.9933 8.70651C17.0312 8.86828 17.1262 9.01023 17.2601 9.10541L19.893 10.5235C20.0636 10.5974 20.2534 10.6117 20.4329 10.5642C20.5215 10.5317 20.6025 10.4804 20.6702 10.4138C20.738 10.3471 20.7912 10.2666 20.8261 10.1774L21.9526 7.34129C21.985 7.25843 22.0011 7.16987 21.9999 7.08068C21.9987 6.99148 21.9803 6.9034 21.9456 6.82147C21.911 6.73954 21.8608 6.66538 21.7979 6.60322C21.735 6.54106 21.6608 6.49214 21.5793 6.45923Z" fill="#212170" stroke="#212170" stroke-width="0.5"/>
</svg>
