<svg width="80" height="80" viewBox="0 0 80 80" fill="none" xmlns="http://www.w3.org/2000/svg">
<circle cx="40" cy="40" r="40" fill="white"/>
<path d="M41.5 31L33.5 40.5L38 41L43.5 35H50L56.5 44L61 40L55 31L51.5 32.5L47.5 31H41.5Z" fill="#D9D3FF"/>
<path d="M26 45.5L23 48.5L36 58L39.5 54L34 47.5L26 45.5Z" fill="#D9D3FF"/>
<path d="M24.5251 26.0097C24.1503 26.0519 23.8099 26.257 23.5874 26.5751L16.2568 37.013C15.8343 37.6169 15.9438 38.4631 16.5067 38.9266L22.0879 43.5802L21.7333 43.9492C20.341 45.4031 20.341 47.8013 21.7333 49.2551C22.627 50.1883 23.7469 50.5164 24.7953 50.4294C24.9405 51.037 25.2201 51.6124 25.67 52.0821C26.4375 52.8836 27.4907 53.2054 28.5022 53.0824C28.6486 53.7236 28.9556 54.361 29.4602 54.8879C30.4289 55.8994 31.7998 56.2237 33.022 55.8447C33.1969 56.2299 33.4254 56.5927 33.7301 56.9096C35.1224 58.3635 37.4192 58.3635 38.8115 56.9096L39.9992 55.6695L41.1868 56.9096C42.5791 58.3635 44.8759 58.3635 46.2682 56.9096C46.5717 56.5927 46.8014 56.2299 46.9763 55.8447C48.1997 56.22 49.5789 55.8894 50.5381 54.8879C51.0308 54.3734 51.3247 53.7521 51.4758 53.1259C52.5005 53.2476 53.5643 52.9022 54.3284 52.1032C54.7889 51.6223 55.0697 51.042 55.203 50.4294C56.2514 50.5164 57.3713 50.1871 58.265 49.2551C59.6609 47.7976 59.4705 45.536 58.3697 44.0797L57.9532 43.5354L63.4928 38.9253C64.0557 38.4619 64.1664 37.6156 63.7427 37.0117L56.4085 26.5751C55.9837 25.9662 55.1709 25.8208 54.5759 26.2495C53.3228 27.1293 51.8245 27.4014 50.6607 27.4014C49.4968 27.4014 48.7983 27.133 47.9533 26.7925C47.1084 26.4533 46.0659 26.0097 44.6629 26.0097C43.1028 26.0097 41.2451 26.3912 39.3315 27.5542C39.1983 27.6338 39.0781 27.7369 38.9781 27.8587L30.9811 37.6219C30.6693 37.9996 30.5729 38.5215 30.7312 38.9924C31.0334 39.9244 31.6701 40.5917 32.4591 41.1235C33.2481 41.6554 34.237 42.0157 35.333 42.0157C37.5322 42.0157 39.4148 40.7371 41.0178 39.3416C42.4578 38.0878 43.6109 36.7483 44.5368 35.753H48.6816L56.2836 45.7995C56.7358 46.3984 56.7644 46.9066 56.3883 47.2993C55.8088 47.9044 55.1471 47.7106 54.7223 47.3863C54.6437 47.3266 54.5604 47.2757 54.4723 47.2334C54.4343 47.185 54.4081 47.1278 54.3676 47.0806L51.0141 43.1664C50.7487 42.847 50.3572 42.6706 49.9514 42.688C49.429 42.7091 48.9649 43.0471 48.7673 43.5528C48.5698 44.0586 48.6745 44.6389 49.0351 45.0352L52.3886 48.9271C52.748 49.3459 52.748 49.7907 52.4302 50.1225C52.1113 50.4555 51.6305 50.463 51.3675 50.166L47.8272 46.1424C47.3274 45.5783 46.4825 45.5435 45.9422 46.0666C45.4019 46.5885 45.3686 47.4708 45.8696 48.0349L48.5769 51.1228C48.6055 51.1986 48.64 51.2719 48.6816 51.3402C48.828 51.6211 48.9375 51.9653 48.9315 52.2324C48.9256 52.4996 48.8673 52.6698 48.64 52.9072C48.4008 53.1569 47.5535 53.1582 47.369 52.9507L44.2666 49.4279C43.9917 49.1098 43.5931 48.942 43.1837 48.9706C42.6684 49.0079 42.2198 49.3521 42.0317 49.8553C41.8449 50.3586 41.952 50.9289 42.309 51.3191L44.6212 53.951C44.6272 53.9795 44.6343 54.0094 44.6415 54.0379C44.7105 54.3511 44.6379 54.694 44.3916 54.9513C44.0108 55.3489 43.4598 55.3489 43.079 54.9513L41.7045 53.516C42.2602 52.1467 41.9948 50.4915 40.9333 49.3844C40.4811 48.9122 39.9301 48.5953 39.3506 48.4276C39.3839 47.4347 39.0614 46.4307 38.3307 45.6653C37.5394 44.8389 36.5623 44.4798 35.6234 44.4699C35.4532 44.4674 35.2914 44.4723 35.1236 44.4922C34.9629 43.9703 34.7047 43.4671 34.312 43.057C33.0494 41.7399 31.0096 41.6802 29.6673 42.8619C29.5031 42.4618 29.2722 42.0791 28.939 41.7312C28.2428 41.0042 27.3217 40.6439 26.3983 40.6439C25.5295 40.6439 24.662 40.9583 23.9825 41.6007L19.1724 37.6007L25.1285 29.1199C26.6101 29.8332 28.1214 30.1848 29.3353 30.1848C30.7728 30.1848 31.8641 29.8394 32.709 29.5101C33.5539 29.1808 34.1263 28.9248 34.813 28.8354C35.5484 28.7397 36.0708 28.0389 35.9792 27.2697C35.8876 26.5005 35.2164 25.9562 34.4798 26.0519C33.3445 26.1986 32.5067 26.6136 31.7724 26.8994C31.0382 27.1852 30.3932 27.3989 29.3353 27.3989C28.1714 27.3989 26.6732 27.1268 25.42 26.247C25.1582 26.0581 24.8405 25.9736 24.5251 26.0072V26.0097ZM44.6629 28.7931C45.5483 28.7931 46.11 29.0466 46.9954 29.402C47.8807 29.7574 49.0541 30.1848 50.6607 30.1848C51.8745 30.1848 53.3858 29.8332 54.8674 29.1199L60.8236 37.6007L56.3038 41.3621L50.3679 33.4902C50.1156 33.1596 49.7324 32.9683 49.3266 32.9683H43.9953C43.643 32.9708 43.3063 33.1199 43.0575 33.3808C42.0055 34.4793 40.7036 35.994 39.3089 37.2081C37.9142 38.4221 36.4636 39.231 35.3306 39.231C34.8249 39.231 34.312 39.0422 33.9145 38.7737C33.8015 38.6967 33.8122 38.6619 33.7277 38.5787L40.831 29.9028C42.2566 29.0777 43.5538 28.7944 44.6629 28.7944V28.7931ZM26.4197 43.3838C26.6529 43.3838 26.8755 43.4894 27.0659 43.6883C27.2396 43.8697 27.3324 44.1493 27.3372 44.6016V45.2763L25.6711 47.016C25.5878 47.1029 25.5141 47.1837 25.4415 47.2769C25.3832 47.308 25.3272 47.3453 25.2749 47.3863C24.85 47.7106 24.1884 47.9044 23.6088 47.2993C23.228 46.9016 23.228 46.3276 23.6088 45.9299L25.7544 43.6907C25.9448 43.4919 26.1876 43.3863 26.4209 43.3863L26.4197 43.3838ZM31.8974 44.7755C32.0902 44.7755 32.2794 44.87 32.4389 45.0365C32.7578 45.3695 32.7578 45.8342 32.4389 46.1673L28.6486 50.125C28.3297 50.458 27.8846 50.458 27.5657 50.125C27.2467 49.792 27.2467 49.3272 27.5657 48.9942L31.3357 45.0365C31.4952 44.87 31.7058 44.7755 31.8986 44.7755H31.8974ZM35.5211 47.2111C35.8138 47.1986 36.1339 47.3067 36.4374 47.6236C36.6873 47.8846 36.6873 48.6898 36.4374 48.9507L32.6471 52.9084C32.4067 53.1594 31.5951 53.1594 31.3559 52.9084C31.1286 52.6711 31.0703 52.5008 31.0644 52.2337C31.0584 51.9665 31.1679 51.6223 31.3143 51.3415C31.3381 51.2992 31.3583 51.2557 31.3774 51.211L34.3144 48.1455C34.4964 47.9541 34.6392 47.7342 34.7725 47.5143C34.9617 47.3564 35.2295 47.2222 35.5222 47.2098L35.5211 47.2111ZM38.4152 51.0607C38.6461 51.0631 38.8758 51.1501 39.0614 51.3427C39.4089 51.7056 39.4315 52.215 39.1447 52.604C39.0317 52.6947 38.9329 52.8053 38.8531 52.9295L36.917 54.9513C36.5362 55.3489 35.9852 55.3489 35.6044 54.9513C35.358 54.694 35.2854 54.3511 35.3544 54.0379L38.1867 51.0805C38.2617 51.0619 38.3391 51.0582 38.4164 51.0582L38.4152 51.0607Z" fill="#212170"/>
</svg>
