<svg width="80" height="80" viewBox="0 0 80 80" fill="none" xmlns="http://www.w3.org/2000/svg">
<circle cx="40" cy="40" r="40" fill="white"/>
<circle cx="45" cy="47" r="14" fill="#D9D3FF"/>
<path d="M40 26.7109V26.7021H39.5C31.0226 26.7021 24.1932 33.6461 24.1932 42.2339C24.1932 50.8215 31.0225 57.7664 39.5 57.7664C47.9774 57.7664 54.8068 50.8223 54.8068 42.2346C54.8068 33.8164 48.2444 26.9776 40 26.7109ZM22.5 42.2346C22.5 32.7074 30.1336 24.9688 39.5 24.9688C48.8664 24.9688 56.5 32.7074 56.5 42.2346C56.5 51.7619 48.8664 59.5005 39.5 59.5005C30.1336 59.5005 22.5 51.7619 22.5 42.2346Z" fill="#212170" stroke="#212170"/>
<path d="M33.3826 19.9309L33.3829 19.9303C33.5352 19.6623 33.8157 19.5 34.1144 19.5H44.8871C45.1863 19.5 45.4664 19.6619 45.6184 19.93L45.6189 19.9309C45.7722 20.1997 45.7724 20.5325 45.6188 20.8026C45.4655 21.0715 45.1853 21.2333 44.8871 21.2333H34.1144C33.8157 21.2333 33.5352 21.071 33.3829 20.803L33.3826 20.8024C33.2292 20.5334 33.2292 20.1999 33.3826 19.9309Z" fill="#212170" stroke="#212170"/>
<path d="M46.2602 47.7073C46.2663 48.0775 46.124 48.4336 45.8663 48.6952C45.6086 48.9568 45.2578 49.1005 44.8932 49.095M46.2602 47.7073L39.4806 29.9148L39.4883 30.414C39.4882 30.414 39.4882 30.414 39.4881 30.414C39.4763 30.4142 39.4644 30.4146 39.4526 30.4153M46.2602 47.7073C46.2548 47.3371 46.1009 46.9849 45.8355 46.7319L46.2602 47.7073ZM44.8932 49.095L44.9007 48.5951C44.9007 48.5951 44.9007 48.5951 44.9007 48.5951M44.8932 49.095C44.5293 49.0896 44.1824 48.9334 43.9331 48.6639L38.9035 42.8509L44.2892 48.3129L44.2948 48.3186L44.3002 48.3244C44.4578 48.4949 44.6755 48.5917 44.9007 48.5951M44.8932 49.095L44.9007 48.5951M44.9007 48.5951C45.1284 48.5985 45.3479 48.509 45.5101 48.3443C45.6731 48.1788 45.7642 47.9523 45.7602 47.7156L45.7602 47.7146C45.7568 47.4779 45.6582 47.2537 45.4905 47.0938L45.4848 47.0883L45.4793 47.0828L40.4906 42.0183L40.3468 41.8723V41.6674V31.2963V31.2911L40.3469 31.2911C40.3493 31.0543 40.2579 30.8289 40.0955 30.6651L40.095 30.6645C39.9331 30.5007 39.714 30.4114 39.4881 30.4148L39.4526 30.4153M39.4526 30.4153C39.2438 30.4275 39.0451 30.5186 38.897 30.6731C38.7393 30.8376 38.6514 31.0593 38.6544 31.29L38.6544 31.2963H38.6544V42.2328V42.2339C38.6539 42.4671 38.7443 42.6885 38.9031 42.8505L38.1544 31.2963C38.1498 30.9348 38.2875 30.5865 38.536 30.3272C38.6635 30.1941 38.8151 30.0903 38.9806 30.02V30.4224L39.4526 30.4153Z" fill="#212170" stroke="#212170"/>
</svg>
