<svg width="24" height="24" viewBox="0 0 24 24" fill="none" xmlns="http://www.w3.org/2000/svg">
<path fill-rule="evenodd" clip-rule="evenodd" d="M7.55544 18.6518C8.87104 19.5308 10.4178 20 12 20C14.1217 20 16.1566 19.1571 17.6569 17.6569C19.1571 16.1566 20 14.1217 20 12C20 10.4178 19.5308 8.87104 18.6518 7.55544C17.7727 6.23985 16.5233 5.21447 15.0615 4.60897C13.5997 4.00347 11.9911 3.84504 10.4393 4.15372C8.88743 4.4624 7.46197 5.22433 6.34315 6.34315C5.22433 7.46197 4.4624 8.88743 4.15372 10.4393C3.84504 11.9911 4.00347 13.5997 4.60897 15.0615C5.21447 16.5233 6.23985 17.7727 7.55544 18.6518ZM8.44435 6.6786C9.49683 5.97536 10.7342 5.6 12 5.6C13.6974 5.6 15.3253 6.27429 16.5255 7.47452C17.7257 8.67475 18.4 10.3026 18.4 12C18.4 13.2658 18.0246 14.5032 17.3214 15.5557C16.6182 16.6081 15.6186 17.4284 14.4492 17.9128C13.2797 18.3972 11.9929 18.524 10.7514 18.277C9.50995 18.0301 8.36958 17.4205 7.47452 16.5255C6.57946 15.6304 5.96992 14.4901 5.72298 13.2486C5.47603 12.0071 5.60277 10.7203 6.08717 9.55083C6.57158 8.38138 7.39188 7.38184 8.44435 6.6786ZM12 12.7997H15.8C16.0122 12.7997 16.2157 12.7154 16.3657 12.5653C16.5157 12.4153 16.6 12.2118 16.6 11.9997C16.6 11.7875 16.5157 11.584 16.3657 11.434C16.2157 11.2839 16.0122 11.1997 15.8 11.1997H12.8V8.04766C12.8 7.83548 12.7157 7.632 12.5657 7.48197C12.4157 7.33194 12.2122 7.24766 12 7.24766C11.7878 7.24766 11.5843 7.33194 11.4343 7.48197C11.2843 7.632 11.2 7.83548 11.2 8.04766V11.9997C11.2 12.2118 11.2843 12.4153 11.4343 12.5653C11.5843 12.7154 11.7878 12.7997 12 12.7997Z" fill="#212170"/>
</svg>
