<svg width="80" height="80" viewBox="0 0 80 80" fill="none" xmlns="http://www.w3.org/2000/svg">
<circle cx="40" cy="40" r="40" fill="white"/>
<circle cx="45.5" cy="29.5" r="7.5" fill="#D9D3FF"/>
<path d="M27.3333 59.9992H23.6667C22.6945 59.9977 21.7621 59.5688 21.0756 58.805C20.3876 58.0427 20.0014 57.0074 20 55.928V45.0713C20.0014 43.9918 20.3876 42.9565 21.0756 42.1935C21.7628 41.4304 22.6952 41.0008 23.6667 41H27.3333C28.3055 41.0016 29.2379 41.4304 29.9244 42.1935C30.6117 42.9565 30.9986 43.9918 31 45.0713V55.928C30.9986 57.0074 30.6124 58.0427 29.9244 58.8058C29.2372 59.5688 28.3048 59.9984 27.3333 60V59.9992ZM23.6667 43.7142C23.3426 43.7142 23.0318 43.8576 22.8027 44.112C22.5737 44.3664 22.4451 44.7114 22.4444 45.0713V55.928C22.4444 56.2878 22.5737 56.6329 22.8027 56.8872C23.0318 57.1416 23.3426 57.2843 23.6667 57.285H27.3333C27.6574 57.285 27.9682 57.1416 28.1973 56.8872C28.4263 56.6329 28.5549 56.2878 28.5556 55.928V45.0713C28.5556 44.7114 28.4263 44.3664 28.1973 44.112C27.9682 43.8576 27.6574 43.715 27.3333 43.7142H23.6667Z" fill="#212170"/>
<path d="M43.7101 58H34.768C34.0563 58 33.3586 57.801 32.7527 57.4252L29.6147 55.4846C29.2331 55.2484 29 54.8288 29 54.3766V46.4568C29 46.0127 29.2257 45.5991 29.597 45.3599L32.8248 43.2872C33.4438 42.8898 34.1622 42.6789 34.8952 42.6789H44.4402C45.2049 42.6797 45.9526 42.9099 46.5879 43.3391C47.2231 43.7691 47.718 44.3796 48.0099 45.0941L52.6103 40.9537C53.6522 40.041 55.0969 39.7588 56.4005 40.214C57.7041 40.6685 58.668 41.7922 58.9298 43.1594C59.1915 44.5267 58.7107 45.9325 57.6688 46.8445L46.2659 57.0197C45.5607 57.6502 44.6512 57.9985 43.7094 57.9985H43.7087L43.7101 58ZM31.5734 53.648L34.0953 55.2091C34.2975 55.3346 34.5298 55.4007 34.7673 55.4007H43.7094C44.0233 55.4007 44.3263 55.2833 44.5615 55.0732L55.9763 44.8883C56.238 44.6648 56.4005 44.3455 56.4285 44.0001C56.4564 43.6555 56.3468 43.3132 56.1241 43.0495C55.9013 42.7866 55.5844 42.6232 55.2425 42.5972C54.9014 42.5683 54.5639 42.6811 54.3065 42.9091L47.1783 49.3235C46.4548 50.0624 45.4688 50.4776 44.4402 50.4769H38.0068C37.5473 50.4769 37.1223 50.2288 36.8922 49.827C36.662 49.4252 36.6628 48.9291 36.8922 48.5274C37.1216 48.1256 37.5465 47.8775 38.0068 47.8775H44.4402C44.7049 47.8775 44.963 47.7951 45.1792 47.6414L45.4005 47.4423C45.6218 47.1913 45.7387 46.8638 45.7262 46.5281C45.7137 46.1924 45.5725 45.8746 45.3328 45.6414C45.0931 45.4082 44.7733 45.2782 44.4402 45.2782H34.8952C34.6497 45.2782 34.4092 45.3495 34.2019 45.4825L31.5734 47.169V53.6473V53.648Z" fill="#212170"/>
<path d="M41.5 40C38.7153 40 36.0445 38.8938 34.075 36.925C32.1063 34.9555 31 32.2848 31 29.5C31 26.7153 32.1063 24.0445 34.075 22.075C36.0445 20.1063 38.7153 19 41.5 19C44.2848 19 46.9555 20.1063 48.925 22.075C50.8938 24.0445 52 26.7153 52 29.5C51.997 32.284 50.89 34.9525 48.9213 36.9213C46.9525 38.89 44.284 39.997 41.5 40ZM41.5 21.625C39.4113 21.625 37.4088 22.4545 35.9313 23.9313C34.4545 25.408 33.625 27.4113 33.625 29.5C33.625 31.5888 34.4545 33.5913 35.9313 35.0688C37.408 36.5463 39.4113 37.375 41.5 37.375C43.5888 37.375 45.5913 36.5455 47.0688 35.0688C48.5463 33.592 49.375 31.5888 49.375 29.5C49.3728 27.412 48.5425 25.4103 47.0658 23.9343C45.5898 22.4575 43.588 21.6273 41.5 21.625Z" fill="#212170"/>
<path d="M41.6545 25C41.4787 25.0023 41.3109 25.0642 41.1883 25.1723C41.0657 25.2804 40.9978 25.4257 41.0001 25.5765V30.1379C40.9997 30.2893 41.0691 30.4346 41.1937 30.5418L43.8516 32.8201C43.9746 32.9325 44.1458 32.9977 44.3254 32.9999C44.5053 33.0022 44.6784 32.9423 44.8056 32.8332C44.9327 32.7241 45.0029 32.5755 44.9999 32.4211C44.9972 32.2667 44.9213 32.1198 44.7904 32.0143L42.3287 29.902V25.5765C42.3306 25.4228 42.2603 25.2749 42.1332 25.1664C42.0064 25.058 41.8337 24.998 41.6545 25.0003V25Z" fill="#212170" stroke="#212170"/>
</svg>
