<svg width="80" height="80" viewBox="0 0 80 80" fill="none" xmlns="http://www.w3.org/2000/svg">
<circle cx="40" cy="40" r="40" fill="white"/>
<rect x="26" y="30" width="21" height="18" fill="#D9D3FF"/>
<path fill-rule="evenodd" clip-rule="evenodd" d="M57.7 18H31.6707C29.8308 18 28.0662 18.7467 26.7652 20.0758C25.4642 21.4049 24.7333 23.2075 24.7333 25.0871V49.5536H20.4333C20.0532 49.5536 19.6886 49.7078 19.4198 49.9825C19.151 50.2571 19 50.6295 19 51.0179V54.9129C18.9993 56.76 19.7046 58.5343 20.9656 59.8581C22.2266 61.1819 23.9436 61.9504 25.751 62H49.3293C51.1692 62 52.9338 61.2533 54.2348 59.9242C55.5358 58.5951 56.2667 56.7925 56.2667 54.9129V30.4464H60.5667C60.9468 30.4464 61.3114 30.2922 61.5802 30.0175C61.849 29.7429 62 29.3705 62 28.9821V22.3929C62 21.2278 61.547 20.1105 60.7406 19.2866C59.9342 18.4628 58.8404 18 57.7 18ZM41.9333 52.4821H21.8667V54.9129C21.8667 56.0158 22.2955 57.0735 23.0589 57.8534C23.8223 58.6333 24.8577 59.0714 25.9373 59.0714H43.252C42.3927 57.8627 41.931 56.4067 41.9333 54.9129V52.4821ZM53.6437 20.9286H31.6707C30.5911 20.9286 29.5557 21.3667 28.7923 22.1466C28.0289 22.9265 27.6 23.9842 27.6 25.0871V49.5536H43.7967C44.0867 49.6468 44.3402 49.8317 44.5206 50.0818C44.7009 50.3319 44.7988 50.634 44.8 50.9446V54.8396C44.7905 55.3919 44.8887 55.9405 45.089 56.4536C45.2893 56.9666 45.5877 57.4337 45.9666 57.8276C46.3456 58.2216 46.7976 58.5345 47.2962 58.748C47.7948 58.9616 48.33 59.0715 48.8707 59.0714H49.3293C50.4089 59.0714 51.4443 58.6333 52.2077 57.8534C52.9711 57.0735 53.4 56.0158 53.4 54.9129V22.3929C53.4017 21.8944 53.484 21.3996 53.6437 20.9286ZM30.4667 45.3571H50.5333C50.9135 45.3571 51.278 45.2029 51.5469 44.9283C51.8157 44.6537 51.9667 44.2812 51.9667 43.8929V26.3214C51.9667 25.9331 51.8157 25.5606 51.5469 25.286C51.278 25.0114 50.9135 24.8571 50.5333 24.8571H30.4667C30.0865 24.8571 29.7219 25.0114 29.4531 25.286C29.1843 25.5606 29.0333 25.9331 29.0333 26.3214V43.8929C29.0333 44.2812 29.1843 44.6537 29.4531 44.9283C29.7219 45.2029 30.0865 45.3571 30.4667 45.3571ZM46.2333 42.4286H49.1V27.7857H31.9V42.4286H34.7667V38.7679C34.7667 38.3795 34.9177 38.0071 35.1865 37.7325C35.4553 37.4578 35.8199 37.3036 36.2 37.3036C36.5801 37.3036 36.9447 37.4578 37.2135 37.7325C37.4823 38.0071 37.6333 38.3795 37.6333 38.7679V42.4286H39.0667V35.8393C39.0667 35.4509 39.2177 35.0785 39.4865 34.8039C39.7553 34.5293 40.1199 34.375 40.5 34.375C40.8801 34.375 41.2447 34.5293 41.5135 34.8039C41.7823 35.0785 41.9333 35.4509 41.9333 35.8393V42.4286H43.3667V37.3036C43.3667 36.9152 43.5177 36.5428 43.7865 36.2682C44.0553 35.9936 44.4199 35.8393 44.8 35.8393C45.1801 35.8393 45.5447 35.9936 45.8135 36.2682C46.0823 36.5428 46.2333 36.9152 46.2333 37.3036V42.4286ZM34.9387 37.1279L40.672 32.4714L44.8 34.9168C45.0278 35.0622 45.291 35.1394 45.5597 35.1394C45.8283 35.1394 46.0915 35.0622 46.3193 34.9168L47.7527 33.9357C48.0758 33.7299 48.3056 33.4014 48.3917 33.0224C48.4777 32.6434 48.4128 32.2451 48.2113 31.915C48.0099 31.5849 47.6883 31.3501 47.3173 31.2622C46.9464 31.1743 46.5565 31.2406 46.2333 31.4464L45.531 31.9296L41.231 29.4404C40.9813 29.2955 40.6947 29.2306 40.4085 29.2541C40.1223 29.2776 39.8495 29.3884 39.6257 29.5721L33.1757 34.8436C33.0104 34.9558 32.8697 35.1019 32.7626 35.2726C32.6554 35.4433 32.5841 35.6348 32.5533 35.8351C32.5224 36.0354 32.5325 36.2401 32.5831 36.4362C32.6337 36.6322 32.7236 36.8154 32.8471 36.9742C32.9706 37.1329 33.125 37.2637 33.3006 37.3583C33.4761 37.4528 33.669 37.5091 33.867 37.5236C34.065 37.538 34.2637 37.5103 34.4507 37.4422C34.6376 37.3741 34.8087 37.267 34.953 37.1279H34.9387ZM56.2667 27.5179V22.3929C56.2656 22.2001 56.3017 22.0091 56.3731 21.8307C56.4444 21.6523 56.5495 21.49 56.6823 21.3532C56.8163 21.2175 56.9751 21.1101 57.1497 21.0373C57.3244 20.9644 57.5114 20.9275 57.7 20.9286C58.0801 20.9286 58.4447 21.0828 58.7135 21.3575C58.9823 21.6321 59.1333 22.0045 59.1333 22.3929V27.5179H56.2667Z" fill="#212170"/>
</svg>
