<?xml version="1.0" encoding="UTF-8"?>
<svg version="1.1" xmlns="http://www.w3.org/2000/svg" xmlns:xlink="http://www.w3.org/1999/xlink">
<defs>
<clipPath id="clip0_859_18301"><path fill="#fff" transform="translate(19 19)" d="M0 0h43v42.02H0z"/></clipPath>
<linearGradient id="paint0_linear_861_7641" x1="15.513" y1="0" x2="3.932" y2=".331" gradientUnits="userSpaceOnUse"><stop offset=".074" stop-color="#6750FF"/><stop offset="1" stop-color="#B4F3C4"/></linearGradient><clipPath id="clip0_861_7641"><path fill="#fff" d="M0 0h24v24H0z"/></clipPath>
<linearGradient id="paint0_linear_861_7646" x1="16.294" y1="1" x2="2.148" y2="1.539" gradientUnits="userSpaceOnUse"><stop offset=".074" stop-color="#6750FF"/><stop offset="1" stop-color="#B4F3C4"/></linearGradient>
</defs>
<symbol id="i-component-3" viewBox="0 0 12 12" fill="none" xmlns="http://www.w3.org/2000/svg"><circle cx="6" cy="6" r="4" fill="#212170"/></symbol>
<symbol id="i-include" viewBox="0 0 24 24" fill="none" xmlns="http://www.w3.org/2000/svg"><circle cx="12" cy="12" r="12" fill="#09DA90"/><path d="M7 12.306L10.8 16 18 9" stroke="#fff" stroke-width="2" stroke-linecap="round"/></symbol>
<symbol id="i-non-include" viewBox="0 0 24 24" fill="none" xmlns="http://www.w3.org/2000/svg"><circle cx="12" cy="12" r="12" fill="#E30A4C"/><path d="M8.047 16l8.378-8M16.426 16L8.048 8" stroke="#fff" stroke-width="2" stroke-linecap="round"/></symbol>
<symbol id="i-star-filled" viewBox="0 0 13 13" fill="none" xmlns="http://www.w3.org/2000/svg"><path d="M6.316.684l1.418 4.364h4.588L8.61 7.745l1.418 4.364-3.712-2.697-3.713 2.697 1.418-4.364L.31 5.048h4.589L6.316.684z" fill="#000"/></symbol>
<symbol id="i-star" viewBox="0 0 13 13" fill="none" xmlns="http://www.w3.org/2000/svg"><path d="M6.683.684l1.418 4.364h4.589L8.977 7.745l1.418 4.364-3.712-2.697-3.712 2.697 1.418-4.364L.676 5.048h4.589L6.683.684z" fill="#C4C4C4"/></symbol>
<symbol id="i-active" viewBox="0 0 14 14" fill="none" xmlns="http://www.w3.org/2000/svg"><circle cx="7" cy="7" r="7" fill="#F9F9FB"/><circle cx="7" cy="7" r="4" fill="#09DA90"/></symbol>
<symbol id="i-akaryak-t" viewBox="0 0 80 80" fill="none" xmlns="http://www.w3.org/2000/svg"><circle cx="40" cy="40" r="40" fill="#fff"/><path opacity=".2" fill="#6750FF" d="M31 28h19v16H31z"/><path fill-rule="evenodd" clip-rule="evenodd" d="M47.407 20H26.96A3.965 3.965 0 0023 23.959v35.118a.924.924 0 00.923.923h26.52a.923.923 0 00.923-.923V38.772h2.974a2 2 0 011.998 1.998v2.77a4.331 4.331 0 108.662 0V30.795a5.318 5.318 0 00-1.399-3.58l-4.191-5.018a.924.924 0 00-1.417 1.185l2.93 3.508a4.331 4.331 0 102.233 7.435v9.217a2.484 2.484 0 01-3.447 2.34 2.487 2.487 0 01-1.523-2.34v-2.77a3.849 3.849 0 00-3.846-3.848h-2.974V23.96A3.963 3.963 0 0047.407 20zM60.2 33.645a2.486 2.486 0 112.484-2.486 2.493 2.493 0 01-2.484 2.486zM49.52 58.153H24.847V23.96a2.116 2.116 0 012.113-2.113h20.447a2.115 2.115 0 012.113 2.113v34.195zm-3.119-33.4H27.966a.923.923 0 00-.923.924v14.218a.923.923 0 00.923.924h18.435a.923.923 0 00.923-.924V25.677a.924.924 0 00-.923-.923zm-.923 14.22H28.89V26.6h16.588v12.372zm-8.383-2.417h-.03a3.35 3.35 0 01-2.385-.985 3.384 3.384 0 010-4.782l1.723-1.722a.923.923 0 011.306 0l1.722 1.722a3.385 3.385 0 01.005 4.776 3.273 3.273 0 01-2.34.99zm-.04-5.53l-1.07 1.07a1.555 1.555 0 000 2.168 1.517 1.517 0 001.082.445h.013a1.437 1.437 0 001.045-.444 1.554 1.554 0 000-2.17l-1.07-1.07z" fill="#212170"/></symbol>
<symbol id="i-approve" viewBox="0 0 80 80" fill="none" xmlns="http://www.w3.org/2000/svg"><circle cx="40" cy="40" r="40" fill="#fff"/><circle cx="40" cy="43" r="10" fill="#D9D3FF"/><path d="M38.408 44.968l-2.25-2.308a1.045 1.045 0 00-1.53 0 1.095 1.095 0 000 1.553l3.015 3.092c.098.101.207.187.337.246.132.06.273.087.428.087.232 0 .548-.11.766-.332h0l7.372-7.561c.43-.441.43-1.11 0-1.552a1.045 1.045 0 00-1.531 0l-6.607 6.775zm1.686-30.218h0-.01c-2.223 0-4.279 1.366-5.114 3.437h-.248c-1.394 0-2.595 1.142-2.595 2.655v.524h-3.436c-2.741 0-4.941 2.265-4.941 5.06V60.19c0 2.795 2.2 5.061 4.94 5.061h22.62c2.74 0 4.94-2.266 4.94-5.06V26.425v0c0-2.798-2.202-5.061-5.025-5.061H47.79v-.524c0-1.414-1.105-2.655-2.595-2.655h-.248a5.417 5.417 0 00-4.852-3.436zm2.369 3.436h-4.92c.625-.794 1.517-1.215 2.532-1.218.944.071 1.82.498 2.388 1.218zm-7.74 6.272a.42.42 0 01-.42-.437v-3.179c0-.232.164-.437.42-.437h10.555c.211 0 .42.16.42.437v3.179c0 .232-.165.437-.42.437H34.722zm16.586-.874c1.531 0 2.766 1.256 2.766 2.842V60.19c0 1.586-1.235 2.843-2.766 2.843H28.691c-1.531 0-2.766-1.257-2.766-2.843V26.425c0-1.586 1.235-2.843 2.766-2.843h3.436v.524c0 1.415 1.105 2.656 2.595 2.656h10.556c1.394 0 2.595-1.143 2.595-2.655v-.523h3.436z" fill="#212170" stroke="#212170" stroke-width=".5"/></symbol>
<symbol id="i-art-" viewBox="0 0 26 26" fill="none" xmlns="http://www.w3.org/2000/svg"><path d="M1 13h24M13 1v24" stroke="#212170" stroke-width="2" stroke-linecap="round"/></symbol>
<symbol id="i-burger" viewBox="0 0 28 24" fill="none" xmlns="http://www.w3.org/2000/svg"><path d="M2 4h24M2 11.5h24M2 19h24" stroke="#212170" stroke-width="3" stroke-linecap="round" stroke-linejoin="bevel"/></symbol>
<symbol id="i-category-notification" viewBox="0 0 80 80" fill="none" xmlns="http://www.w3.org/2000/svg"><circle cx="40" cy="40" r="40" fill="#fff"/><circle opacity=".25" cx="54.5" cy="31.5" r="5.5" fill="#09DA90"/><path d="M29.38 53.989h20.878a4.182 4.182 0 004.175-4.175V38.678a1.394 1.394 0 00-2.087-1.206c-.43.248-.696.708-.696 1.206v11.134a1.392 1.392 0 01-1.392 1.392H29.381a1.392 1.392 0 01-1.392-1.392V30.328a1.392 1.392 0 011.392-1.392h12.526a1.394 1.394 0 001.206-2.088 1.392 1.392 0 00-1.206-.696H29.381a4.177 4.177 0 00-2.951 1.225 4.176 4.176 0 00-1.225 2.95v19.486a4.18 4.18 0 004.176 4.176z" fill="#212170"/><path d="M23.675 59.694h20.878a4.182 4.182 0 004.175-4.175V53.51a1.394 1.394 0 00-2.087-1.206c-.43.248-.696.708-.696 1.206v2.008a1.392 1.392 0 01-1.392 1.391H23.676a1.392 1.392 0 01-1.392-1.391V36.032a1.392 1.392 0 011.392-1.392h2.258a1.394 1.394 0 001.206-2.088 1.392 1.392 0 00-1.206-.696h-2.259a4.177 4.177 0 00-2.95 1.225 4.177 4.177 0 00-1.225 2.95V55.52a4.18 4.18 0 004.175 4.175zM53.041 20.586a6.958 6.958 0 106.96 6.96 6.964 6.964 0 00-6.96-6.96zm0 11.135a4.172 4.172 0 01-4.175-4.176 4.174 4.174 0 014.175-4.175 4.174 4.174 0 012.95 7.126 4.183 4.183 0 01-2.95 1.225zM32.164 34.504h6.959a1.394 1.394 0 001.206-2.087 1.392 1.392 0 00-1.206-.696h-6.96a1.394 1.394 0 00-1.205 2.087c.248.43.708.696 1.206.696z" fill="#212170"/><path d="M30.771 38.679a1.394 1.394 0 001.392 1.392H44.69a1.394 1.394 0 001.206-2.088 1.392 1.392 0 00-1.206-.696H32.163a1.388 1.388 0 00-1.392 1.392z" fill="#212170"/></symbol>
<symbol id="i-checkbox-1" viewBox="0 0 20 20" fill="none" xmlns="http://www.w3.org/2000/svg"><rect width="20" height="20" rx="4" fill="#09DA90"/><path d="M5 10.306L8.8 14 16 7" stroke="#fff" stroke-width="2" stroke-linecap="round"/></symbol>
<symbol id="i-checkbox" viewBox="0 0 20 20" fill="none" xmlns="http://www.w3.org/2000/svg"><rect x=".5" y=".5" width="19" height="19" rx="3.5" fill="#fff" stroke="#ECECEC"/></symbol>
<symbol id="i-chevronleft" viewBox="0 0 13 22" fill="none" xmlns="http://www.w3.org/2000/svg"><path d="M11 20l-9-9 9-9" stroke="#212170" stroke-width="3" stroke-linecap="round" stroke-linejoin="round"/></symbol>
<symbol id="i-chevronright" viewBox="0 0 13 22" fill="none" xmlns="http://www.w3.org/2000/svg"><path d="M2 2l9 9-9 9" stroke="#212170" stroke-width="3" stroke-linecap="round" stroke-linejoin="round"/></symbol>
<symbol id="i-close" viewBox="0 0 24 24" fill="none" xmlns="http://www.w3.org/2000/svg"><path d="M3.516 4.016l16.97 16.97M3.516 20.984l16.97-16.97" stroke="#212170" stroke-width="3" stroke-linecap="round" stroke-linejoin="bevel"/></symbol>
<symbol id="i-draft" viewBox="0 0 80 80" fill="none" xmlns="http://www.w3.org/2000/svg"><circle cx="40" cy="40" r="40" fill="#fff"/><path d="M53 45L40 58v5h5l13-13-5-5z" fill="#D9D3FF"/><path d="M23.5 23a1.5 1.5 0 00-1.5 1.5v33a1.502 1.502 0 001.5 1.5h9.847a1.5 1.5 0 100-3H25V26h30v9.228a1.5 1.5 0 103 0V24.5a1.502 1.502 0 00-1.5-1.5h-33z" fill="#212170"/><path d="M53.112 38.848c-.389.006-.76.164-1.037.439l-13.79 13.79a1.506 1.506 0 00-.44 1.06v6.364a1.504 1.504 0 001.5 1.5h6.367c.397 0 .779-.158 1.06-.44l13.787-13.787a1.5 1.5 0 000-2.124l-6.363-6.363a1.497 1.497 0 00-1.085-.44h.001zm.024 3.621l4.242 4.242-12.29 12.29h-4.241v-4.242l12.29-12.29zM34 34a2.002 2.002 0 01-3.414 1.414A2 2 0 1134 34zM37.52 35.5H49.48c2.028.03 2.028-3.029 0-3H37.52A1.499 1.499 0 0036 34.015a1.503 1.503 0 001.52 1.485zM37.52 41.5h5.209c2.028.03 2.028-3.029 0-3H37.52A1.499 1.499 0 0036 40.015a1.503 1.503 0 001.52 1.485zM34 40a2.002 2.002 0 01-2 2 2.002 2.002 0 01-2-2 2.002 2.002 0 012-2 2.002 2.002 0 012 2z" fill="#212170"/></symbol>
<symbol id="i-drop-down-icon" viewBox="0 0 24 24" fill="none" xmlns="http://www.w3.org/2000/svg"><path d="M21 7l-9 9-9-9" stroke="#212170" stroke-width="3" stroke-linecap="round" stroke-linejoin="round"/></symbol>
<symbol id="i-dropdown" viewBox="0 0 24 24" fill="none" xmlns="http://www.w3.org/2000/svg"><path d="M12 16.363L6.33 9.818h11.338L12 16.363z" fill="#212170"/></symbol>
<symbol id="i-easy" viewBox="0 0 80 80" fill="none" xmlns="http://www.w3.org/2000/svg"><circle cx="40" cy="40" r="40" fill="#fff"/><path d="M56 54.727L36 40v24.546l6.875-6.75 5 9.204 4.375-2.454-4.375-8.592L56 54.728z" fill="#D9D3FF"/><path d="M48.787 63.538a1.21 1.21 0 01-1.08-.667l-2.477-4.933-5.22 5.246a1.204 1.204 0 01-2.07-.85V35.036a1.205 1.205 0 011.938-.955l20.873 16.056a1.205 1.205 0 01-.498 2.136l-6.475 1.29 2.51 5.017a1.205 1.205 0 01-.538 1.605l-6.423 3.212c-.167.09-.352.138-.542.14h.002zm-3.212-8.831a1 1 0 01.193 0c.383.061.713.303.887.65l2.669 5.371 4.275-2.14-2.678-5.359a1.204 1.204 0 01.843-1.734l5.435-1.088-16.85-12.96v21.98l4.371-4.37c.227-.225.532-.35.852-.35h.004z" fill="#212170" stroke="#212170" stroke-width=".5"/><path d="M30.046 43.782a1.205 1.205 0 01-.57-2.268l2.745-1.473a1.205 1.205 0 011.136 2.123l-2.745 1.474a1.196 1.196 0 01-.566.144zM47.443 34.454a1.206 1.206 0 01-.57-2.267l2.745-1.473a1.205 1.205 0 111.14 2.123l-2.75 1.473a1.212 1.212 0 01-.566.145zM36.19 31.054a1.2 1.2 0 01-1.064-.635l-1.473-2.745a1.205 1.205 0 012.124-1.14l1.473 2.75a1.204 1.204 0 01-1.06 1.77zM32.16 35.979c-.118 0-.235-.018-.349-.053l-2.986-.89a1.203 1.203 0 01.698-2.305l2.982.899a1.206 1.206 0 01.642 1.858 1.204 1.204 0 01-.986.502v-.012zM42.573 30.396a1.205 1.205 0 01-1.152-1.553l.899-2.986a1.206 1.206 0 012.308.698l-.903 2.982a1.208 1.208 0 01-1.152.859z" fill="#212170"/><path d="M22.5 18a1.5 1.5 0 00-1.5 1.5v33a1.502 1.502 0 001.5 1.5h9.847a1.5 1.5 0 100-3H24V21h30v17.228a1.5 1.5 0 103 0V19.5a1.502 1.502 0 00-1.5-1.5h-33z" fill="#212170"/></symbol>
<symbol id="i-eksi" viewBox="0 0 26 24" fill="none" xmlns="http://www.w3.org/2000/svg"><path d="M1 12h24" stroke="#212170" stroke-width="2" stroke-linecap="round"/></symbol>
<symbol id="i-elektrik-elektronik" viewBox="0 0 80 80" fill="none" xmlns="http://www.w3.org/2000/svg"><circle cx="40" cy="40" r="40" fill="#fff"/><rect opacity=".2" x="33" y="38" width="9" height="9" rx="2" fill="#6750FF"/><path fill-rule="evenodd" clip-rule="evenodd" d="M59.742 40.638a.92.92 0 01-.631.279h-5.59v4.39h5.59a.92.92 0 010 1.838h-5.59v1.536a4.814 4.814 0 01-4.807 4.809h-1.536v5.59a.92.92 0 01-1.838 0v-5.59h-4.392v5.59a.919.919 0 01-1.838 0v-5.59h-4.39v5.588a.92.92 0 01-1.838 0v-5.59h-1.536a4.815 4.815 0 01-4.808-4.807v-1.536h-5.59a.918.918 0 110-1.838h5.59V40.92h-5.59a.92.92 0 110-1.837h5.59v-4.391h-5.59a.92.92 0 110-1.838h5.59v-1.536a4.815 4.815 0 014.808-4.808h1.536v-5.594a.92.92 0 111.838 0v5.594h4.39v-5.594a.92.92 0 111.838 0v5.594h4.392v-5.594a.92.92 0 111.838 0v5.594h1.536a4.815 4.815 0 014.807 4.803v1.536h5.59a.92.92 0 010 1.838h-5.59v4.391h5.59a.92.92 0 01.63 1.559zm-8.285 9.18c.15-.36.226-.746.226-1.136V31.314a2.97 2.97 0 00-2.97-2.97H31.347a2.971 2.971 0 00-2.97 2.97v17.367a2.969 2.969 0 002.97 2.97h17.368a2.969 2.969 0 002.743-1.833zM37.274 34.465h5.51a2.784 2.784 0 012.779 2.78v5.51a2.783 2.783 0 01-2.778 2.777h-5.511a2.783 2.783 0 01-2.778-2.777v-5.512a2.784 2.784 0 012.778-2.778zm6.177 8.958a.942.942 0 00.276-.667v-5.512a.942.942 0 00-.942-.941h-5.511a.94.94 0 00-.943.941v5.512a.943.943 0 00.943.943h5.51c.25 0 .49-.1.667-.276z" fill="#212170"/></symbol>
<symbol id="i-fiyat-avantaj-" viewBox="0 0 80 80" fill="none" xmlns="http://www.w3.org/2000/svg"><circle cx="40" cy="40" r="40" fill="#fff"/><g clip-path="url(#clip0_859_18301)"><path d="M60.5 58.02H22V20.5a1.5 1.5 0 10-3 0v39a1.5 1.5 0 001.5 1.5h40a1.5 1.5 0 100-3v.02z" fill="#212170"/><path d="M28.457 57.71c.239.185.532.288.835.29a1.325 1.325 0 001.04-.493l6.413-13.381 6.884 4.856.39.185a1.283 1.283 0 00.987-.097c.209-.138.392-.31.542-.51l9.229-15.784.604 2.235c.075.281.242.53.475.706.233.177.52.272.813.27a1.331 1.331 0 001.15-.654c.177-.302.227-.661.138-1l-1.448-5.349a1.321 1.321 0 00-.616-.804 1.343 1.343 0 00-1.01-.137l-5.33 1.408a1.332 1.332 0 00-.809.616 1.31 1.31 0 00.49 1.804c.307.175.671.222 1.013.131l2.23-.59-8.502 14.57-6.804-4.795-.222-.105a.89.89 0 00-.222-.097 2.075 2.075 0 00-.275 0h-.24l-.267.079a.748.748 0 00-.204.088.978.978 0 00-.222.167.69.69 0 00-.15.14l-7.107 14.465a1.276 1.276 0 00-.258.88 1.302 1.302 0 00.453.906z" fill="#D9D3FF"/><path d="M24.562 55.671c.268.211.599.327.94.33a1.48 1.48 0 001.17-.56l7.22-15.21 7.75 5.52.44.21a1.43 1.43 0 001.11-.11c.235-.157.441-.353.61-.58l10.39-17.94.68 2.54a1.49 1.49 0 001.45 1.11c.128.003.256-.014.38-.05a1.5 1.5 0 001.07-1.83l-1.63-6.08a1.5 1.5 0 00-1.83-1.07l-6 1.6a1.502 1.502 0 00.78 2.9l2.51-.67-9.57 16.56-7.66-5.45-.25-.12a.998.998 0 00-.25-.11 2.324 2.324 0 00-.31 0h-.27l-.3.09a.839.839 0 00-.23.1 1.097 1.097 0 00-.25.19.78.78 0 00-.17.16l-8 16.44a1.46 1.46 0 00-.29 1 1.49 1.49 0 00.51 1.03z" fill="#212170"/></g></symbol>
<symbol id="i-help" viewBox="0 0 24 24" fill="none" xmlns="http://www.w3.org/2000/svg"><path d="M14.285 20.959c2.06-.227 3.668-1.96 4.37-3.92a2.363 2.363 0 001.661-.725A2.45 2.45 0 0021 14.61v-2.45a2.437 2.437 0 00-.574-1.56 2.357 2.357 0 00-1.43-.808 7.19 7.19 0 00-2.164-4.822A6.936 6.936 0 0012 3c-1.8 0-3.53.705-4.832 1.97a7.191 7.191 0 00-2.164 4.822c-.558.09-1.067.38-1.435.817-.367.438-.57.995-.569 1.571v2.45c0 .644.251 1.262.699 1.718a2.364 2.364 0 001.686.712h.521c.633 0 1.24-.256 1.687-.712a2.452 2.452 0 00.699-1.718v-2.45c-.002-.569-.2-1.12-.558-1.556a2.383 2.383 0 00-1.407-.832 5.833 5.833 0 011.776-3.869A5.627 5.627 0 0112 4.348c1.449 0 2.843.563 3.897 1.575a5.833 5.833 0 011.776 3.869c-.55.1-1.049.395-1.408.832a2.46 2.46 0 00-.557 1.556v2.45c-.002.502.15.991.433 1.401.284.41.686.72 1.15.886-.56 1.306-1.643 2.478-3.046 2.674a17.84 17.84 0 01-2.157.025.658.658 0 00-.486.192.683.683 0 00-.203.49c0 .177.068.347.19.475.121.127.287.2.461.204.7.019 1.772.033 2.235-.018zM6.97 12.18v2.45a1.1 1.1 0 01-.314.763 1.06 1.06 0 01-.749.32h-.52a1.06 1.06 0 01-.75-.32 1.1 1.1 0 01-.313-.763v-2.45a1.1 1.1 0 01.313-.762 1.06 1.06 0 01.75-.32h.52c.282.002.55.117.75.32a1.1 1.1 0 01.313.762zm12.708 2.45a1.1 1.1 0 01-.313.763 1.06 1.06 0 01-.75.32h-.52a1.06 1.06 0 01-.75-.32 1.1 1.1 0 01-.313-.763v-2.45a1.1 1.1 0 01.314-.762 1.06 1.06 0 01.748-.32h.522c.28.002.55.117.749.32a1.1 1.1 0 01.313.762v2.45z" fill="#212170" stroke="#212170" stroke-width=".4"/></symbol>
<symbol id="i-h-rdavat" viewBox="0 0 80 80" fill="none" xmlns="http://www.w3.org/2000/svg"><circle cx="40" cy="40" r="40" fill="#fff"/><circle opacity=".2" cx="36" cy="44" r="12" fill="#6750FF"/><path fill-rule="evenodd" clip-rule="evenodd" d="M56.679 35.51l2.7.9a.908.908 0 01.626.863v5.454a.908.908 0 01-.622.866l-2.7.9a17.17 17.17 0 01-1.709 4.127l1.272 2.544a.91.91 0 01-.17 1.05l-3.858 3.857a.906.906 0 01-1.05.17l-2.545-1.272a17.211 17.211 0 01-4.132 1.71l-.899 2.699a.909.909 0 01-.863.622h-5.458a.908.908 0 01-.862-.622l-.9-2.7a17.13 17.13 0 01-4.126-1.71l-2.544 1.273a.908.908 0 01-1.051-.17l-3.856-3.857a.908.908 0 01-.171-1.05l1.27-2.547a17.137 17.137 0 01-1.709-4.127l-2.7-.9a.908.908 0 01-.622-.863v-5.454a.91.91 0 01.622-.863l2.7-.903a17.137 17.137 0 011.71-4.127l-1.273-2.544a.908.908 0 01.171-1.05l3.856-3.857a.91.91 0 011.05-.17l2.547 1.272a17.137 17.137 0 014.127-1.709l.9-2.7a.91.91 0 01.863-.622h5.454a.908.908 0 01.863.622l.9 2.7a17.21 17.21 0 014.13 1.71l2.548-1.273a.907.907 0 011.046.171l3.857 3.859a.91.91 0 01.17 1.05l-1.271 2.544a17.178 17.178 0 011.709 4.127zm-3.52 12.592a15.324 15.324 0 001.875-4.528.905.905 0 01.591-.657l2.551-.849v-4.136l-2.553-.85a.904.904 0 01-.596-.653 15.353 15.353 0 00-1.875-4.53.902.902 0 01-.04-.883l1.204-2.407-2.927-2.932-2.407 1.203a.907.907 0 01-.885-.038 15.292 15.292 0 00-4.529-1.875.908.908 0 01-.648-.598l-.85-2.55h-4.143l-.85 2.552a.9.9 0 01-.648.597c-1.6.378-3.13 1.012-4.528 1.876a.903.903 0 01-.885.04L28.61 25.68l-2.935 2.926 1.204 2.408a.903.903 0 01-.04.884 15.297 15.297 0 00-1.874 4.528.903.903 0 01-.597.653l-2.55.85v4.139l2.55.858a.906.906 0 01.598.648c.379 1.601 1.013 3.13 1.878 4.53a.902.902 0 01.04.883L25.68 51.39l2.93 2.93 2.403-1.203a.904.904 0 01.884.04c1.4.863 2.928 1.496 4.529 1.875a.904.904 0 01.653.596l.848 2.55h4.145l.855-2.55a.903.903 0 01.648-.597 15.32 15.32 0 004.527-1.873.903.903 0 01.884-.038l2.408 1.203 2.93-2.93-1.204-2.407a.907.907 0 01.04-.884zm-26.339-8.1c0-7.269 5.914-13.182 13.182-13.182 7.26.008 13.182 5.91 13.182 13.179S47.272 53.18 40.002 53.18c-7.268 0-13.182-5.91-13.182-13.179zm8.901 1.837c.511.401 1.107.68 1.743.814l.002-.002a.912.912 0 01.718.89v7.673c1.203.207 2.433.207 3.636 0v-7.67a.914.914 0 01.721-.89 4.25 4.25 0 002.922-6.058l-1.809-3.611a.289.289 0 00-.016-.03v4.32a2.275 2.275 0 01-2.272 2.274H38.64a2.275 2.275 0 01-2.274-2.273v-4.32a.123.123 0 01-.005.007c-.005.007-.01.014-.01.02l-1.808 3.611a4.252 4.252 0 001.18 5.245zm7.917 2.394v6.532a11.363 11.363 0 10-7.273 0v-6.537a6.066 6.066 0 01-3.448-8.454l1.81-3.604a2.247 2.247 0 012.028-1.259h.523a.91.91 0 01.91.91v5.45a.455.455 0 00.454.456h2.728a.454.454 0 00.454-.455v-5.455a.911.911 0 01.909-.909h.528a2.276 2.276 0 012.027 1.261l1.808 3.605a6.074 6.074 0 01-3.458 8.459z" fill="#212170"/></symbol>
<symbol id="i-interactive-management" viewBox="0 0 80 80" fill="none" xmlns="http://www.w3.org/2000/svg"><circle cx="40" cy="40" r="40" fill="#fff"/><circle cx="42.5" cy="24.5" r="3.5" fill="#D9D3FF"/><circle cx="58.5" cy="45.5" r="3.5" fill="#D9D3FF"/><circle cx="27.5" cy="45.5" r="3.5" fill="#D9D3FF"/><path d="M34.038 34.613h11.366a.812.812 0 00.812-.812v-.811a6.496 6.496 0 00-3.815-5.91 3.994 3.994 0 001.38-3.02 4.06 4.06 0 00-8.119 0c0 1.16.504 2.26 1.38 3.02a6.492 6.492 0 00-3.815 5.91v.811a.812.812 0 00.811.812zm3.248-10.553a2.436 2.436 0 114.873 0 2.436 2.436 0 01-4.873 0zm2.435 4.059a4.874 4.874 0 014.87 4.87h-9.74a4.874 4.874 0 014.87-4.87zM19.463 57.035H30.83a.813.813 0 00.811-.812v-.812a6.494 6.494 0 00-3.815-5.91 3.995 3.995 0 001.381-3.02 4.06 4.06 0 00-8.12 0c0 1.16.505 2.261 1.381 3.02a6.492 6.492 0 00-3.815 5.91v.812a.813.813 0 00.812.812h0zm3.247-10.554a2.436 2.436 0 114.872.002 2.436 2.436 0 01-4.872-.002zm2.436 4.06a4.874 4.874 0 014.87 4.871h-9.74a4.874 4.874 0 014.87-4.871zM58.325 49.501a3.995 3.995 0 001.381-3.02 4.06 4.06 0 00-8.12 0c0 1.16.505 2.261 1.381 3.02a6.492 6.492 0 00-3.815 5.91v.812a.813.813 0 00.812.812H61.33a.813.813 0 00.812-.812v-.812a6.496 6.496 0 00-3.816-5.91h0zm-5.114-3.02a2.436 2.436 0 114.872.002 2.436 2.436 0 01-4.872-.002zm-2.435 8.93a4.87 4.87 0 017.306-4.217 4.872 4.872 0 012.436 4.217h-9.742z" fill="#212170" stroke="#212170"/><path d="M40.514 39.498v6.166l-5.606 3.924M40.514 45.664l5.605 3.924" stroke="#212170" stroke-width="2.5" stroke-linecap="round"/></symbol>
<symbol id="i-in-aat-malzemeleri" viewBox="0 0 80 80" fill="none" xmlns="http://www.w3.org/2000/svg"><circle cx="40" cy="40" r="40" fill="#fff"/><path opacity=".2" d="M64.5 33.5H29l2.5 9 20.5 6 12.5-15z" fill="#6750FF"/><path d="M58.586 47.25a7.508 7.508 0 00-4.014 1.167 7.406 7.406 0 00-2.747 3.124l-3.098-.958 14.888-18.447a1.162 1.162 0 00.147-1.246 1.17 1.17 0 00-1.071-.671h-6.526c-.464-1.484-2.018-2.82-4.492-3.83-2.622-1.07-6.067-1.686-9.449-1.686-3.382 0-6.583.605-9.004 1.703-2.199.997-3.582 2.328-3.992 3.816h-4.215l-1.364-4.795a4.686 4.686 0 00-1.686-2.448 4.761 4.761 0 00-2.833-.956l-5.138-.02c-.254 0-.498.1-.678.278a.946.946 0 00-.005 1.346.962.962 0 00.679.283l5.139.02a2.82 2.82 0 011.677.565c.482.363.833.87 1 1.448l5.498 19.37-3.47 15.37a.995.995 0 00.506 1.098 1.02 1.02 0 001.203-.182L37.73 49.186l13.523 4.173a7.29 7.29 0 00-.113 1.265 7.348 7.348 0 002.184 5.212 7.492 7.492 0 005.262 2.162 7.492 7.492 0 005.264-2.161 7.347 7.347 0 002.185-5.213 7.347 7.347 0 00-2.185-5.212 7.491 7.491 0 00-5.264-2.161zM42.223 26.608c5.73 0 10.51 1.803 11.812 3.615H31.308c1.099-1.859 5.277-3.615 10.916-3.615zm-16.667 5.518h35.607L46.756 49.977l-17.68-5.455-3.52-12.397zm.855 25.85L29 46.492l6.67 2.059-9.26 9.424zm32.174 2.12a5.558 5.558 0 01-3.904-1.604 5.451 5.451 0 01-1.62-3.867c0-.232.016-.463.046-.693l5.193 1.602a.957.957 0 00.856-.143.943.943 0 00.28-1.21.958.958 0 00-.566-.464l-5.19-1.602a5.495 5.495 0 012.034-2.16 5.557 5.557 0 016.773.803 5.45 5.45 0 011.621 3.862 5.45 5.45 0 01-1.617 3.87 5.557 5.557 0 01-3.905 1.607h-.001z" fill="#212170"/></symbol>
<symbol id="i-k-rtasiye" viewBox="0 0 80 80" fill="none" xmlns="http://www.w3.org/2000/svg"><circle cx="40" cy="40" r="40" fill="#fff"/><path opacity=".2" fill-rule="evenodd" clip-rule="evenodd" d="M26.5 25v32H59L26.5 25zM32 37v14h14L32 37z" fill="#6750FF"/><path fill-rule="evenodd" clip-rule="evenodd" d="M35.124 16.723a1.673 1.673 0 011.186.489l23.503 23.542 1.188 3.569-3.563-1.19-23.5-23.55a1.675 1.675 0 011.186-2.86zM35.126 15a3.377 3.377 0 00-2.398.99 3.415 3.415 0 000 4.8l23.499 23.553.286.287.383.128 3.563 1.194 3.275 1.099-1.097-3.28-1.187-3.568-.13-.384-.285-.288-23.513-23.537a3.379 3.379 0 00-2.396-.99V15zm-3.07 22.925l7.694 7.707h-7.694v-7.707zm-1.72-4.157v13.585h13.566l-2.937-2.94-7.69-7.706-2.936-2.941-.003.002zM23.87 18.618a.035.035 0 00-.024-.01.034.034 0 00-.033.034v33.008a1.534 1.534 0 001.53 1.532h32.971a.033.033 0 00.031-.02.033.033 0 00-.007-.036L23.87 18.619zm-1.329-1.283a1.847 1.847 0 012.012-.403c.224.093.428.23.599.402L59.62 51.842A1.852 1.852 0 0158.314 55h-32.97a3.345 3.345 0 01-2.364-.982A3.356 3.356 0 0122 51.65V18.643c0-.49.195-.96.541-1.307z" fill="#212170"/></symbol>
<symbol id="i-language" viewBox="0 0 24 24" fill="none" xmlns="http://www.w3.org/2000/svg"><path d="M20.61 9.429a7.68 7.68 0 00-.513-1.286 9.126 9.126 0 00-2.88-3.436 9.078 9.078 0 00-4.163-1.643L12.733 3h-1.41l-.384.064a8.803 8.803 0 00-4.186 1.61 8.85 8.85 0 00-2.857 3.469 7.68 7.68 0 00-.513 1.286 8.795 8.795 0 000 5.142c.132.444.304.874.513 1.286a9.126 9.126 0 002.88 3.436 9.078 9.078 0 004.163 1.643l.385.064h1.408l.384-.064a9.078 9.078 0 004.164-1.643 9.127 9.127 0 002.88-3.436c.21-.412.38-.842.512-1.286a9.35 9.35 0 00-.063-5.142zm-1.921-1.286h-3.33a13.103 13.103 0 00-1.537-3.664 7.76 7.76 0 012.805 1.334 7.795 7.795 0 012.062 2.33zM14.59 12c.01.864-.076 1.726-.256 2.571H9.66c-.32-1.699-.32-3.443 0-5.142h4.674c.18.845.266 1.707.256 2.571zm-.512 3.857a10.906 10.906 0 01-1.921 3.857h-.192a10.905 10.905 0 01-1.921-3.857h4.034zM9.98 8.143a10.908 10.908 0 011.92-3.857h.193a10.907 10.907 0 011.921 3.857H9.98zm.256-3.664a13.102 13.102 0 00-1.537 3.664H5.37a7.794 7.794 0 012.062-2.33 7.76 7.76 0 012.805-1.334zM4.345 12c-.013-.878.14-1.75.448-2.571h3.65c-.32 1.699-.32 3.443 0 5.142h-3.65A7.019 7.019 0 014.345 12zm1.024 3.857H8.7a13.101 13.101 0 001.537 3.664 7.76 7.76 0 01-2.805-1.334 7.794 7.794 0 01-2.062-2.33zm8.453 3.664a13.102 13.102 0 001.537-3.664h3.33a7.795 7.795 0 01-2.062 2.33 7.76 7.76 0 01-2.805 1.334zm1.857-4.95a17.385 17.385 0 000-5.142h3.586a7.866 7.866 0 010 5.142h-3.586z" fill="#212170" stroke="#212170" stroke-width=".3"/></symbol>
<symbol id="i-location" viewBox="0 0 24 24" fill="none" xmlns="http://www.w3.org/2000/svg"><g clip-path="url(#clip0_861_7641)"><path d="M12 12a3 3 0 110-5.999A3 3 0 0112 12zm0-4a1 1 0 100 2 1 1 0 000-2zm0 16a1 1 0 01-.71-.29C11 23.37 3 15.34 3 9a9 9 0 1118 0c0 6.34-8 14.37-8.29 14.71A1 1 0 0112 24zm0-22a7 7 0 00-7 7c0 4.51 5.09 10.47 7 12.55 1.91-2.07 7-8 7-12.55a7 7 0 00-7-7z" fill="url(#paint0_linear_861_7641)"/></g></symbol>
<symbol id="i-log-in" viewBox="0 0 24 24" fill="none" xmlns="http://www.w3.org/2000/svg"><path fill-rule="evenodd" clip-rule="evenodd" d="M16.081 5.023c.492.744.75 1.617.745 2.51a4.488 4.488 0 01-4.503 4.473 4.503 4.503 0 113.758-6.983zm-6.55.645a3.341 3.341 0 00-.55 1.864 3.361 3.361 0 003.342 3.312A3.34 3.34 0 109.53 5.668zM5.01 19.336c-.032-.32.015-.641.137-.938 1.336-3.254 4.125-5.462 7.292-5.462s5.927 2.208 7.292 5.462a1.959 1.959 0 01-1.8 2.702H6.947a1.958 1.958 0 01-1.938-1.764zm13.646-.473c-1.22-2.934-3.602-4.765-6.217-4.765-2.615 0-4.997 1.83-6.217 4.765a.767.767 0 00.726 1.075H17.93a.767.767 0 00.668-.349.787.787 0 00.058-.726z" fill="#212170"/><path d="M16.826 7.532l-.25-.001.25.001zm-.745-2.51l-.208.138.208-.137zm-3.758 6.984v-.25.25zm-2.505-.76l.139-.208-.14.207zM8.16 9.22l.23-.096-.23.096zm-.252-2.606l.245.05-.245-.05zm1.24-2.305l-.175-.178.176.178zm2.314-1.226l.048.245-.048-.245zm2.604.268l.097-.23-.097.23zM8.982 7.532l-.25.002v.002l.25-.004zm.549-1.864l-.21-.137.21.137zm.445 4.202l-.176.178.176-.178zm2.347.974l-.002.25h.002v-.25zm1.859-.565l-.14-.208.14.208zm1.23-1.504l-.231-.095.231.095zm.185-1.934l.245-.05-.245.05zm-.922-1.71l-.176.177.176-.178zm-1.718-.908l-.048.245.048-.245zm-1.933.202l.097.23-.097-.23zM5.147 18.398l-.232-.095.232.095zm-.137.938l-.25.024.25-.024zm14.721-.938l.232-.095-.001-.002-.23.097zm-.883 2.468l-.118-.22.118.22zm-.918.234v.25h.001v-.25zm-10.982 0l-.001.25h.001v-.25zm11.708-2.237l-.23.096v.002l.23-.098zm-12.434 0l.229.1.002-.004-.231-.096zm-.062.377l-.249.023.25-.023zm.128.36l-.207.14.207-.14zm.287.254l-.114.223.114-.223zm.373.084v-.25H6.94l.008.25zm10.982 0l.008-.25h-.008v.25zm.668-.349l.21.137.002-.004-.212-.133zm.118-.356l-.249-.02.25.02zm-1.64-11.7a4.754 4.754 0 00-.786-2.648l-.417.275c.464.703.708 1.528.703 2.37l.5.004zm-.367 1.812c.24-.574.365-1.19.367-1.812l-.5-.002a4.238 4.238 0 01-.328 1.621l.461.193zm-1.032 1.534c.442-.438.792-.96 1.032-1.534l-.46-.193c-.216.514-.53.98-.924 1.373l.352.354zm-1.54 1.023a4.74 4.74 0 001.54-1.023l-.352-.354a4.238 4.238 0 01-1.378.914l.19.463zm-1.815.354a4.739 4.739 0 001.815-.354l-.19-.463a4.238 4.238 0 01-1.623.317l-.002.5zm-2.643-.803a4.754 4.754 0 002.644.803v-.5c-.843 0-1.666-.25-2.366-.718l-.278.415zm-1.75-2.138c.358.87.968 1.615 1.75 2.138l.278-.415a4.253 4.253 0 01-1.566-1.914l-.463.191zm-.266-2.75a4.753 4.753 0 00.265 2.75l.463-.19a4.253 4.253 0 01-.238-2.462l-.49-.098zm1.31-2.434a4.753 4.753 0 00-1.31 2.434l.49.098a4.253 4.253 0 011.172-2.177l-.352-.355zm2.441-1.293c-.924.18-1.773.63-2.441 1.293l.352.355a4.253 4.253 0 012.185-1.158l-.096-.49zm2.75.283a4.753 4.753 0 00-2.75-.283l.096.49a4.253 4.253 0 012.46.254l.193-.461zm2.126 1.764a4.753 4.753 0 00-2.127-1.764l-.194.46a4.254 4.254 0 011.904 1.58l.417-.276zM9.232 7.53a3.091 3.091 0 01.507-1.724l-.417-.275a3.591 3.591 0 00-.59 2.003l.5-.004zm.92 2.163a3.112 3.112 0 01-.92-2.164l-.5.007A3.611 3.611 0 009.8 10.048l.352-.355zm2.172.901a3.111 3.111 0 01-2.172-.901l-.352.355a3.611 3.611 0 002.521 1.046l.003-.5zm1.719-.523a3.09 3.09 0 01-1.72.523v.5a3.59 3.59 0 001.998-.607l-.278-.416zM15.18 8.68a3.09 3.09 0 01-1.138 1.391l.278.416a3.592 3.592 0 001.322-1.617l-.462-.19zm.171-1.79a3.09 3.09 0 01-.171 1.79l.462.19c.271-.658.34-1.381.2-2.079l-.49.1zM14.5 5.308c.435.431.732.982.853 1.582l.49-.099a3.59 3.59 0 00-.991-1.838l-.352.355zm-1.59-.84a3.091 3.091 0 011.59.84l.352-.355a3.59 3.59 0 00-1.847-.976l-.095.491zm-1.788.187a3.091 3.091 0 011.788-.187l.095-.49a3.591 3.591 0 00-2.077.217l.194.46zM9.74 5.805a3.091 3.091 0 011.382-1.15l-.194-.46A3.591 3.591 0 009.322 5.53l.417.275zM4.915 18.304c-.137.335-.19.698-.154 1.057l.497-.049c-.027-.278.014-.56.12-.818l-.463-.19zm7.524-5.617c-3.291 0-6.158 2.293-7.524 5.617l.463.19c1.307-3.183 4.019-5.307 7.061-5.307v-.5zm7.523 5.615c-1.394-3.321-4.23-5.615-7.523-5.615v.5c3.041 0 5.725 2.123 7.062 5.309l.46-.194zm.155 1.06a2.208 2.208 0 00-.154-1.058l-.463.19c.106.259.147.54.12.818l.497.05zm-.36 1.006c.2-.301.324-.647.36-1.007l-.497-.049a1.708 1.708 0 01-.279.778l.416.278zm-.79.719c.318-.171.59-.418.79-.72l-.416-.277a1.708 1.708 0 01-.611.557l.237.44zm-1.036.264a2.208 2.208 0 001.036-.264l-.237-.44a1.707 1.707 0 01-.801.204l.002.5zm-10.983 0H17.93v-.5H6.948v.5zm-1.037-.264c.319.172.674.262 1.036.264l.002-.5a1.708 1.708 0 01-.8-.204l-.238.44zm-.79-.72c.2.302.472.549.79.72l.237-.44a1.708 1.708 0 01-.611-.557l-.416.278zm-.36-1.006c.036.36.16.706.36 1.007l.416-.278c-.155-.232-.25-.5-.279-.778l-.497.05zm7.678-5.012c2.489 0 4.794 1.744 5.987 4.61l.461-.191c-1.248-3.002-3.707-4.919-6.448-4.919v.5zm-5.986 4.61c1.192-2.866 3.497-4.61 5.986-4.61v-.5c-2.74 0-5.2 1.917-6.448 4.919l.462.192zm-.044.26a.517.517 0 01.042-.255l-.458-.2c-.07.157-.097.329-.082.5l.498-.045zm.087.243a.517.517 0 01-.087-.243l-.498.045c.016.171.074.335.17.478l.415-.28zm.193.17a.518.518 0 01-.193-.17l-.415.28c.096.142.227.258.38.336l.228-.445zm.251.057a.518.518 0 01-.251-.056l-.228.445c.153.078.323.116.495.11l-.016-.499zm10.99 0H6.948v.5H17.93v-.5zm.264-.058a.518.518 0 01-.256.058l-.016.5c.175.006.348-.034.504-.115l-.232-.443zm.195-.177a.518.518 0 01-.195.177l.232.443c.155-.081.287-.2.382-.348l-.42-.272zm.078-.24a.538.538 0 01-.08.243l.423.266c.089-.141.142-.302.156-.469l-.499-.04zm-.04-.252c.033.08.047.166.04.252l.499.04a1.037 1.037 0 00-.08-.488l-.46.196z" fill="#212170"/></symbol>
<symbol id="i-management" viewBox="0 0 80 80" fill="none" xmlns="http://www.w3.org/2000/svg"><circle cx="40" cy="40" r="40" fill="#fff"/><circle cx="44" cy="42" r="8" fill="#D9D3FF"/><path d="M40 50c5.523 0 10-4.477 10-10s-4.477-10-10-10-10 4.477-10 10 4.477 10 10 10z" stroke="#212170" stroke-width="3" stroke-miterlimit="10"/><path d="M59.511 36.466l-2.975-.993a17.065 17.065 0 00-1.643-3.965l1.403-2.806a.715.715 0 00-.134-.824l-4.04-4.04a.713.713 0 00-.825-.134l-2.805 1.402a16.998 16.998 0 00-3.965-1.642l-.993-2.976a.714.714 0 00-.676-.488h-5.715a.714.714 0 00-.677.488l-.992 2.977c-1.385.378-2.717.93-3.965 1.642l-2.806-1.403a.716.716 0 00-.824.134l-4.04 4.04a.715.715 0 00-.135.824l1.403 2.806a17.065 17.065 0 00-1.643 3.965l-2.976.993a.714.714 0 00-.488.676v5.715c0 .308.197.58.488.677l2.976.993a17.03 17.03 0 001.643 3.965l-1.403 2.806a.715.715 0 00.134.824l4.041 4.04c.217.218.55.272.824.134l2.806-1.402a17.03 17.03 0 003.965 1.642l.992 2.976c.097.291.37.488.677.488h5.715c.307 0 .58-.197.677-.488l.993-2.976a17.031 17.031 0 003.965-1.642l2.805 1.402a.715.715 0 00.825-.134l4.04-4.04a.715.715 0 00.133-.824l-1.402-2.806a17.017 17.017 0 001.642-3.965l2.976-.993a.714.714 0 00.488-.676v-5.715a.714.714 0 00-.488-.677h-.001zm-.94 5.877l-2.856.951a.712.712 0 00-.467.505 15.572 15.572 0 01-1.78 4.296.714.714 0 00-.027.688l1.345 2.692-3.312 3.312-2.69-1.346a.714.714 0 00-.69.028 15.624 15.624 0 01-4.296 1.78.711.711 0 00-.505.467l-.951 2.855h-4.685l-.952-2.855a.715.715 0 00-.505-.467 15.624 15.624 0 01-4.297-1.78.714.714 0 00-.688-.028l-2.692 1.346-3.312-3.312 1.346-2.692a.714.714 0 00-.027-.688 15.627 15.627 0 01-1.78-4.297.711.711 0 00-.467-.505l-2.855-.951v-4.685l2.855-.952a.712.712 0 00.467-.505 15.625 15.625 0 011.78-4.297.716.716 0 00.027-.688l-1.346-2.692 3.312-3.311 2.692 1.345c.218.11.478.099.688-.028a15.614 15.614 0 014.297-1.78.717.717 0 00.505-.466l.951-2.856h4.685l.952 2.855a.712.712 0 00.504.468 15.6 15.6 0 014.297 1.78c.21.126.47.136.688.027l2.692-1.345 3.311 3.311-1.345 2.692a.714.714 0 00.028.688 15.617 15.617 0 011.78 4.297.71.71 0 00.466.505l2.856.952v4.685h0z" fill="#212170" stroke="#212170" stroke-width="1.6"/><path d="M38.62 45.197h0l7.372-7.561c.43-.441.43-1.111 0-1.552a1.045 1.045 0 00-1.531 0l-6.607 6.775-2.25-2.308a1.045 1.045 0 00-1.531 0c-.43.441-.43 1.111 0 1.552l3.016 3.093c.098.101.206.187.337.246.132.06.273.087.428.087.231 0 .548-.11.765-.332z" fill="#212170" stroke="#212170" stroke-width=".5"/></symbol>
<symbol id="i-min-supply-risk" viewBox="0 0 80 80" fill="none" xmlns="http://www.w3.org/2000/svg"><circle cx="40" cy="40" r="40" fill="#fff"/><path fill="#D9D3FF" d="M36 34h16v17H36z"/><path d="M33.134 30.847l-1.416 5.306v.061a.565.565 0 000 .083v13.718a.55.55 0 00.549.549h16.462a.55.55 0 00.55-.549V36.297a.595.595 0 000-.083v-.06l-1.4-5.307a.549.549 0 00-.549-.411H33.661a.549.549 0 00-.527.411zm13.774.686l1.097 4.215h-6.542l-.192-4.215h5.637zm-5.966 8.468a.548.548 0 00.548-.55v-2.606h6.69v12.621H32.818v-12.62h6.695v2.606a.55.55 0 00.549.549h.88zm-1.217-8.468l-.192 4.215H32.98l1.098-4.215h5.647zM40.498 27.33a.55.55 0 00.55-.55v-6.907l1.42 1.42.384.39a.549.549 0 00.78 0 .548.548 0 000-.78L40.89 18.16a.648.648 0 00-.182-.116.516.516 0 00-.417 0 .641.641 0 00-.181.116l-2.744 2.743a.55.55 0 10.779.78l.384-.39 1.42-1.421v6.909a.55.55 0 00.55.549h0zM40.108 62.839a.648.648 0 00.182.116.516.516 0 00.417 0 .64.64 0 00.181-.116l2.744-2.744a.55.55 0 10-.779-.779l-.384.39-1.42 1.421v-6.908a.55.55 0 00-1.098 0v6.908l-1.421-1.42-.384-.39a.55.55 0 10-.78.778l2.745 2.744h-.002zM62.839 40.89a.648.648 0 00.116-.18.516.516 0 000-.418.64.64 0 00-.116-.181l-2.744-2.744a.55.55 0 10-.779.779l.39.384 1.421 1.42h-6.908a.55.55 0 000 1.098h6.908l-1.42 1.421-.39.384a.548.548 0 000 .78.549.549 0 00.78 0l2.743-2.745-.001.003zM18.159 40.89l2.744 2.743a.549.549 0 00.78 0 .549.549 0 000-.78l-.39-.384-1.421-1.42h6.908a.549.549 0 000-1.098h-6.908l1.42-1.421.39-.384a.55.55 0 10-.779-.78l-2.743 2.745a.648.648 0 00-.116.18.55.55 0 00-.044.21.55.55 0 00.044.208.641.641 0 00.116.181h-.001zM53.668 27.5a.55.55 0 00.774 0l4.884-4.884v2.557a.55.55 0 001.098 0v-3.88a.564.564 0 00-.038-.208.564.564 0 00-.121-.181.562.562 0 00-.395-.16h-3.88a.55.55 0 000 1.098h2.558l-1.004 1.004-3.875 3.88a.548.548 0 000 .773h0zM27.328 53.67a.55.55 0 00-.774 0l-3.88 3.879-.998.998v-2.556a.55.55 0 00-1.098 0v3.88a.547.547 0 00.038.213.585.585 0 00.297.296.663.663 0 00.213.038h3.88a.549.549 0 000-1.098h-2.557l1.004-1.004 3.875-3.88a.55.55 0 000-.768v.001zM56.54 59.321h-.55a.549.549 0 000 1.098h3.88a.66.66 0 00.214-.038.585.585 0 00.296-.296.535.535 0 00.038-.214v-3.88a.55.55 0 00-1.098 0v2.558l-1.004-1.004-3.88-3.875a.55.55 0 00-.986.368c.011.16.092.305.218.4l4.884 4.884h-2.014.001zM27.329 26.725l-3.88-3.879-.998-1.004h2.556a.55.55 0 000-1.098h-3.88a.552.552 0 00-.547.55v3.88a.55.55 0 001.098 0v-2.558L26.56 27.5c.214.212.56.212.774 0a.548.548 0 00-.005-.774h-.001z" fill="#212170" stroke="#212170"/></symbol>
<symbol id="i-mobil-uyumluluk" viewBox="0 0 80 80" fill="none" xmlns="http://www.w3.org/2000/svg"><circle cx="40" cy="40" r="40" fill="#fff"/><path d="M56.5 30.5l-11.5 6v13l11.5 6 11.5-6v-13l-11.5-6z" fill="#D9D3FF"/><path d="M29.106 16a5.155 5.155 0 00-3.61 1.468A4.965 4.965 0 0024 21.01V59.99c0 1.329.538 2.603 1.495 3.543A5.155 5.155 0 0029.107 65h20.316a5.155 5.155 0 003.61-1.468 4.965 4.965 0 001.496-3.543v-2.784c.005-.296-.11-.58-.32-.793a1.146 1.146 0 00-1.605-.024c-.215.206-.34.488-.344.783v2.784a2.7 2.7 0 01-.205 1.072c-.14.34-.35.649-.614.909s-.58.464-.926.602a2.843 2.843 0 01-1.092.201H29.106a2.843 2.843 0 01-1.092-.2 2.802 2.802 0 01-.926-.603 2.74 2.74 0 01-.614-.91c-.14-.34-.21-.704-.205-1.07V21.01a2.699 2.699 0 01.205-1.071c.141-.34.35-.65.614-.909a2.841 2.841 0 012.018-.804h20.316a2.841 2.841 0 012.018.804c.265.26.473.569.614.909.14.34.21.704.205 1.071v3.202a1.095 1.095 0 00.32.792c.21.212.497.334.798.338.3.005.591-.108.807-.314.216-.206.34-.487.344-.782V21.01c0-1.329-.538-2.603-1.495-3.543A5.155 5.155 0 0049.423 16H29.105zm24.328 10.908h-.108c-.176.011-.346.06-.5.145l-11.431 6.42c-.174.098-.317.24-.417.41-.1.17-.152.363-.15.559v12.807c0 .194.053.385.153.553.1.168.242.307.414.404l11.431 6.443a1.152 1.152 0 001.135 0l11.455-6.42c.171-.097.314-.237.413-.405.1-.168.153-.359.154-.553V34.464c0-.196-.051-.39-.15-.56-.1-.17-.244-.31-.417-.409L53.978 27.07a1.111 1.111 0 00-.544-.162zm-.04 2.405l10.32 5.775v11.537l-10.32 5.78-10.297-5.78V36.357l9.162 5.117v7.568c-.004.295.11.58.32.792.21.212.497.333.798.338.3.004.591-.109.807-.314.216-.206.34-.488.344-.783v-7.567l6.809-3.809c.26-.148.451-.39.53-.676.078-.286.037-.59-.113-.847a1.134 1.134 0 00-.69-.52 1.155 1.155 0 00-.862.111l-6.791 3.792-9.146-5.134 9.129-5.111zM35.562 59.014a1.153 1.153 0 00-.787.362 1.11 1.11 0 00-.296.802 1.098 1.098 0 00.368.773 1.139 1.139 0 00.817.29h7.183c.3.005.591-.108.807-.314.216-.206.34-.487.345-.782.004-.296-.111-.58-.32-.793a1.145 1.145 0 00-.798-.338h-7.319z" fill="#212170" stroke="#212170" stroke-width=".6"/></symbol>
<symbol id="i-money" viewBox="0 0 80 80" fill="none" xmlns="http://www.w3.org/2000/svg"><circle cx="40" cy="40" r="40" fill="#fff"/><circle cx="43.5" cy="49.5" r="5.5" fill="#D9D3FF"/><path d="M56.786 33.714v.5h3.643c.592 0 1.071.479 1.071 1.071v25.143a1.07 1.07 0 01-1.071 1.072H19.57a1.07 1.07 0 01-1.071-1.072V35.285c0-.337.173-.637.458-.844l.042-.03.035-.04a.542.542 0 00.031-.037L42.548 18.68h0c.328-.218.752-.239 1.1-.053h0c.349.186.566.55.566.945v5.494l.673-.248 4.17-1.536s0 0 0 0a1.073 1.073 0 011.442 1.005V28.846l.59-.105 4.436-.796h0c.312-.056.633.028.876.233l.002.002c.242.201.383.502.383.82v4.714zm2.571 3.143v-.5h-7.286v.5a6.792 6.792 0 006.786 6.785h.5v-6.785zm-4.714-5.979v-.598l-.588.106-15.824 2.836.088.992H54.643v-3.336zm-6.286-4.338v-.717l-.673.248-12.006 4.423.26.962 12.007-2.152.412-.074v-2.69zm-6.286-4.033v-.934l-.777.518-10.053 6.703.45.885 10.053-3.704.327-.12V22.506zm-20.928 13.85h-.5v7.285h.5a6.793 6.793 0 006.786-6.785v-.5h-6.786zm-.5 22.5v.5h7.286v-.5a6.792 6.792 0 00-6.786-6.786h-.5v6.786zm9.428 0v.5H49.93v-.5c0-4.923 4.005-8.929 8.928-8.929h.5v-4.143h-.5c-4.923 0-8.928-4.005-8.928-8.928v-.5H30.07v.5c0 4.923-4.005 8.928-8.928 8.928h-.5v4.143h.5c4.923 0 8.928 4.006 8.928 8.929zm28.786.5h.5V52.07h-.5a6.792 6.792 0 00-6.786 6.786v.5h6.786z" fill="#212170" stroke="#212170"/><path d="M39.821 53.879a5.837 5.837 0 100-11.674 5.837 5.837 0 000 11.674z" stroke="#212170" stroke-width="3" stroke-miterlimit="10"/></symbol>
<symbol id="i-navigation" viewBox="0 0 24 24" fill="none" xmlns="http://www.w3.org/2000/svg"><path d="M16 21l-9-9 9-9" stroke="#212170" stroke-width="3" stroke-linecap="round" stroke-linejoin="round"/></symbol>
<symbol id="i-network" viewBox="0 0 80 80" fill="none" xmlns="http://www.w3.org/2000/svg"><circle cx="40" cy="40" r="40" fill="#fff"/><path opacity=".25" fill-rule="evenodd" clip-rule="evenodd" d="M23.006 43c-.004.166-.006.333-.006.5C23 54.822 32.178 64 43.5 64S64 54.822 64 43.5c0-.167-.002-.334-.006-.5H23.006z" fill="#09DA90"/><path d="M19.724 32.035h10.138a.724.724 0 00.724-.724v-.724a5.793 5.793 0 00-3.403-5.272 3.563 3.563 0 001.232-2.694 3.621 3.621 0 00-7.243 0c0 1.035.45 2.017 1.232 2.694A5.79 5.79 0 0019 30.587v.724a.724.724 0 00.724.724zm2.897-9.414a2.173 2.173 0 114.346.001 2.173 2.173 0 01-4.346 0zm2.172 3.62a4.348 4.348 0 014.345 4.345h-8.69a4.348 4.348 0 014.345-4.345zM34.93 32.035h10.138a.724.724 0 00.724-.724v-.724a5.792 5.792 0 00-3.403-5.272 3.563 3.563 0 001.232-2.694 3.621 3.621 0 00-7.242 0c0 1.035.449 2.017 1.231 2.694a5.79 5.79 0 00-3.403 5.272v.724a.725.725 0 00.724.724h0zm2.897-9.414a2.173 2.173 0 114.346.001 2.173 2.173 0 01-4.346 0zm2.172 3.62a4.347 4.347 0 014.345 4.345h-8.69A4.348 4.348 0 0140 26.242zM57.596 25.315a3.563 3.563 0 001.232-2.694 3.621 3.621 0 00-7.242 0c0 1.035.449 2.017 1.231 2.694a5.79 5.79 0 00-3.403 5.272v.724a.725.725 0 00.724.724h10.138A.724.724 0 0061 31.31v-.724a5.793 5.793 0 00-3.403-5.272h0zm-4.561-2.694a2.173 2.173 0 114.346.001 2.173 2.173 0 01-4.346 0zm-2.173 7.966a4.344 4.344 0 118.69 0h-8.69zM60.276 39.275H19.724c-.4 0-.724.325-.724.724a21 21 0 1042 0 .724.724 0 00-.724-.724zm-21 11.587v8.61c-2.65-.514-5.004-3.839-6.452-8.61h6.452zm-6.85-1.449a38.748 38.748 0 01-1.116-8.69h7.966v8.69h-6.85zm8.298 10.059v-8.61h6.452c-1.448 4.771-3.802 8.095-6.452 8.61zm0-10.059v-8.69h7.966a38.746 38.746 0 01-1.108 8.69h-6.858zm-10.862-8.69a40.63 40.63 0 001.035 8.69h-8.023a19.412 19.412 0 01-2.426-8.69h9.414zm-6.104 10.139h7.552c1.029 3.62 2.557 6.445 4.403 8.204a19.612 19.612 0 01-11.955-8.204zm20.587 8.204c1.817-1.76 3.346-4.584 4.345-8.204h7.552a19.612 19.612 0 01-11.897 8.204zm12.781-9.653h-8.03a40.587 40.587 0 001.042-8.69h9.414a19.412 19.412 0 01-2.426 8.69z" fill="#212170" stroke="#212170"/></symbol>
<symbol id="i-note" viewBox="0 0 80 80" fill="none" xmlns="http://www.w3.org/2000/svg"><circle cx="40" cy="40" r="40" fill="#fff"/><path d="M51.326 23h-24v24l24-24z" fill="#D9D3FF"/><path d="M50.216 17H29.437A8.436 8.436 0 0021 25.437v28.126A8.434 8.434 0 0029.437 62h12.824a5.625 5.625 0 003.977-1.648l10.767-10.767a5.626 5.626 0 001.648-3.978v-20.17c0-2.237-.89-4.384-2.47-5.966A8.445 8.445 0 0050.215 17zM44.59 58.022V50.75a2.814 2.814 0 012.813-2.812h7.273L44.59 58.022zm11.25-12.897h-8.438a5.625 5.625 0 00-5.625 5.625v8.438h-12.34a5.628 5.628 0 01-5.624-5.624V25.437a5.628 5.628 0 015.624-5.624h20.779a5.628 5.628 0 015.624 5.624v19.688z" fill="#212170"/><path d="M46.198 27H33.454c-.792 0-1.434.616-1.434 1.377 0 .76.642 1.378 1.434 1.378h12.744c.792 0 1.434-.616 1.434-1.378 0-.762-.642-1.377-1.434-1.377zM46.198 32.98H33.454c-.792 0-1.434.617-1.434 1.377s.642 1.379 1.434 1.379h12.744c.792 0 1.434-.617 1.434-1.379 0-.761-.642-1.377-1.434-1.377zM46.198 38.98H33.454c-.792 0-1.434.617-1.434 1.377s.642 1.379 1.434 1.379h12.744c.792 0 1.434-.617 1.434-1.379 0-.761-.642-1.377-1.434-1.377z" fill="#212170"/></symbol>
<symbol id="i-notification" viewBox="0 0 80 80" fill="none" xmlns="http://www.w3.org/2000/svg"><circle cx="40" cy="40" r="40" fill="#fff"/><circle cx="52" cy="33" r="6" fill="#D9D3FF"/><path d="M40.541 51.68c-.693 0-1.223.54-1.223 1.247 0 1.413-1.142 2.577-2.53 2.577-1.386 0-2.528-1.164-2.528-2.577 0-.707-.53-1.247-1.224-1.247-.693 0-1.224.54-1.224 1.247 0 2.785 2.244 5.072 4.977 5.072s4.976-2.287 4.976-5.072c0-.707-.571-1.247-1.224-1.247zM49.638 23.494c-2.896 0-5.425 1.497-6.934 3.784-.367-.25-.775-.458-1.183-.666a1.19 1.19 0 00.163-.623c0-2.744-2.202-4.989-4.894-4.989s-4.895 2.245-4.895 4.989c0 .208.041.415.164.582a10.54 10.54 0 00-3.55 2.827c-1.794 2.162-2.814 4.988-2.814 7.732v4.449c0 .457-.163.873-.49 1.164l-.896.831c-.816.748-1.265 1.788-1.306 2.91-.041 1.123.407 2.162 1.182 2.952.735.748 1.754 1.206 2.815 1.206h19.66c1.06 0 2.08-.416 2.815-1.206.775-.79 1.183-1.83 1.183-2.952-.041-1.122-.49-2.162-1.306-2.91l-.897-.831c-.326-.291-.49-.707-.49-1.164V40.33a7.98 7.98 0 001.714.167c4.569.041 8.321-3.783 8.321-8.481s-3.752-8.523-8.361-8.523h-.001zm-12.849 0c1.305 0 2.366 1.04 2.448 2.329a9.323 9.323 0 00-2.162-.25c-.082 0-.163 0-.286.042-.081 0-.163-.042-.285-.042-.734 0-1.469.083-2.162.25.122-1.29 1.142-2.329 2.447-2.329zm11.34 23.032c0 .416-.163.831-.449 1.164a1.56 1.56 0 01-1.101.457h-19.62a1.56 1.56 0 01-1.101-.457c-.286-.291-.449-.707-.449-1.164 0-.416.204-.832.49-1.123l.897-.831a4.13 4.13 0 001.305-2.993V37.13c0-5.612 4.365-9.063 8.403-9.063.081 0 .163 0 .285-.041.082 0 .163.041.286.041 1.713 0 3.222.5 4.568 1.456a8.382 8.382 0 00-.367 2.494c0 3.16 1.672 5.903 4.201 7.358v2.411H30.672c-.694 0-1.224.541-1.224 1.248 0 .706.53 1.247 1.224 1.247h15.5c.081 0 .204 0 .285-.042.082.125.204.25.326.333l.898.831c.285.291.448.707.448 1.123zm1.509-8.481c-3.263 0-5.915-2.702-5.915-6.028 0-3.326 2.652-6.028 5.915-6.028s5.914 2.702 5.914 6.028c0 3.326-2.651 6.028-5.914 6.028z" fill="#212170"/></symbol>
<symbol id="i-offer" viewBox="0 0 80 80" fill="none" xmlns="http://www.w3.org/2000/svg"><circle cx="40" cy="40" r="40" fill="#fff"/><path fill="#D9D3FF" d="M26 30h21v18H26z"/><path fill-rule="evenodd" clip-rule="evenodd" d="M57.7 18H31.67c-1.84 0-3.604.747-4.905 2.076a7.165 7.165 0 00-2.032 5.011v24.467h-4.3c-.38 0-.744.154-1.013.428a1.48 1.48 0 00-.42 1.036v3.895c0 1.847.705 3.621 1.966 4.945A6.87 6.87 0 0025.75 62h23.578c1.84 0 3.605-.747 4.906-2.076a7.165 7.165 0 002.032-5.011V30.446h4.3c.38 0 .744-.154 1.013-.429a1.48 1.48 0 00.42-1.035v-6.59a4.442 4.442 0 00-1.26-3.105A4.255 4.255 0 0057.7 18zM41.933 52.482H21.867v2.43c0 1.104.428 2.162 1.192 2.941a4.027 4.027 0 002.878 1.218h17.315a7.161 7.161 0 01-1.319-4.158v-2.43zm11.71-31.553H31.672c-1.08 0-2.115.438-2.879 1.218a4.205 4.205 0 00-1.192 2.94v24.467h16.197c.29.093.543.278.724.528.18.25.278.552.279.863v3.895c-.01.552.089 1.1.289 1.614.2.513.499.98.878 1.374.379.394.83.706 1.33.92a3.995 3.995 0 001.574.323h.458c1.08 0 2.115-.438 2.879-1.218a4.205 4.205 0 001.192-2.94v-32.52a4.61 4.61 0 01.244-1.464zm2.624 6.589v-5.125a1.49 1.49 0 01.415-1.04 1.431 1.431 0 011.018-.424c.38 0 .745.154 1.014.429.268.274.42.646.42 1.035v5.125h-2.867z" fill="#212170"/><path d="M33 30h15M33 36h15M33 42h15" stroke="#212170" stroke-width="3" stroke-linecap="round"/></symbol>
<symbol id="i-phone" viewBox="0 0 24 24" fill="none" xmlns="http://www.w3.org/2000/svg"><path d="M19.53 13.828c-.531-.55-1.174-.841-1.86-.841-.678 0-1.326.286-1.869.83l-1.35 1.345a3.806 3.806 0 01-.097-.05l-.068-.033c-.145-.073-.311-.156-.449-.241-1.385-.877-2.649-2.026-3.868-3.515-.522-.655-.887-1.21-1.155-1.764.339-.319.654-.638.951-.94l.202-.204.204-.205c.564-.563.863-1.215.86-1.887-.002-.671-.298-1.319-.86-1.877L8.859 3.14a20.186 20.186 0 01-.225-.227l-.223-.224-.105-.107A22.566 22.566 0 007.51 1.8C6.983 1.277 6.345 1 5.67 1c-.676 0-1.317.277-1.865.799-.002.002-.004.002-.004.005L2.156 3.439A3.81 3.81 0 001.02 5.862v.003c-.088 1.11.114 2.283.636 3.69.79 2.127 1.975 4.098 3.728 6.202 2.14 2.541 4.708 4.546 7.633 5.957h.002c1.127.537 2.64 1.165 4.348 1.277h.019c.097.004.199.009.306.009 1.198 0 2.208-.433 3-1.286l.012-.012a10.672 10.672 0 01.84-.865c.21-.2.427-.407.635-.629.539-.56.823-1.212.821-1.886-.002-.674-.292-1.321-.837-1.865l-2.633-2.629zm-.261 6.588c-.422.45-.906.65-1.565.65-.062 0-.13-.004-.202-.01-1.366-.087-2.659-.626-3.631-1.086-2.685-1.289-5.038-3.123-6.995-5.454-1.601-1.921-2.68-3.713-3.394-5.633-.427-1.141-.588-2.025-.522-2.86.043-.487.225-.875.574-1.217l1.632-1.627c.17-.163.346-.25.51-.25.154 0 .318.085.49.253l.008.007c.282.265.557.544.85.837l.009.01c.14.143.3.309.464.467l1.31 1.305c.382.38.382.648 0 1.028-.138.137-.278.277-.415.419l-.098.099c-.367.371-.714.72-1.09 1.054a.11.11 0 00-.017.017l-.024.023c-.4.4-.51.877-.323 1.416l.015.038a.084.084 0 00.01.021c.35.844.844 1.646 1.603 2.603 0 .002.002.002.002.005 1.347 1.652 2.768 2.943 4.345 3.94.2.123.407.236.62.338a6.822 6.822 0 01.478.258l.008.005c.014.007.028.016.045.023.191.1.405.153.621.154.36 0 .693-.15.96-.43l1.642-1.636c.119-.118.303-.26.498-.26.18 0 .356.14.47.258l.004.004 2.65 2.64c.26.26.439.568-.022 1.05l-.002.003c-.145.155-.299.304-.462.463-.036.033-.072.068-.107.104-.332.31-.65.617-.949.971z" fill="url(#paint0_linear_861_7646)"/></symbol>
<symbol id="i-refresh" viewBox="0 0 24 24" fill="none" xmlns="http://www.w3.org/2000/svg"><path d="M20.786 15.395a9.365 9.365 0 01-3.023 4.538A9.057 9.057 0 017.5 20.8a9.287 9.287 0 01-3.716-3.967l-.493 1.248a.674.674 0 01-.33.362.656.656 0 01-.484.038h-.053a.667.667 0 01-.37-.364.69.69 0 01-.003-.524l1.126-2.857a.673.673 0 01.358-.369.656.656 0 01.509-.004h.066l2.633 1.418a.677.677 0 01.326.401.69.69 0 01-.05.518.671.671 0 01-.393.331.658.658 0 01-.51-.05L5.11 16.44a7.921 7.921 0 003.23 3.247 7.734 7.734 0 008.646-.888 8 8 0 002.528-3.838.683.683 0 01.32-.405.658.658 0 01.904.269.686.686 0 01.056.516l-.007.054zm.793-8.936a.656.656 0 00-.509.005.673.673 0 00-.357.368l-.513 1.31a9.287 9.287 0 00-3.722-3.953 9.058 9.058 0 00-10.25.88A9.365 9.365 0 003.21 9.601a.69.69 0 00.057.494.67.67 0 00.373.322c.16.055.335.046.489-.024a.673.673 0 00.34-.358 8.003 8.003 0 012.498-3.828 7.781 7.781 0 014.156-1.795 7.732 7.732 0 014.44.832 7.915 7.915 0 013.257 3.183l-.933-.509a.656.656 0 00-.474-.006.67.67 0 00-.359.316.689.689 0 00.206.877l2.633 1.418c.17.074.36.089.54.041a.665.665 0 00.393-.387l1.127-2.836a.69.69 0 00-.155-.738.665.665 0 00-.219-.144z" fill="#212170" stroke="#212170" stroke-width=".5"/></symbol>
<symbol id="i-relationship" viewBox="0 0 80 80" fill="none" xmlns="http://www.w3.org/2000/svg"><circle cx="40" cy="40" r="40" fill="#fff"/><path d="M41.5 31l-8 9.5 4.5.5 5.5-6H50l6.5 9 4.5-4-6-9-3.5 1.5-4-1.5h-6zM26 45.5l-3 3L36 58l3.5-4-5.5-6.5-8-2z" fill="#D9D3FF"/><path d="M24.525 26.01a1.328 1.328 0 00-.938.565l-7.33 10.438a1.434 1.434 0 00.25 1.914l5.58 4.653-.354.37c-1.392 1.453-1.392 3.851 0 5.305a3.738 3.738 0 003.062 1.174c.145.608.425 1.183.875 1.653a3.333 3.333 0 002.832 1 3.83 3.83 0 00.958 1.806c.969 1.011 2.34 1.336 3.562.957.175.385.403.748.708 1.065a3.505 3.505 0 005.082 0l1.187-1.24 1.188 1.24a3.505 3.505 0 005.081 0c.304-.317.533-.68.708-1.065 1.224.375 2.603.044 3.562-.957a3.815 3.815 0 00.938-1.762 3.385 3.385 0 002.852-1.023c.46-.48.742-1.061.875-1.674a3.741 3.741 0 003.062-1.174c1.396-1.457 1.206-3.719.105-5.175l-.417-.545 5.54-4.61c.563-.463.673-1.31.25-1.913l-7.335-10.437a1.295 1.295 0 00-1.832-.325c-1.253.88-2.752 1.151-3.915 1.151-1.164 0-1.863-.268-2.708-.608-.845-.34-1.887-.783-3.29-.783-1.56 0-3.418.381-5.331 1.544-.134.08-.254.183-.354.305l-7.997 9.763a1.44 1.44 0 00-.25 1.37c.302.932.94 1.6 1.728 2.132a5.146 5.146 0 002.874.892c2.2 0 4.082-1.279 5.685-2.674 1.44-1.254 2.593-2.594 3.519-3.589h4.145L56.284 45.8c.452.598.48 1.107.104 1.5-.58.604-1.24.41-1.666.086a1.45 1.45 0 00-.25-.153c-.038-.048-.064-.105-.104-.152l-3.354-3.915a1.31 1.31 0 00-1.063-.478c-.522.021-.986.36-1.184.865a1.437 1.437 0 00.268 1.482l3.354 3.892c.359.419.359.864.041 1.196-.319.333-.8.34-1.063.043l-3.54-4.024a1.294 1.294 0 00-1.885-.075 1.436 1.436 0 00-.072 1.968l2.707 3.088a1.3 1.3 0 00.105.217c.146.281.255.625.25.892-.006.268-.065.438-.292.675-.24.25-1.087.251-1.271.044l-3.102-3.523a1.309 1.309 0 00-1.083-.457 1.343 1.343 0 00-1.152.884 1.436 1.436 0 00.277 1.464l2.312 2.632.02.087a.997.997 0 01-.25.913c-.38.398-.931.398-1.312 0l-1.374-1.435c.555-1.37.29-3.024-.772-4.132a3.553 3.553 0 00-1.582-.956c.033-.993-.29-1.997-1.02-2.763-.792-.826-1.769-1.185-2.708-1.195a3.715 3.715 0 00-.5.022c-.16-.522-.418-1.025-.811-1.435a3.35 3.35 0 00-4.645-.195 3.57 3.57 0 00-.728-1.13 3.5 3.5 0 00-2.54-1.088c-.87 0-1.737.314-2.416.957l-4.81-4 5.956-8.481c1.481.713 2.992 1.065 4.206 1.065 1.438 0 2.53-.346 3.374-.675.845-.33 1.417-.585 2.104-.675.735-.095 1.258-.796 1.166-1.565-.091-.77-.763-1.314-1.5-1.218-1.135.147-1.972.562-2.707.847-.734.286-1.379.5-2.437.5-1.164 0-2.662-.272-3.915-1.152a1.293 1.293 0 00-.895-.24v.003zm20.138 2.783c.885 0 1.447.254 2.332.609.886.355 2.06.783 3.666.783 1.213 0 2.725-.352 4.206-1.065l5.957 8.48-4.52 3.762-5.936-7.872a1.31 1.31 0 00-1.041-.522h-5.332a1.31 1.31 0 00-.938.413c-1.052 1.098-2.353 2.613-3.748 3.827s-2.845 2.023-3.978 2.023c-.506 0-1.019-.189-1.417-.457-.113-.077-.102-.112-.186-.195l7.103-8.676c1.426-.825 2.723-1.109 3.832-1.109zM26.42 43.383c.233 0 .455.106.646.305.174.182.266.461.271.914v.674l-1.666 1.74a3.304 3.304 0 00-.23.26 1.147 1.147 0 00-.166.11c-.425.325-1.087.518-1.666-.087a.964.964 0 010-1.37l2.145-2.238a.936.936 0 01.667-.305l-.001-.002zm5.477 1.392c.193 0 .382.095.542.261a.788.788 0 010 1.131l-3.79 3.958c-.32.333-.764.333-1.083 0a.788.788 0 010-1.13l3.77-3.959a.807.807 0 01.563-.26h-.002zm3.624 2.436c.293-.012.613.096.916.413.25.26.25 1.066 0 1.327l-3.79 3.957c-.24.251-1.052.251-1.291 0-.227-.237-.286-.407-.292-.674-.006-.267.104-.612.25-.892.024-.043.044-.086.063-.131l2.937-3.066c.182-.19.325-.41.459-.63.189-.159.456-.293.75-.305l-.002.001zm2.894 3.85c.231.002.46.09.646.282.348.363.37.872.084 1.261a1.36 1.36 0 00-.292.325l-1.936 2.022c-.38.398-.932.398-1.313 0a.997.997 0 01-.25-.913l2.833-2.957a.951.951 0 01.23-.023l-.002.003z" fill="#212170"/></symbol>
<symbol id="i-search" viewBox="0 0 24 24" fill="none" xmlns="http://www.w3.org/2000/svg"><circle cx="10" cy="10" r="6.15" stroke="#212170" stroke-width="1.7"/><path d="M15 15l5 5" stroke="#212170" stroke-width="1.7" stroke-linecap="round"/></symbol>
<symbol id="i-select-1" viewBox="0 0 24 24" fill="none" xmlns="http://www.w3.org/2000/svg"><circle cx="12" cy="12" r="11" fill="#fff" stroke="#212170" stroke-width="2"/></symbol>
<symbol id="i-select-2" viewBox="0 0 24 24" fill="none" xmlns="http://www.w3.org/2000/svg"><circle cx="12" cy="12" r="11" fill="#09DA90" stroke="#fff" stroke-width="2"/><path d="M7 12.306L10.8 16 18 9" stroke="#fff" stroke-width="2" stroke-linecap="round"/></symbol>
<symbol id="i-time-saving" viewBox="0 0 80 80" fill="none" xmlns="http://www.w3.org/2000/svg"><circle cx="40" cy="40" r="40" fill="#fff"/><circle cx="45.5" cy="29.5" r="7.5" fill="#D9D3FF"/><path d="M27.333 60h-3.666c-.973-.002-1.905-.431-2.591-1.195-.688-.762-1.075-1.798-1.076-2.877V45.071c.001-1.08.388-2.114 1.076-2.877.687-.764 1.62-1.193 2.59-1.194h3.667c.973.002 1.905.43 2.591 1.194.688.762 1.075 1.798 1.076 2.877v10.857c-.001 1.08-.388 2.115-1.076 2.878-.687.763-1.62 1.192-2.59 1.194zm-3.666-16.286c-.324 0-.635.144-.864.398a1.44 1.44 0 00-.359.96v10.856c0 .36.13.705.359.96.229.254.54.396.864.397h3.666c.324 0 .635-.143.864-.398.23-.254.358-.6.359-.959V45.071c0-.36-.13-.705-.359-.959a1.167 1.167 0 00-.864-.398h-3.666z" fill="#212170"/><path d="M43.71 58h-8.942c-.712 0-1.41-.199-2.015-.575l-3.138-1.94A1.303 1.303 0 0129 54.377v-7.92c0-.444.226-.858.597-1.097l3.228-2.073a3.832 3.832 0 012.07-.608h9.545c.765 0 1.513.23 2.148.66.635.43 1.13 1.04 1.422 1.755l4.6-4.14a3.83 3.83 0 013.79-.74 3.887 3.887 0 012.53 2.945 3.921 3.921 0 01-1.261 3.685L46.266 57.02a3.836 3.836 0 01-2.557.978l.001.002zm-12.137-4.352l2.522 1.561c.203.126.435.192.672.192h8.942c.314 0 .617-.118.852-.328l11.415-10.185a1.31 1.31 0 00.148-1.839 1.284 1.284 0 00-.882-.452 1.252 1.252 0 00-.935.312l-7.129 6.415a3.828 3.828 0 01-2.738 1.153h-6.433c-.46 0-.885-.248-1.115-.65a1.311 1.311 0 010-1.3c.23-.401.654-.65 1.115-.65h6.433c.265 0 .523-.082.74-.236l.22-.199a1.31 1.31 0 00-.067-1.8 1.28 1.28 0 00-.893-.364h-9.545c-.245 0-.486.072-.693.205l-2.629 1.686v6.479zM41.5 40A10.503 10.503 0 0131 29.5c0-2.785 1.106-5.456 3.075-7.425a10.503 10.503 0 0114.85 0A10.503 10.503 0 0152 29.5 10.51 10.51 0 0141.5 40zm0-18.375a7.876 7.876 0 00-5.569 13.444A7.877 7.877 0 0049.375 29.5a7.88 7.88 0 00-7.875-7.875z" fill="#212170"/><path d="M41.654 25a.722.722 0 00-.466.172.53.53 0 00-.188.404v4.562c0 .151.07.297.194.404l2.658 2.278a.718.718 0 00.473.18.726.726 0 00.48-.167.53.53 0 00.195-.412.537.537 0 00-.21-.407l-2.461-2.112v-4.326a.531.531 0 00-.196-.41.725.725 0 00-.479-.166v0z" fill="#212170" stroke="#212170"/></symbol>
<symbol id="i-time-1" viewBox="0 0 80 80" fill="none" xmlns="http://www.w3.org/2000/svg"><circle cx="40" cy="40" r="40" fill="#fff"/><circle cx="45" cy="47" r="14" fill="#D9D3FF"/><path d="M40 26.71v-.008h-.5c-8.477 0-15.307 6.944-15.307 15.532 0 8.587 6.83 15.532 15.307 15.532s15.307-6.944 15.307-15.531c0-8.419-6.563-15.257-14.807-15.524zM22.5 42.236c0-9.528 7.634-17.266 17-17.266s17 7.738 17 17.266c0 9.527-7.634 17.266-17 17.266s-17-7.74-17-17.266zM33.383 19.93h0a.844.844 0 01.731-.43h10.773c.3 0 .58.162.731.43h0a.883.883 0 010 .873.844.844 0 01-.73.43H34.113a.844.844 0 01-.731-.43h0a.883.883 0 010-.872z" fill="#212170" stroke="#212170"/><path d="M46.26 47.707c.006.37-.136.727-.394.988a1.336 1.336 0 01-.973.4m1.367-1.388l-6.78-17.792.008.499s0 0 0 0l-.035.001m6.807 17.292a1.376 1.376 0 00-.424-.975l.424.975zm-1.367 1.388l.008-.5s0 0 0 0m-.008.5a1.337 1.337 0 01-.96-.431l-5.03-5.813 5.386 5.462.006.006.005.005c.158.17.376.268.6.271m-.007.5l.008-.5m0 0a.836.836 0 00.61-.25.875.875 0 00.25-.63h0a.876.876 0 00-.27-.621l-.006-.006-.006-.005-4.988-5.065-.144-.146V31.291h0a.876.876 0 00-.252-.626h0a.836.836 0 00-.607-.25h-.035m0 0a.838.838 0 00-.556.258.875.875 0 00-.243.617v.006h0v10.937c0 .234.09.456.25.617l-.75-11.554c-.004-.361.133-.71.382-.969.127-.133.28-.237.445-.307v.402l.472-.007z" fill="#212170" stroke="#212170"/></symbol>
<symbol id="i-time" viewBox="0 0 24 24" fill="none" xmlns="http://www.w3.org/2000/svg"><path fill-rule="evenodd" clip-rule="evenodd" d="M7.555 18.652a8 8 0 108.89-13.305 8 8 0 00-8.89 13.305zm.89-11.973a6.4 6.4 0 117.11 10.642A6.4 6.4 0 018.446 6.68zM12 12.799h3.8a.8.8 0 100-1.6h-3V8.049a.8.8 0 00-1.6 0V12a.8.8 0 00.8.8z" fill="#212170"/></symbol>
<symbol id="i-x" viewBox="0 0 80 80" fill="none" xmlns="http://www.w3.org/2000/svg"><circle cx="40" cy="40" r="40" fill="#fff"/><path fill="#D9D3FF" d="M26 30h21v18H26z"/><path fill-rule="evenodd" clip-rule="evenodd" d="M57.7 18H31.67c-1.84 0-3.604.747-4.905 2.076a7.165 7.165 0 00-2.032 5.011v24.467h-4.3c-.38 0-.744.154-1.013.428a1.48 1.48 0 00-.42 1.036v3.895c0 1.847.705 3.621 1.966 4.945A6.87 6.87 0 0025.75 62h23.578c1.84 0 3.605-.747 4.906-2.076a7.165 7.165 0 002.032-5.011V30.446h4.3c.38 0 .744-.154 1.013-.429a1.48 1.48 0 00.42-1.035v-6.59a4.442 4.442 0 00-1.26-3.105A4.255 4.255 0 0057.7 18zM41.933 52.482H21.867v2.43c0 1.104.428 2.162 1.192 2.941a4.027 4.027 0 002.878 1.218h17.315a7.161 7.161 0 01-1.319-4.158v-2.43zm11.71-31.553H31.672c-1.08 0-2.115.438-2.879 1.218a4.205 4.205 0 00-1.192 2.94v24.467h16.197c.29.093.543.278.724.528.18.25.278.552.279.863v3.895c-.01.552.089 1.1.289 1.614.2.513.499.98.878 1.374.379.394.83.706 1.33.92a3.995 3.995 0 001.574.323h.458c1.08 0 2.115-.438 2.879-1.218a4.205 4.205 0 001.192-2.94v-32.52a4.61 4.61 0 01.244-1.464zM30.468 45.357h20.066c.38 0 .745-.154 1.014-.429a1.48 1.48 0 00.42-1.035V26.32c0-.388-.151-.76-.42-1.035a1.418 1.418 0 00-1.014-.429H30.467c-.38 0-.745.154-1.014.429a1.48 1.48 0 00-.42 1.035v17.572c0 .388.151.76.42 1.035.269.275.634.43 1.014.43zm15.766-2.928H49.1V27.786H31.9v14.643h2.867v-3.661c0-.389.15-.76.42-1.035a1.418 1.418 0 011.013-.43c.38 0 .745.155 1.014.43.268.274.42.647.42 1.035v3.66h1.433V35.84c0-.388.15-.76.42-1.035a1.418 1.418 0 011.013-.429c.38 0 .745.154 1.014.429.268.274.42.647.42 1.035v6.59h1.433v-5.125c0-.389.15-.761.42-1.036a1.418 1.418 0 011.013-.429c.38 0 .745.155 1.014.43.268.274.42.646.42 1.035v5.125zM34.94 37.128l5.733-4.657 4.128 2.446a1.411 1.411 0 001.52 0l1.433-.981c.323-.206.553-.535.639-.914a1.494 1.494 0 00-.18-1.107 1.437 1.437 0 00-.895-.653 1.41 1.41 0 00-1.084.184l-.702.484-4.3-2.49a1.408 1.408 0 00-1.605.132l-6.45 5.272a1.481 1.481 0 00-.593 1.593c.05.195.14.378.264.537.124.159.278.29.454.384a1.412 1.412 0 001.652-.23h-.014zm21.328-9.61v-5.125a1.49 1.49 0 01.415-1.04 1.431 1.431 0 011.018-.424c.38 0 .745.154 1.014.429.268.274.42.646.42 1.035v5.125h-2.867z" fill="#212170"/></symbol>
</svg>